M48
METRIC,LZ,000.000
;FILE_FORMAT=3:3
;TYPE=PLATED
;Layer: PTH_Through
;EasyEDA v6.5.34, 2023-09-07 19:38:45
;9ee9bf4eaa3c4749808be0ecbaf77966,1ae14fa7f5aa486887b2aa5280da83c0,10
;Gerber Generator version 0.2
;Holesize 1 = 0.306 mm
T01C0.306
;Holesize 2 = 1.093 mm
T02C1.093
;Holesize 3 = 1.199 mm
T03C1.199
;Holesize 4 = 1.753 mm
T04C1.753
%
G05
G90
T01
X095211Y082185
X120705Y077905
X115576Y095634
X078306Y104536
X116276Y092696
T02
X059591Y080211G85X059586Y080211
X057051Y080211G85X057046Y080211
X079022Y080211G85X079017Y080211
X076482Y080211G85X076477Y080211
X098453Y080211G85X098448Y080211
X095913Y080211G85X095908Y080211
X098453Y099642G85X098448Y099642
X095913Y099642G85X095908Y099642
X079022Y099642G85X079017Y099642
X076482Y099642G85X076477Y099642
X040160Y080211G85X040155Y080211
X037620Y080211G85X037615Y080211
X059591Y099642G85X059586Y099642
X057051Y099642G85X057046Y099642
X117884Y080211G85X117879Y080211
X115344Y080211G85X115339Y080211
X040160Y099642G85X040155Y099642
X037620Y099642G85X037615Y099642
T03
X125795Y104536
X110729Y104536
X110729Y101991
X110729Y099461
X110728Y096921
X110728Y094381
X110728Y091841
X110728Y089301
X125797Y102001
X125797Y099461
X125797Y096921
X125797Y094372
X125797Y091842
X125797Y089292
T04
X062131Y072591G85X062126Y072591
X055781Y070051G85X055776Y070051
X081562Y072591G85X081557Y072591
X075212Y070051G85X075207Y070051
X100993Y072591G85X100988Y072591
X094643Y070051G85X094638Y070051
X100993Y092022G85X100988Y092022
X094643Y089482G85X094638Y089482
X081562Y092022G85X081557Y092022
X075212Y089482G85X075207Y089482
X042700Y072591G85X042695Y072591
X036350Y070051G85X036345Y070051
X062131Y092022G85X062126Y092022
X055781Y089482G85X055776Y089482
X120424Y072591G85X120419Y072591
X114074Y070051G85X114069Y070051
X042700Y092022G85X042695Y092022
X036350Y089482G85X036345Y089482
M30
