M48
METRIC,LZ,000.000
;FILE_FORMAT=3:3
;TYPE=NON_PLATED
;Layer: NPTH_Through
;EasyEDA v6.5.34, 2023-09-07 19:38:45
;9ee9bf4eaa3c4749808be0ecbaf77966,1ae14fa7f5aa486887b2aa5280da83c0,10
;Gerber Generator version 0.2
;Holesize 1 = 1.707 mm
T01C1.707
;Holesize 2 = 3.000 mm
T02C3.000
;Holesize 3 = 4.090 mm
T03C4.090
%
G05
G90
T01
X063398Y075131
X053238Y075131
X082829Y075131
X072669Y075131
X102260Y075131
X092100Y075131
X102260Y094562
X092100Y094562
X082829Y094562
X072669Y094562
X043967Y075131
X033807Y075131
X063398Y094562
X053238Y094562
X121691Y075131
X111531Y075131
X043967Y094562
X033807Y094562
T02
X030480Y106680
X104140Y106680
X030480Y063500
X127000Y063500
T03
X058318Y075131
X077749Y075131
X097180Y075131
X097180Y094562
X077749Y094562
X038887Y075131
X058318Y094562
X116611Y075131
X038887Y094562
M30
