G04 Layer: BottomSolderMaskLayer*
G04 EasyEDA v6.5.34, 2023-09-07 19:38:45*
G04 9ee9bf4eaa3c4749808be0ecbaf77966,1ae14fa7f5aa486887b2aa5280da83c0,10*
G04 Gerber Generator version 0.2*
G04 Scale: 100 percent, Rotated: No, Reflected: No *
G04 Dimensions in millimeters *
G04 leading zeros omitted , absolute positions ,4 integer and 5 decimal *
%FSLAX45Y45*%
%MOMM*%

%ADD10C,2.1336*%
%ADD11C,3.3274*%

%LPD*%
G36*
X12596875Y10348468D02*
G01*
X12591795Y10348721D01*
X12591541Y10348721D01*
X12586715Y10348976D01*
X12586461Y10349229D01*
X12581381Y10349737D01*
X12581127Y10349737D01*
X12576302Y10350754D01*
X12576047Y10350754D01*
X12571222Y10351770D01*
X12570968Y10351770D01*
X12566141Y10353294D01*
X12565888Y10353294D01*
X12561061Y10354818D01*
X12561061Y10355071D01*
X12556236Y10356850D01*
X12555981Y10356850D01*
X12551409Y10358881D01*
X12551409Y10359136D01*
X12546838Y10361421D01*
X12546584Y10361421D01*
X12542265Y10363962D01*
X12542011Y10363962D01*
X12537947Y10366755D01*
X12537693Y10367010D01*
X12533629Y10369804D01*
X12533375Y10370058D01*
X12529565Y10373105D01*
X12529311Y10373360D01*
X12525756Y10376408D01*
X12521691Y10380471D01*
X12518390Y10384028D01*
X12518136Y10384281D01*
X12514834Y10388092D01*
X12514834Y10388345D01*
X12511786Y10392155D01*
X12511531Y10392410D01*
X12508738Y10396474D01*
X12508738Y10396728D01*
X12506197Y10401045D01*
X12505943Y10401300D01*
X12503658Y10405618D01*
X12503404Y10405871D01*
X12501372Y10410189D01*
X12501118Y10410444D01*
X12499340Y10415015D01*
X12499086Y10415270D01*
X12497561Y10420095D01*
X12497308Y10420350D01*
X12496038Y10424921D01*
X12495784Y10425176D01*
X12494513Y10430002D01*
X12494513Y10430255D01*
X12493497Y10435336D01*
X12493497Y10435589D01*
X12492736Y10440415D01*
X12492736Y10440670D01*
X12492227Y10445750D01*
X12492227Y10446004D01*
X12491974Y10450829D01*
X12491974Y10456418D01*
X12492227Y10461244D01*
X12492227Y10461497D01*
X12492736Y10466578D01*
X12492736Y10466831D01*
X12493497Y10471658D01*
X12493497Y10471912D01*
X12494513Y10476737D01*
X12494513Y10476992D01*
X12495784Y10481818D01*
X12496038Y10482071D01*
X12497308Y10486897D01*
X12497561Y10487152D01*
X12499086Y10491978D01*
X12499340Y10491978D01*
X12501118Y10496804D01*
X12501372Y10496804D01*
X12503404Y10501376D01*
X12503658Y10501629D01*
X12505943Y10505947D01*
X12506197Y10506202D01*
X12508738Y10510520D01*
X12508738Y10510774D01*
X12511531Y10514837D01*
X12511786Y10515092D01*
X12514834Y10518902D01*
X12514834Y10519155D01*
X12518136Y10522965D01*
X12518390Y10523220D01*
X12521691Y10526776D01*
X12525502Y10530586D01*
X12525756Y10530586D01*
X12529311Y10533887D01*
X12529565Y10534142D01*
X12533375Y10537189D01*
X12533629Y10537444D01*
X12537693Y10540237D01*
X12537947Y10540492D01*
X12542011Y10543286D01*
X12542265Y10543286D01*
X12546584Y10545826D01*
X12546838Y10545826D01*
X12551409Y10548112D01*
X12551409Y10548365D01*
X12555981Y10550397D01*
X12556236Y10550397D01*
X12561061Y10552176D01*
X12561061Y10552429D01*
X12565888Y10553954D01*
X12566141Y10553954D01*
X12570968Y10555478D01*
X12571222Y10555478D01*
X12576047Y10556494D01*
X12576302Y10556494D01*
X12581127Y10557510D01*
X12581381Y10557510D01*
X12586461Y10558018D01*
X12586715Y10558018D01*
X12591541Y10558526D01*
X12752577Y10558526D01*
X12757404Y10558018D01*
X12757658Y10558018D01*
X12762738Y10557510D01*
X12762991Y10557510D01*
X12767818Y10556494D01*
X12768072Y10556494D01*
X12772897Y10555478D01*
X12773152Y10555478D01*
X12777977Y10553954D01*
X12778231Y10553954D01*
X12782804Y10552429D01*
X12783058Y10552176D01*
X12787884Y10550397D01*
X12792456Y10548365D01*
X12792709Y10548112D01*
X12797281Y10545826D01*
X12797536Y10545826D01*
X12801854Y10543286D01*
X12806172Y10540492D01*
X12806425Y10540237D01*
X12810490Y10537444D01*
X12810490Y10537189D01*
X12814554Y10534142D01*
X12814808Y10533887D01*
X12818363Y10530586D01*
X12818618Y10530586D01*
X12822427Y10526776D01*
X12825729Y10523220D01*
X12825984Y10522965D01*
X12829031Y10519155D01*
X12829286Y10518902D01*
X12832334Y10515092D01*
X12832334Y10514837D01*
X12835127Y10510774D01*
X12835381Y10510520D01*
X12837922Y10506202D01*
X12838175Y10505947D01*
X12840461Y10501629D01*
X12840715Y10501376D01*
X12842747Y10496804D01*
X12843002Y10496804D01*
X12846558Y10487152D01*
X12846811Y10486897D01*
X12848081Y10482071D01*
X12848336Y10481818D01*
X12849352Y10476992D01*
X12849606Y10476737D01*
X12850622Y10471912D01*
X12850622Y10471658D01*
X12851384Y10466831D01*
X12851384Y10466578D01*
X12851891Y10461497D01*
X12851891Y10461244D01*
X12852145Y10456418D01*
X12852145Y10450829D01*
X12851891Y10446004D01*
X12851891Y10445750D01*
X12851384Y10440670D01*
X12851384Y10440415D01*
X12850622Y10435589D01*
X12850622Y10435336D01*
X12849606Y10430255D01*
X12849352Y10430002D01*
X12848336Y10425176D01*
X12848081Y10424921D01*
X12846811Y10420350D01*
X12846558Y10420095D01*
X12844779Y10415270D01*
X12844779Y10415015D01*
X12843002Y10410444D01*
X12842747Y10410189D01*
X12840715Y10405871D01*
X12840461Y10405618D01*
X12838175Y10401300D01*
X12837922Y10401045D01*
X12835381Y10396728D01*
X12835127Y10396474D01*
X12832334Y10392410D01*
X12832334Y10392155D01*
X12829286Y10388345D01*
X12829031Y10388092D01*
X12825984Y10384281D01*
X12825729Y10384028D01*
X12822427Y10380471D01*
X12818363Y10376408D01*
X12814808Y10373360D01*
X12814554Y10373105D01*
X12810490Y10370058D01*
X12810490Y10369804D01*
X12806425Y10367010D01*
X12806172Y10366755D01*
X12801854Y10363962D01*
X12797536Y10361421D01*
X12797281Y10361421D01*
X12792709Y10359136D01*
X12792456Y10358881D01*
X12787884Y10356850D01*
X12783058Y10355071D01*
X12782804Y10354818D01*
X12778231Y10353294D01*
X12777977Y10353294D01*
X12773152Y10351770D01*
X12772897Y10351770D01*
X12768072Y10350754D01*
X12767818Y10350754D01*
X12762991Y10349737D01*
X12762738Y10349737D01*
X12757658Y10349229D01*
X12757404Y10348976D01*
X12752577Y10348721D01*
X12752324Y10348721D01*
X12747243Y10348468D01*
G37*
G36*
X10905236Y10348468D02*
G01*
X10900156Y10348721D01*
X10899902Y10348721D01*
X10895075Y10348976D01*
X10894822Y10349229D01*
X10889741Y10349737D01*
X10889488Y10349737D01*
X10884661Y10350754D01*
X10884408Y10350754D01*
X10879581Y10351770D01*
X10879327Y10351770D01*
X10874502Y10353294D01*
X10874247Y10353294D01*
X10869675Y10354818D01*
X10869422Y10355071D01*
X10864595Y10356850D01*
X10860024Y10358881D01*
X10859770Y10359136D01*
X10855197Y10361421D01*
X10854943Y10361421D01*
X10850625Y10363962D01*
X10846308Y10366755D01*
X10846054Y10367010D01*
X10841990Y10369804D01*
X10841990Y10370058D01*
X10837925Y10373105D01*
X10837672Y10373360D01*
X10834115Y10376408D01*
X10830052Y10380471D01*
X10826750Y10384028D01*
X10826495Y10384281D01*
X10823447Y10388092D01*
X10823193Y10388345D01*
X10820145Y10392155D01*
X10820145Y10392410D01*
X10817352Y10396474D01*
X10817097Y10396728D01*
X10814558Y10401045D01*
X10814304Y10401300D01*
X10812018Y10405618D01*
X10811763Y10405871D01*
X10809731Y10410189D01*
X10809477Y10410444D01*
X10807700Y10415015D01*
X10807700Y10415270D01*
X10805922Y10420095D01*
X10805668Y10420350D01*
X10804397Y10424921D01*
X10804143Y10425176D01*
X10803127Y10430002D01*
X10802874Y10430255D01*
X10801858Y10435336D01*
X10801858Y10435589D01*
X10801095Y10440415D01*
X10801095Y10440670D01*
X10800588Y10445750D01*
X10800588Y10446004D01*
X10800334Y10450829D01*
X10800334Y10456418D01*
X10800588Y10461244D01*
X10800588Y10461497D01*
X10801095Y10466578D01*
X10801095Y10466831D01*
X10801858Y10471658D01*
X10801858Y10471912D01*
X10802874Y10476737D01*
X10803127Y10476992D01*
X10804143Y10481818D01*
X10804397Y10482071D01*
X10805668Y10486897D01*
X10805922Y10487152D01*
X10809477Y10496804D01*
X10809731Y10496804D01*
X10811763Y10501376D01*
X10812018Y10501629D01*
X10814304Y10505947D01*
X10814558Y10506202D01*
X10817097Y10510520D01*
X10817352Y10510774D01*
X10820145Y10514837D01*
X10820145Y10515092D01*
X10823193Y10518902D01*
X10823447Y10519155D01*
X10826495Y10522965D01*
X10826750Y10523220D01*
X10830052Y10526776D01*
X10833861Y10530586D01*
X10834115Y10530586D01*
X10837672Y10533887D01*
X10837925Y10534142D01*
X10841990Y10537189D01*
X10841990Y10537444D01*
X10846054Y10540237D01*
X10846308Y10540492D01*
X10850625Y10543286D01*
X10854943Y10545826D01*
X10855197Y10545826D01*
X10859770Y10548112D01*
X10860024Y10548365D01*
X10864595Y10550397D01*
X10869422Y10552176D01*
X10869675Y10552429D01*
X10874247Y10553954D01*
X10874502Y10553954D01*
X10879327Y10555478D01*
X10879581Y10555478D01*
X10884408Y10556494D01*
X10884661Y10556494D01*
X10889488Y10557510D01*
X10889741Y10557510D01*
X10894822Y10558018D01*
X10895075Y10558018D01*
X10899902Y10558526D01*
X11060938Y10558526D01*
X11065763Y10558018D01*
X11066018Y10558018D01*
X11071097Y10557510D01*
X11071352Y10557510D01*
X11076177Y10556494D01*
X11076431Y10556494D01*
X11081258Y10555478D01*
X11081511Y10555478D01*
X11086338Y10553954D01*
X11086591Y10553954D01*
X11091418Y10552429D01*
X11091418Y10552176D01*
X11096243Y10550397D01*
X11096497Y10550397D01*
X11101070Y10548365D01*
X11101070Y10548112D01*
X11105641Y10545826D01*
X11105895Y10545826D01*
X11110213Y10543286D01*
X11110468Y10543286D01*
X11114531Y10540492D01*
X11114786Y10540237D01*
X11118850Y10537444D01*
X11119104Y10537189D01*
X11122913Y10534142D01*
X11123168Y10533887D01*
X11126724Y10530586D01*
X11126977Y10530586D01*
X11130788Y10526776D01*
X11134090Y10523220D01*
X11134343Y10522965D01*
X11137645Y10519155D01*
X11137645Y10518902D01*
X11140693Y10515092D01*
X11140947Y10514837D01*
X11143741Y10510774D01*
X11143741Y10510520D01*
X11146281Y10506202D01*
X11146536Y10505947D01*
X11148822Y10501629D01*
X11149075Y10501376D01*
X11151108Y10496804D01*
X11151361Y10496804D01*
X11153140Y10491978D01*
X11153393Y10491978D01*
X11154918Y10487152D01*
X11155172Y10486897D01*
X11156441Y10482071D01*
X11156695Y10481818D01*
X11157965Y10476992D01*
X11157965Y10476737D01*
X11158981Y10471912D01*
X11158981Y10471658D01*
X11159743Y10466831D01*
X11159743Y10466578D01*
X11160252Y10461497D01*
X11160252Y10461244D01*
X11160506Y10456418D01*
X11160506Y10450829D01*
X11160252Y10446004D01*
X11160252Y10445750D01*
X11159743Y10440670D01*
X11159743Y10440415D01*
X11158981Y10435589D01*
X11158981Y10435336D01*
X11157965Y10430255D01*
X11157965Y10430002D01*
X11156695Y10425176D01*
X11156441Y10424921D01*
X11155172Y10420350D01*
X11154918Y10420095D01*
X11153393Y10415270D01*
X11153140Y10415015D01*
X11151361Y10410444D01*
X11151108Y10410189D01*
X11149075Y10405871D01*
X11148822Y10405618D01*
X11146536Y10401300D01*
X11146281Y10401045D01*
X11143741Y10396728D01*
X11143741Y10396474D01*
X11140947Y10392410D01*
X11140693Y10392155D01*
X11137645Y10388345D01*
X11137645Y10388092D01*
X11134343Y10384281D01*
X11134090Y10384028D01*
X11130788Y10380471D01*
X11126724Y10376408D01*
X11123168Y10373360D01*
X11122913Y10373105D01*
X11119104Y10370058D01*
X11118850Y10369804D01*
X11114786Y10367010D01*
X11114531Y10366755D01*
X11110468Y10363962D01*
X11110213Y10363962D01*
X11105895Y10361421D01*
X11105641Y10361421D01*
X11101070Y10359136D01*
X11101070Y10358881D01*
X11096497Y10356850D01*
X11096243Y10356850D01*
X11091418Y10355071D01*
X11091418Y10354818D01*
X11086591Y10353294D01*
X11086338Y10353294D01*
X11081511Y10351770D01*
X11081258Y10351770D01*
X11076431Y10350754D01*
X11076177Y10350754D01*
X11071352Y10349737D01*
X11071097Y10349737D01*
X11066018Y10349229D01*
X11065763Y10348976D01*
X11060938Y10348721D01*
X11060684Y10348721D01*
X11055604Y10348468D01*
G37*
G36*
X10905236Y10093960D02*
G01*
X10900156Y10094213D01*
X10899902Y10094213D01*
X10895075Y10094468D01*
X10894822Y10094468D01*
X10889741Y10095229D01*
X10889488Y10095229D01*
X10884661Y10095992D01*
X10884408Y10095992D01*
X10879581Y10097262D01*
X10879327Y10097262D01*
X10874502Y10098531D01*
X10874247Y10098786D01*
X10869675Y10100310D01*
X10869422Y10100310D01*
X10864595Y10102087D01*
X10864341Y10102342D01*
X10860024Y10104374D01*
X10859770Y10104374D01*
X10855197Y10106660D01*
X10854943Y10106913D01*
X10850625Y10109454D01*
X10850372Y10109454D01*
X10846308Y10112247D01*
X10846054Y10112247D01*
X10841990Y10115295D01*
X10841736Y10115295D01*
X10837925Y10118597D01*
X10837672Y10118597D01*
X10834115Y10121900D01*
X10830306Y10125710D01*
X10830052Y10125710D01*
X10826750Y10129520D01*
X10826495Y10129774D01*
X10823447Y10133584D01*
X10823193Y10133584D01*
X10820145Y10137647D01*
X10819891Y10137902D01*
X10817097Y10141965D01*
X10817097Y10142220D01*
X10814558Y10146537D01*
X10814304Y10146537D01*
X10812018Y10151110D01*
X10811763Y10151110D01*
X10809731Y10155681D01*
X10809477Y10155936D01*
X10807700Y10160508D01*
X10807445Y10160762D01*
X10805922Y10165587D01*
X10805668Y10165587D01*
X10804397Y10170413D01*
X10804143Y10170668D01*
X10803127Y10175494D01*
X10802874Y10175747D01*
X10801858Y10180574D01*
X10801858Y10180828D01*
X10801095Y10185908D01*
X10801095Y10186162D01*
X10800588Y10190987D01*
X10800588Y10191242D01*
X10800334Y10196321D01*
X10800334Y10201655D01*
X10800588Y10206736D01*
X10800588Y10206989D01*
X10801095Y10212070D01*
X10801095Y10212324D01*
X10801858Y10217150D01*
X10801858Y10217404D01*
X10802874Y10222229D01*
X10803127Y10222484D01*
X10804143Y10227310D01*
X10804397Y10227563D01*
X10805668Y10232389D01*
X10805922Y10232644D01*
X10807445Y10237215D01*
X10807700Y10237470D01*
X10809477Y10242042D01*
X10809731Y10242295D01*
X10811763Y10246868D01*
X10812018Y10247121D01*
X10814304Y10251439D01*
X10814558Y10251694D01*
X10817097Y10256012D01*
X10819891Y10260329D01*
X10820145Y10260329D01*
X10823193Y10264394D01*
X10823447Y10264647D01*
X10826495Y10268458D01*
X10826750Y10268712D01*
X10830052Y10272268D01*
X10830306Y10272521D01*
X10833861Y10275824D01*
X10834115Y10276078D01*
X10837672Y10279379D01*
X10837925Y10279634D01*
X10841736Y10282681D01*
X10841990Y10282936D01*
X10846054Y10285729D01*
X10846308Y10285984D01*
X10850372Y10288524D01*
X10850625Y10288778D01*
X10854943Y10291318D01*
X10855197Y10291318D01*
X10859770Y10293604D01*
X10860024Y10293604D01*
X10864341Y10295889D01*
X10864595Y10295889D01*
X10869422Y10297668D01*
X10869675Y10297668D01*
X10874247Y10299445D01*
X10874502Y10299445D01*
X10879327Y10300715D01*
X10879581Y10300970D01*
X10884408Y10301986D01*
X10884661Y10301986D01*
X10889488Y10302747D01*
X10889741Y10303002D01*
X10894822Y10303510D01*
X10895075Y10303510D01*
X10899902Y10304018D01*
X11060938Y10304018D01*
X11065763Y10303510D01*
X11066018Y10303510D01*
X11071097Y10303002D01*
X11071352Y10302747D01*
X11076177Y10301986D01*
X11076431Y10301986D01*
X11081258Y10300970D01*
X11081511Y10300715D01*
X11086338Y10299445D01*
X11086591Y10299445D01*
X11091163Y10297668D01*
X11091418Y10297668D01*
X11096243Y10295889D01*
X11096497Y10295889D01*
X11100815Y10293604D01*
X11101070Y10293604D01*
X11105641Y10291318D01*
X11105895Y10291318D01*
X11110213Y10288778D01*
X11110468Y10288524D01*
X11114531Y10285984D01*
X11114786Y10285729D01*
X11118850Y10282936D01*
X11119104Y10282681D01*
X11122913Y10279634D01*
X11123168Y10279379D01*
X11126724Y10276078D01*
X11126977Y10275824D01*
X11130534Y10272521D01*
X11130788Y10272268D01*
X11134090Y10268712D01*
X11134343Y10268458D01*
X11137391Y10264647D01*
X11137645Y10264394D01*
X11140693Y10260329D01*
X11140947Y10260329D01*
X11143741Y10256012D01*
X11146281Y10251694D01*
X11146536Y10251439D01*
X11148822Y10247121D01*
X11149075Y10246868D01*
X11151108Y10242295D01*
X11151361Y10242042D01*
X11153140Y10237470D01*
X11153393Y10237215D01*
X11154918Y10232644D01*
X11155172Y10232389D01*
X11156441Y10227563D01*
X11156695Y10227310D01*
X11157965Y10222484D01*
X11157965Y10222229D01*
X11158981Y10217404D01*
X11158981Y10217150D01*
X11159743Y10212324D01*
X11159743Y10212070D01*
X11160252Y10206989D01*
X11160252Y10206736D01*
X11160506Y10201655D01*
X11160506Y10196321D01*
X11160252Y10191242D01*
X11160252Y10190987D01*
X11159743Y10186162D01*
X11159743Y10185908D01*
X11158981Y10180828D01*
X11158981Y10180574D01*
X11157965Y10175747D01*
X11157965Y10175494D01*
X11156695Y10170668D01*
X11156441Y10170413D01*
X11155172Y10165587D01*
X11154918Y10165587D01*
X11153393Y10160762D01*
X11153140Y10160508D01*
X11151361Y10155936D01*
X11151108Y10155681D01*
X11149075Y10151110D01*
X11148822Y10151110D01*
X11146536Y10146537D01*
X11146281Y10146537D01*
X11143741Y10142220D01*
X11143741Y10141965D01*
X11140947Y10137902D01*
X11140693Y10137647D01*
X11137645Y10133584D01*
X11137391Y10133584D01*
X11134343Y10129774D01*
X11134090Y10129520D01*
X11130788Y10125710D01*
X11130534Y10125710D01*
X11126724Y10121900D01*
X11123168Y10118597D01*
X11122913Y10118597D01*
X11119104Y10115295D01*
X11118850Y10115295D01*
X11114786Y10112247D01*
X11114531Y10112247D01*
X11110468Y10109454D01*
X11110213Y10109454D01*
X11105895Y10106913D01*
X11105641Y10106660D01*
X11101070Y10104374D01*
X11100815Y10104374D01*
X11096497Y10102342D01*
X11096243Y10102087D01*
X11091418Y10100310D01*
X11091163Y10100310D01*
X11086591Y10098786D01*
X11086338Y10098531D01*
X11081511Y10097262D01*
X11081258Y10097262D01*
X11076431Y10095992D01*
X11076177Y10095992D01*
X11071352Y10095229D01*
X11071097Y10095229D01*
X11066018Y10094468D01*
X11065763Y10094468D01*
X11060938Y10094213D01*
X11060684Y10094213D01*
X11055604Y10093960D01*
G37*
G36*
X10905236Y9840976D02*
G01*
X10900156Y9841229D01*
X10899902Y9841229D01*
X10895075Y9841484D01*
X10894822Y9841484D01*
X10889741Y9842245D01*
X10889488Y9842245D01*
X10884661Y9843008D01*
X10884408Y9843008D01*
X10879581Y9844278D01*
X10879327Y9844278D01*
X10874502Y9845547D01*
X10874247Y9845802D01*
X10869675Y9847326D01*
X10869422Y9847326D01*
X10864595Y9849104D01*
X10864341Y9849358D01*
X10860024Y9851389D01*
X10859770Y9851389D01*
X10855197Y9853676D01*
X10854943Y9853929D01*
X10850625Y9856470D01*
X10850372Y9856470D01*
X10846308Y9859263D01*
X10846054Y9859263D01*
X10841990Y9862312D01*
X10841736Y9862312D01*
X10837925Y9865613D01*
X10837672Y9865613D01*
X10834115Y9868915D01*
X10830306Y9872726D01*
X10830052Y9872726D01*
X10826750Y9876536D01*
X10826495Y9876536D01*
X10823447Y9880345D01*
X10823193Y9880600D01*
X10820145Y9884663D01*
X10819891Y9884918D01*
X10817097Y9888981D01*
X10817097Y9889236D01*
X10814558Y9893300D01*
X10814304Y9893554D01*
X10812018Y9898126D01*
X10811763Y9898126D01*
X10809731Y9902697D01*
X10809477Y9902952D01*
X10807700Y9907524D01*
X10807445Y9907778D01*
X10805922Y9912350D01*
X10805668Y9912604D01*
X10804397Y9917429D01*
X10804143Y9917684D01*
X10803127Y9922510D01*
X10802874Y9922763D01*
X10801858Y9927589D01*
X10801858Y9927844D01*
X10801095Y9932924D01*
X10801095Y9933178D01*
X10800588Y9938004D01*
X10800588Y9938258D01*
X10800334Y9943337D01*
X10800334Y9948671D01*
X10800588Y9953752D01*
X10800588Y9954005D01*
X10801095Y9959086D01*
X10801095Y9959339D01*
X10801858Y9964165D01*
X10801858Y9964420D01*
X10802874Y9969245D01*
X10803127Y9969500D01*
X10804143Y9974326D01*
X10804397Y9974579D01*
X10805668Y9979405D01*
X10805922Y9979660D01*
X10807445Y9984231D01*
X10807700Y9984486D01*
X10809477Y9989058D01*
X10809731Y9989312D01*
X10811763Y9993884D01*
X10812018Y9994137D01*
X10814304Y9998455D01*
X10814558Y9998710D01*
X10817097Y10003028D01*
X10819891Y10007345D01*
X10820145Y10007345D01*
X10823193Y10011410D01*
X10823447Y10011663D01*
X10826495Y10015474D01*
X10826750Y10015728D01*
X10830052Y10019284D01*
X10830306Y10019537D01*
X10833861Y10022839D01*
X10834115Y10023094D01*
X10837672Y10026395D01*
X10837925Y10026650D01*
X10841736Y10029697D01*
X10841990Y10029952D01*
X10846054Y10032745D01*
X10846308Y10033000D01*
X10850372Y10035539D01*
X10850625Y10035794D01*
X10854943Y10038334D01*
X10855197Y10038334D01*
X10859770Y10040620D01*
X10860024Y10040620D01*
X10864341Y10042652D01*
X10864595Y10042905D01*
X10869422Y10044684D01*
X10869675Y10044684D01*
X10874247Y10046462D01*
X10874502Y10046462D01*
X10879327Y10047731D01*
X10879581Y10047731D01*
X10884408Y10049002D01*
X10884661Y10049002D01*
X10889488Y10049763D01*
X10889741Y10050018D01*
X10894822Y10050526D01*
X10895075Y10050526D01*
X10899902Y10051034D01*
X11060938Y10051034D01*
X11065763Y10050526D01*
X11066018Y10050526D01*
X11071097Y10050018D01*
X11071352Y10049763D01*
X11076177Y10049002D01*
X11076431Y10049002D01*
X11081258Y10047731D01*
X11081511Y10047731D01*
X11086338Y10046462D01*
X11086591Y10046462D01*
X11091163Y10044684D01*
X11091418Y10044684D01*
X11096243Y10042905D01*
X11096497Y10042652D01*
X11100815Y10040620D01*
X11101070Y10040620D01*
X11105641Y10038334D01*
X11105895Y10038334D01*
X11110213Y10035794D01*
X11110468Y10035539D01*
X11114531Y10033000D01*
X11114786Y10032745D01*
X11118850Y10029952D01*
X11119104Y10029697D01*
X11122913Y10026650D01*
X11123168Y10026395D01*
X11126724Y10023094D01*
X11126977Y10022839D01*
X11130534Y10019537D01*
X11130788Y10019284D01*
X11134090Y10015728D01*
X11134343Y10015474D01*
X11137391Y10011663D01*
X11137645Y10011410D01*
X11140693Y10007345D01*
X11143741Y10003028D01*
X11146281Y9998710D01*
X11146536Y9998455D01*
X11148822Y9994137D01*
X11149075Y9993884D01*
X11151108Y9989312D01*
X11151361Y9989058D01*
X11153140Y9984486D01*
X11153393Y9984231D01*
X11154918Y9979660D01*
X11155172Y9979405D01*
X11156441Y9974579D01*
X11156695Y9974326D01*
X11157711Y9969500D01*
X11157965Y9969245D01*
X11158981Y9964420D01*
X11158981Y9964165D01*
X11159743Y9959339D01*
X11159743Y9959086D01*
X11160252Y9954005D01*
X11160252Y9953752D01*
X11160506Y9948671D01*
X11160506Y9943337D01*
X11160252Y9938258D01*
X11160252Y9938004D01*
X11159743Y9933178D01*
X11159743Y9932924D01*
X11158981Y9927844D01*
X11158981Y9927589D01*
X11157965Y9922763D01*
X11157711Y9922510D01*
X11156695Y9917684D01*
X11156441Y9917429D01*
X11155172Y9912604D01*
X11154918Y9912350D01*
X11153393Y9907778D01*
X11153140Y9907524D01*
X11151361Y9902952D01*
X11151108Y9902697D01*
X11149075Y9898126D01*
X11148822Y9898126D01*
X11146536Y9893554D01*
X11146281Y9893300D01*
X11143741Y9889236D01*
X11143741Y9888981D01*
X11140693Y9884918D01*
X11140693Y9884663D01*
X11137645Y9880600D01*
X11137391Y9880345D01*
X11134343Y9876536D01*
X11134090Y9876536D01*
X11130788Y9872726D01*
X11130534Y9872726D01*
X11126724Y9868915D01*
X11123168Y9865613D01*
X11122913Y9865613D01*
X11119104Y9862312D01*
X11118850Y9862312D01*
X11114786Y9859263D01*
X11114531Y9859263D01*
X11110468Y9856470D01*
X11110213Y9856470D01*
X11105895Y9853929D01*
X11105641Y9853676D01*
X11101070Y9851389D01*
X11100815Y9851389D01*
X11096497Y9849358D01*
X11096243Y9849104D01*
X11091418Y9847326D01*
X11091163Y9847326D01*
X11086591Y9845802D01*
X11086338Y9845547D01*
X11081511Y9844278D01*
X11081258Y9844278D01*
X11076431Y9843008D01*
X11076177Y9843008D01*
X11071352Y9842245D01*
X11071097Y9842245D01*
X11066018Y9841484D01*
X11065763Y9841484D01*
X11060938Y9841229D01*
X11060684Y9841229D01*
X11055604Y9840976D01*
G37*
G36*
X10905236Y9586976D02*
G01*
X10900156Y9587229D01*
X10899902Y9587229D01*
X10895075Y9587484D01*
X10894822Y9587484D01*
X10889741Y9588245D01*
X10889488Y9588245D01*
X10884661Y9589008D01*
X10884408Y9589008D01*
X10879581Y9590278D01*
X10879327Y9590278D01*
X10874502Y9591547D01*
X10874247Y9591802D01*
X10869675Y9593326D01*
X10869422Y9593326D01*
X10864595Y9595104D01*
X10864341Y9595358D01*
X10860024Y9597389D01*
X10859770Y9597389D01*
X10855197Y9599676D01*
X10854943Y9599929D01*
X10850625Y9602470D01*
X10850372Y9602470D01*
X10846308Y9605263D01*
X10846054Y9605263D01*
X10841990Y9608312D01*
X10841736Y9608312D01*
X10837925Y9611613D01*
X10837672Y9611613D01*
X10834115Y9614915D01*
X10830306Y9618726D01*
X10830052Y9618726D01*
X10826750Y9622536D01*
X10826495Y9622536D01*
X10823447Y9626345D01*
X10823193Y9626600D01*
X10820145Y9630663D01*
X10819891Y9630918D01*
X10817097Y9634981D01*
X10817097Y9635236D01*
X10814558Y9639300D01*
X10814304Y9639554D01*
X10812018Y9644126D01*
X10811763Y9644126D01*
X10809731Y9648697D01*
X10809477Y9648952D01*
X10807700Y9653524D01*
X10807445Y9653778D01*
X10805922Y9658350D01*
X10805668Y9658604D01*
X10804397Y9663429D01*
X10804143Y9663684D01*
X10803127Y9668510D01*
X10802874Y9668763D01*
X10801858Y9673589D01*
X10801858Y9673844D01*
X10801095Y9678924D01*
X10801095Y9679178D01*
X10800588Y9684004D01*
X10800588Y9684258D01*
X10800334Y9689337D01*
X10800334Y9694671D01*
X10800588Y9699752D01*
X10800588Y9700005D01*
X10801095Y9705086D01*
X10801095Y9705339D01*
X10801858Y9710165D01*
X10801858Y9710420D01*
X10802874Y9715245D01*
X10803127Y9715500D01*
X10804143Y9720326D01*
X10804397Y9720579D01*
X10805668Y9725405D01*
X10805922Y9725660D01*
X10807445Y9730231D01*
X10807700Y9730486D01*
X10809477Y9735058D01*
X10809731Y9735312D01*
X10811763Y9739884D01*
X10812018Y9740137D01*
X10814304Y9744455D01*
X10814558Y9744710D01*
X10817097Y9749028D01*
X10819891Y9753345D01*
X10820145Y9753345D01*
X10823193Y9757410D01*
X10823447Y9757663D01*
X10826495Y9761474D01*
X10826750Y9761728D01*
X10830052Y9765284D01*
X10830306Y9765537D01*
X10833861Y9768839D01*
X10834115Y9769094D01*
X10837672Y9772395D01*
X10837925Y9772650D01*
X10841736Y9775697D01*
X10841990Y9775952D01*
X10846054Y9778745D01*
X10846308Y9779000D01*
X10850372Y9781539D01*
X10850625Y9781794D01*
X10854943Y9784334D01*
X10855197Y9784334D01*
X10859770Y9786620D01*
X10860024Y9786620D01*
X10864341Y9788652D01*
X10864595Y9788905D01*
X10869422Y9790684D01*
X10869675Y9790684D01*
X10874247Y9792462D01*
X10874502Y9792462D01*
X10879327Y9793731D01*
X10879581Y9793731D01*
X10884408Y9795002D01*
X10884661Y9795002D01*
X10889488Y9795763D01*
X10889741Y9796018D01*
X10894822Y9796526D01*
X10895075Y9796526D01*
X10899902Y9797034D01*
X11060938Y9797034D01*
X11065763Y9796526D01*
X11066018Y9796526D01*
X11071097Y9796018D01*
X11071352Y9795763D01*
X11076177Y9795002D01*
X11076431Y9795002D01*
X11081258Y9793731D01*
X11081511Y9793731D01*
X11086338Y9792462D01*
X11086591Y9792462D01*
X11091163Y9790684D01*
X11091418Y9790684D01*
X11096243Y9788905D01*
X11096497Y9788652D01*
X11100815Y9786620D01*
X11101070Y9786620D01*
X11105641Y9784334D01*
X11105895Y9784334D01*
X11110213Y9781794D01*
X11110468Y9781539D01*
X11114531Y9779000D01*
X11114786Y9778745D01*
X11118850Y9775952D01*
X11119104Y9775697D01*
X11122913Y9772650D01*
X11123168Y9772395D01*
X11126724Y9769094D01*
X11126977Y9768839D01*
X11130534Y9765537D01*
X11130788Y9765284D01*
X11134090Y9761728D01*
X11134343Y9761474D01*
X11137391Y9757663D01*
X11137645Y9757410D01*
X11140693Y9753345D01*
X11143741Y9749028D01*
X11146281Y9744710D01*
X11146536Y9744455D01*
X11148822Y9740137D01*
X11149075Y9739884D01*
X11151108Y9735312D01*
X11151361Y9735058D01*
X11153140Y9730486D01*
X11153393Y9730231D01*
X11154918Y9725660D01*
X11155172Y9725405D01*
X11156441Y9720579D01*
X11156695Y9720326D01*
X11157965Y9715500D01*
X11157965Y9715245D01*
X11158981Y9710420D01*
X11158981Y9710165D01*
X11159743Y9705339D01*
X11159743Y9705086D01*
X11160252Y9700005D01*
X11160252Y9699752D01*
X11160506Y9694671D01*
X11160506Y9689337D01*
X11160252Y9684258D01*
X11160252Y9684004D01*
X11159743Y9679178D01*
X11159743Y9678924D01*
X11158981Y9673844D01*
X11158981Y9673589D01*
X11157965Y9668763D01*
X11157965Y9668510D01*
X11156695Y9663684D01*
X11156441Y9663429D01*
X11155172Y9658604D01*
X11154918Y9658350D01*
X11153393Y9653778D01*
X11153140Y9653524D01*
X11151361Y9648952D01*
X11151108Y9648697D01*
X11149075Y9644126D01*
X11148822Y9644126D01*
X11146536Y9639554D01*
X11146281Y9639300D01*
X11143741Y9635236D01*
X11143741Y9634981D01*
X11140693Y9630918D01*
X11140693Y9630663D01*
X11137645Y9626600D01*
X11137391Y9626345D01*
X11134343Y9622536D01*
X11134090Y9622536D01*
X11130788Y9618726D01*
X11130534Y9618726D01*
X11126724Y9614915D01*
X11123168Y9611613D01*
X11122913Y9611613D01*
X11119104Y9608312D01*
X11118850Y9608312D01*
X11114786Y9605263D01*
X11114531Y9605263D01*
X11110468Y9602470D01*
X11110213Y9602470D01*
X11105895Y9599929D01*
X11105641Y9599676D01*
X11101070Y9597389D01*
X11100815Y9597389D01*
X11096497Y9595358D01*
X11096243Y9595104D01*
X11091418Y9593326D01*
X11091163Y9593326D01*
X11086591Y9591802D01*
X11086338Y9591547D01*
X11081511Y9590278D01*
X11081258Y9590278D01*
X11076431Y9589008D01*
X11076177Y9589008D01*
X11071352Y9588245D01*
X11071097Y9588245D01*
X11066018Y9587484D01*
X11065763Y9587484D01*
X11060938Y9587229D01*
X11060684Y9587229D01*
X11055604Y9586976D01*
G37*
G36*
X10905236Y9332976D02*
G01*
X10900156Y9333229D01*
X10899902Y9333229D01*
X10895075Y9333484D01*
X10894822Y9333484D01*
X10889741Y9334245D01*
X10889488Y9334245D01*
X10884661Y9335008D01*
X10884408Y9335008D01*
X10879581Y9336278D01*
X10879327Y9336278D01*
X10874502Y9337547D01*
X10874247Y9337802D01*
X10869675Y9339326D01*
X10869422Y9339326D01*
X10864595Y9341104D01*
X10864341Y9341358D01*
X10860024Y9343389D01*
X10859770Y9343389D01*
X10855197Y9345676D01*
X10854943Y9345929D01*
X10850625Y9348470D01*
X10850372Y9348470D01*
X10846308Y9351263D01*
X10846054Y9351263D01*
X10841990Y9354312D01*
X10841736Y9354312D01*
X10837925Y9357613D01*
X10837672Y9357613D01*
X10834115Y9360915D01*
X10830306Y9364726D01*
X10830052Y9364726D01*
X10826750Y9368536D01*
X10826495Y9368536D01*
X10823447Y9372345D01*
X10823193Y9372600D01*
X10820145Y9376663D01*
X10819891Y9376918D01*
X10817097Y9380981D01*
X10817097Y9381236D01*
X10814558Y9385300D01*
X10814304Y9385554D01*
X10812018Y9390126D01*
X10811763Y9390126D01*
X10809731Y9394697D01*
X10809477Y9394952D01*
X10807700Y9399524D01*
X10807445Y9399778D01*
X10805922Y9404350D01*
X10805668Y9404604D01*
X10804397Y9409429D01*
X10804143Y9409684D01*
X10802874Y9414510D01*
X10802874Y9414763D01*
X10801858Y9419589D01*
X10801858Y9419844D01*
X10801095Y9424924D01*
X10801095Y9425178D01*
X10800588Y9430004D01*
X10800588Y9430258D01*
X10800334Y9435337D01*
X10800334Y9440671D01*
X10800588Y9445752D01*
X10800588Y9446005D01*
X10801095Y9451086D01*
X10801095Y9451339D01*
X10801858Y9456165D01*
X10801858Y9456420D01*
X10802874Y9461245D01*
X10802874Y9461500D01*
X10804143Y9466326D01*
X10804397Y9466579D01*
X10805668Y9471405D01*
X10805922Y9471660D01*
X10807445Y9476231D01*
X10807700Y9476486D01*
X10809477Y9481058D01*
X10809731Y9481312D01*
X10811763Y9485884D01*
X10812018Y9486137D01*
X10814304Y9490455D01*
X10814558Y9490710D01*
X10817097Y9495028D01*
X10819891Y9499345D01*
X10820145Y9499345D01*
X10823193Y9503410D01*
X10823447Y9503663D01*
X10826495Y9507474D01*
X10826750Y9507728D01*
X10830052Y9511284D01*
X10830306Y9511537D01*
X10833861Y9514839D01*
X10834115Y9515094D01*
X10837672Y9518395D01*
X10837925Y9518650D01*
X10841736Y9521697D01*
X10841990Y9521952D01*
X10846054Y9524745D01*
X10846308Y9525000D01*
X10850372Y9527539D01*
X10850625Y9527794D01*
X10854943Y9530334D01*
X10855197Y9530334D01*
X10859770Y9532620D01*
X10860024Y9532620D01*
X10864341Y9534652D01*
X10864595Y9534905D01*
X10869422Y9536684D01*
X10869675Y9536684D01*
X10874247Y9538462D01*
X10874502Y9538462D01*
X10879327Y9539731D01*
X10879581Y9539731D01*
X10884408Y9541002D01*
X10884661Y9541002D01*
X10889488Y9541763D01*
X10889741Y9542018D01*
X10894822Y9542526D01*
X10895075Y9542526D01*
X10899902Y9543034D01*
X11060938Y9543034D01*
X11065763Y9542526D01*
X11066018Y9542526D01*
X11071097Y9542018D01*
X11071352Y9541763D01*
X11076177Y9541002D01*
X11076431Y9541002D01*
X11081258Y9539731D01*
X11081511Y9539731D01*
X11086338Y9538462D01*
X11086591Y9538462D01*
X11091163Y9536684D01*
X11091418Y9536684D01*
X11096243Y9534905D01*
X11096497Y9534652D01*
X11100815Y9532620D01*
X11101070Y9532620D01*
X11105641Y9530334D01*
X11105895Y9530334D01*
X11110213Y9527794D01*
X11110468Y9527539D01*
X11114531Y9525000D01*
X11114786Y9524745D01*
X11118850Y9521952D01*
X11119104Y9521697D01*
X11122913Y9518650D01*
X11123168Y9518395D01*
X11126724Y9515094D01*
X11126977Y9514839D01*
X11130534Y9511537D01*
X11130788Y9511284D01*
X11134090Y9507728D01*
X11134343Y9507474D01*
X11137391Y9503663D01*
X11137645Y9503410D01*
X11140693Y9499345D01*
X11143741Y9495028D01*
X11146281Y9490710D01*
X11146536Y9490455D01*
X11148822Y9486137D01*
X11149075Y9485884D01*
X11151108Y9481312D01*
X11151361Y9481058D01*
X11153140Y9476486D01*
X11153393Y9476231D01*
X11154918Y9471660D01*
X11155172Y9471405D01*
X11156441Y9466579D01*
X11156695Y9466326D01*
X11157711Y9461500D01*
X11157965Y9461245D01*
X11158981Y9456420D01*
X11158981Y9456165D01*
X11159743Y9451339D01*
X11159743Y9451086D01*
X11160252Y9446005D01*
X11160252Y9445752D01*
X11160506Y9440671D01*
X11160506Y9435337D01*
X11160252Y9430258D01*
X11160252Y9430004D01*
X11159743Y9425178D01*
X11159743Y9424924D01*
X11158981Y9419844D01*
X11158981Y9419589D01*
X11157965Y9414763D01*
X11157711Y9414510D01*
X11156695Y9409684D01*
X11156441Y9409429D01*
X11155172Y9404604D01*
X11154918Y9404350D01*
X11153393Y9399778D01*
X11153140Y9399524D01*
X11151361Y9394952D01*
X11151108Y9394697D01*
X11149075Y9390126D01*
X11148822Y9390126D01*
X11146536Y9385554D01*
X11146281Y9385300D01*
X11143741Y9381236D01*
X11143741Y9380981D01*
X11140693Y9376918D01*
X11140693Y9376663D01*
X11137645Y9372600D01*
X11137391Y9372345D01*
X11134343Y9368536D01*
X11134090Y9368536D01*
X11130788Y9364726D01*
X11130534Y9364726D01*
X11126724Y9360915D01*
X11123168Y9357613D01*
X11122913Y9357613D01*
X11119104Y9354312D01*
X11118850Y9354312D01*
X11114786Y9351263D01*
X11114531Y9351263D01*
X11110468Y9348470D01*
X11110213Y9348470D01*
X11105895Y9345929D01*
X11105641Y9345676D01*
X11101070Y9343389D01*
X11100815Y9343389D01*
X11096497Y9341358D01*
X11096243Y9341104D01*
X11091418Y9339326D01*
X11091163Y9339326D01*
X11086591Y9337802D01*
X11086338Y9337547D01*
X11081511Y9336278D01*
X11081258Y9336278D01*
X11076431Y9335008D01*
X11076177Y9335008D01*
X11071352Y9334245D01*
X11071097Y9334245D01*
X11066018Y9333484D01*
X11065763Y9333484D01*
X11060938Y9333229D01*
X11060684Y9333229D01*
X11055604Y9332976D01*
G37*
G36*
X10905236Y9078976D02*
G01*
X10900156Y9079229D01*
X10899902Y9079229D01*
X10895075Y9079484D01*
X10894822Y9079484D01*
X10889741Y9080245D01*
X10889488Y9080245D01*
X10884661Y9081008D01*
X10884408Y9081008D01*
X10879581Y9082278D01*
X10879327Y9082278D01*
X10874502Y9083547D01*
X10874247Y9083802D01*
X10869675Y9085326D01*
X10869422Y9085326D01*
X10864595Y9087104D01*
X10864341Y9087358D01*
X10860024Y9089389D01*
X10859770Y9089389D01*
X10855197Y9091676D01*
X10854943Y9091929D01*
X10850625Y9094470D01*
X10850372Y9094470D01*
X10846308Y9097263D01*
X10846054Y9097263D01*
X10841990Y9100312D01*
X10841736Y9100312D01*
X10837925Y9103613D01*
X10837672Y9103613D01*
X10834115Y9106915D01*
X10830306Y9110726D01*
X10830052Y9110726D01*
X10826750Y9114536D01*
X10826495Y9114536D01*
X10823447Y9118345D01*
X10823193Y9118600D01*
X10820145Y9122663D01*
X10819891Y9122918D01*
X10817097Y9126981D01*
X10817097Y9127236D01*
X10814558Y9131300D01*
X10814304Y9131554D01*
X10812018Y9136126D01*
X10811763Y9136126D01*
X10809731Y9140697D01*
X10809477Y9140952D01*
X10807700Y9145524D01*
X10807445Y9145778D01*
X10805922Y9150350D01*
X10805668Y9150604D01*
X10804397Y9155429D01*
X10804143Y9155684D01*
X10803127Y9160510D01*
X10802874Y9160763D01*
X10801858Y9165589D01*
X10801858Y9165844D01*
X10801095Y9170924D01*
X10801095Y9171178D01*
X10800588Y9176004D01*
X10800588Y9176258D01*
X10800334Y9181337D01*
X10800334Y9186671D01*
X10800588Y9191752D01*
X10800588Y9192005D01*
X10801095Y9197086D01*
X10801095Y9197339D01*
X10801858Y9202165D01*
X10801858Y9202420D01*
X10802874Y9207245D01*
X10803127Y9207500D01*
X10804143Y9212326D01*
X10804397Y9212579D01*
X10805668Y9217405D01*
X10805922Y9217660D01*
X10807445Y9222231D01*
X10807700Y9222486D01*
X10809477Y9227058D01*
X10809731Y9227312D01*
X10811763Y9231884D01*
X10812018Y9232137D01*
X10814304Y9236455D01*
X10814558Y9236710D01*
X10817097Y9241028D01*
X10819891Y9245345D01*
X10820145Y9245345D01*
X10823193Y9249410D01*
X10823447Y9249663D01*
X10826495Y9253474D01*
X10826750Y9253728D01*
X10830052Y9257284D01*
X10830306Y9257537D01*
X10833861Y9260839D01*
X10834115Y9261094D01*
X10837672Y9264395D01*
X10837925Y9264650D01*
X10841736Y9267697D01*
X10841990Y9267952D01*
X10846054Y9270745D01*
X10846308Y9271000D01*
X10850372Y9273539D01*
X10850625Y9273794D01*
X10854943Y9276334D01*
X10855197Y9276334D01*
X10859770Y9278620D01*
X10860024Y9278620D01*
X10864341Y9280652D01*
X10864595Y9280905D01*
X10869422Y9282684D01*
X10869675Y9282684D01*
X10874247Y9284462D01*
X10874502Y9284462D01*
X10879327Y9285731D01*
X10879581Y9285731D01*
X10884408Y9287002D01*
X10884661Y9287002D01*
X10889488Y9287763D01*
X10889741Y9288018D01*
X10894822Y9288526D01*
X10895075Y9288526D01*
X10899902Y9289034D01*
X11060938Y9289034D01*
X11065763Y9288526D01*
X11066018Y9288526D01*
X11071097Y9288018D01*
X11071352Y9287763D01*
X11076177Y9287002D01*
X11076431Y9287002D01*
X11081258Y9285731D01*
X11081511Y9285731D01*
X11086338Y9284462D01*
X11086591Y9284462D01*
X11091163Y9282684D01*
X11091418Y9282684D01*
X11096243Y9280905D01*
X11096497Y9280652D01*
X11100815Y9278620D01*
X11101070Y9278620D01*
X11105641Y9276334D01*
X11105895Y9276334D01*
X11110213Y9273794D01*
X11110213Y9273539D01*
X11114531Y9271000D01*
X11114786Y9270745D01*
X11118850Y9267952D01*
X11119104Y9267697D01*
X11122913Y9264650D01*
X11123168Y9264395D01*
X11126724Y9261094D01*
X11126977Y9260839D01*
X11130534Y9257537D01*
X11130788Y9257284D01*
X11134090Y9253728D01*
X11134343Y9253474D01*
X11137391Y9249663D01*
X11137645Y9249410D01*
X11140693Y9245345D01*
X11143741Y9241028D01*
X11146281Y9236710D01*
X11146536Y9236455D01*
X11148822Y9232137D01*
X11149075Y9231884D01*
X11151108Y9227312D01*
X11151361Y9227058D01*
X11153140Y9222486D01*
X11153393Y9222231D01*
X11154918Y9217660D01*
X11155172Y9217405D01*
X11156441Y9212579D01*
X11156695Y9212326D01*
X11157711Y9207500D01*
X11157965Y9207245D01*
X11158981Y9202420D01*
X11158981Y9202165D01*
X11159743Y9197339D01*
X11159743Y9196831D01*
X11160252Y9192005D01*
X11160252Y9191752D01*
X11160506Y9186671D01*
X11160506Y9181337D01*
X11160252Y9176258D01*
X11160252Y9176004D01*
X11159743Y9171178D01*
X11159743Y9170924D01*
X11158981Y9165844D01*
X11158981Y9165589D01*
X11157965Y9160763D01*
X11157711Y9160510D01*
X11156695Y9155684D01*
X11156441Y9155429D01*
X11155172Y9150604D01*
X11154918Y9150350D01*
X11153393Y9145778D01*
X11153140Y9145524D01*
X11151361Y9140952D01*
X11151108Y9140697D01*
X11149075Y9136126D01*
X11148822Y9136126D01*
X11146536Y9131554D01*
X11146281Y9131300D01*
X11143741Y9127236D01*
X11143741Y9126981D01*
X11140693Y9122918D01*
X11140693Y9122663D01*
X11137645Y9118600D01*
X11137391Y9118345D01*
X11134343Y9114536D01*
X11134090Y9114536D01*
X11130788Y9110726D01*
X11130534Y9110726D01*
X11126724Y9106915D01*
X11123168Y9103613D01*
X11122913Y9103613D01*
X11119104Y9100312D01*
X11118850Y9100312D01*
X11114786Y9097263D01*
X11114531Y9097263D01*
X11110213Y9094470D01*
X11105895Y9091929D01*
X11105641Y9091676D01*
X11101070Y9089389D01*
X11100815Y9089389D01*
X11096497Y9087358D01*
X11096243Y9087104D01*
X11091418Y9085326D01*
X11091163Y9085326D01*
X11086591Y9083802D01*
X11086338Y9083547D01*
X11081511Y9082278D01*
X11081258Y9082278D01*
X11076431Y9081008D01*
X11076177Y9081008D01*
X11071352Y9080245D01*
X11071097Y9080245D01*
X11066018Y9079484D01*
X11065763Y9079484D01*
X11060938Y9079229D01*
X11060684Y9079229D01*
X11055604Y9078976D01*
G37*
G36*
X10905236Y8824976D02*
G01*
X10900156Y8825229D01*
X10899902Y8825229D01*
X10895075Y8825484D01*
X10894822Y8825484D01*
X10889741Y8826245D01*
X10889488Y8826245D01*
X10884661Y8827008D01*
X10884408Y8827008D01*
X10879581Y8828278D01*
X10879327Y8828278D01*
X10874502Y8829547D01*
X10874247Y8829802D01*
X10869675Y8831326D01*
X10869422Y8831326D01*
X10864595Y8833104D01*
X10864341Y8833358D01*
X10860024Y8835389D01*
X10859770Y8835389D01*
X10855197Y8837676D01*
X10854943Y8837929D01*
X10850625Y8840470D01*
X10850372Y8840470D01*
X10846308Y8843263D01*
X10846054Y8843263D01*
X10841990Y8846312D01*
X10841736Y8846312D01*
X10837925Y8849613D01*
X10837672Y8849613D01*
X10834115Y8852915D01*
X10830306Y8856726D01*
X10830052Y8856726D01*
X10826750Y8860536D01*
X10826495Y8860536D01*
X10823447Y8864345D01*
X10823193Y8864600D01*
X10820145Y8868663D01*
X10819891Y8868918D01*
X10817097Y8872981D01*
X10817097Y8873236D01*
X10814558Y8877300D01*
X10814304Y8877554D01*
X10812018Y8882126D01*
X10811763Y8882126D01*
X10809731Y8886697D01*
X10809477Y8886952D01*
X10807700Y8891524D01*
X10807445Y8891778D01*
X10805922Y8896350D01*
X10805668Y8896604D01*
X10804397Y8901429D01*
X10804143Y8901684D01*
X10803127Y8906510D01*
X10802874Y8906763D01*
X10801858Y8911589D01*
X10801858Y8911844D01*
X10801095Y8916924D01*
X10801095Y8917178D01*
X10800588Y8922004D01*
X10800588Y8922258D01*
X10800334Y8927337D01*
X10800334Y8932671D01*
X10800588Y8937752D01*
X10800588Y8938005D01*
X10801095Y8943086D01*
X10801095Y8943339D01*
X10801858Y8948165D01*
X10801858Y8948420D01*
X10802874Y8953245D01*
X10803127Y8953500D01*
X10804143Y8958326D01*
X10804397Y8958579D01*
X10805668Y8963405D01*
X10805922Y8963660D01*
X10807445Y8968231D01*
X10807700Y8968486D01*
X10809477Y8973058D01*
X10809731Y8973312D01*
X10811763Y8977884D01*
X10812018Y8978137D01*
X10814304Y8982455D01*
X10814558Y8982710D01*
X10817097Y8987028D01*
X10819891Y8991345D01*
X10820145Y8991345D01*
X10823193Y8995410D01*
X10823447Y8995663D01*
X10826495Y8999474D01*
X10826750Y8999728D01*
X10830052Y9003284D01*
X10830306Y9003537D01*
X10833861Y9006839D01*
X10834115Y9007094D01*
X10837672Y9010395D01*
X10837925Y9010650D01*
X10841736Y9013697D01*
X10841990Y9013952D01*
X10846054Y9016745D01*
X10846308Y9017000D01*
X10850372Y9019539D01*
X10850625Y9019794D01*
X10854943Y9022334D01*
X10855197Y9022334D01*
X10859770Y9024620D01*
X10860024Y9024620D01*
X10864341Y9026652D01*
X10864595Y9026905D01*
X10869422Y9028684D01*
X10869675Y9028684D01*
X10874247Y9030462D01*
X10874502Y9030462D01*
X10879327Y9031731D01*
X10879581Y9031731D01*
X10884408Y9033002D01*
X10884661Y9033002D01*
X10889488Y9033763D01*
X10889741Y9034018D01*
X10894822Y9034526D01*
X10895075Y9034526D01*
X10899902Y9035034D01*
X11060938Y9035034D01*
X11065763Y9034526D01*
X11066018Y9034526D01*
X11071097Y9034018D01*
X11071352Y9033763D01*
X11076177Y9033002D01*
X11076431Y9033002D01*
X11081258Y9031731D01*
X11081511Y9031731D01*
X11086338Y9030462D01*
X11086591Y9030462D01*
X11091163Y9028684D01*
X11091418Y9028684D01*
X11096243Y9026905D01*
X11096497Y9026652D01*
X11100815Y9024620D01*
X11101070Y9024620D01*
X11105641Y9022334D01*
X11105895Y9022334D01*
X11110213Y9019794D01*
X11110213Y9019539D01*
X11114531Y9017000D01*
X11114786Y9016745D01*
X11118850Y9013952D01*
X11119104Y9013697D01*
X11122913Y9010650D01*
X11123168Y9010395D01*
X11126724Y9007094D01*
X11126977Y9006839D01*
X11130534Y9003537D01*
X11130788Y9003284D01*
X11134090Y8999728D01*
X11134343Y8999474D01*
X11137391Y8995663D01*
X11137645Y8995410D01*
X11140693Y8991345D01*
X11143741Y8987028D01*
X11146281Y8982710D01*
X11146536Y8982455D01*
X11148822Y8978137D01*
X11149075Y8977884D01*
X11151108Y8973312D01*
X11151361Y8973058D01*
X11153140Y8968486D01*
X11153393Y8968231D01*
X11154918Y8963660D01*
X11155172Y8963405D01*
X11156441Y8958579D01*
X11156695Y8958326D01*
X11157711Y8953500D01*
X11157965Y8953245D01*
X11158981Y8948420D01*
X11158981Y8948165D01*
X11159743Y8943339D01*
X11159743Y8943086D01*
X11160252Y8938005D01*
X11160252Y8937752D01*
X11160506Y8932671D01*
X11160506Y8927337D01*
X11160252Y8922258D01*
X11160252Y8922004D01*
X11159743Y8917178D01*
X11159743Y8916924D01*
X11158981Y8911844D01*
X11158981Y8911589D01*
X11157965Y8906763D01*
X11157711Y8906510D01*
X11156695Y8901684D01*
X11156441Y8901429D01*
X11155172Y8896604D01*
X11154918Y8896350D01*
X11153393Y8891778D01*
X11153140Y8891524D01*
X11151361Y8886952D01*
X11151108Y8886697D01*
X11149075Y8882126D01*
X11148822Y8882126D01*
X11146536Y8877554D01*
X11146281Y8877300D01*
X11143741Y8873236D01*
X11143741Y8872981D01*
X11140693Y8868918D01*
X11140693Y8868663D01*
X11137645Y8864600D01*
X11137391Y8864345D01*
X11134343Y8860536D01*
X11134090Y8860536D01*
X11130788Y8856726D01*
X11130534Y8856726D01*
X11126724Y8852915D01*
X11123168Y8849613D01*
X11122913Y8849613D01*
X11119104Y8846312D01*
X11118850Y8846312D01*
X11114786Y8843263D01*
X11114531Y8843263D01*
X11110213Y8840470D01*
X11105895Y8837929D01*
X11105641Y8837676D01*
X11101070Y8835389D01*
X11100815Y8835389D01*
X11096497Y8833358D01*
X11096243Y8833104D01*
X11091418Y8831326D01*
X11091163Y8831326D01*
X11086591Y8829802D01*
X11086338Y8829547D01*
X11081511Y8828278D01*
X11081258Y8828278D01*
X11076431Y8827008D01*
X11076177Y8827008D01*
X11071352Y8826245D01*
X11071097Y8826245D01*
X11066018Y8825484D01*
X11065763Y8825484D01*
X11060938Y8825229D01*
X11060684Y8825229D01*
X11055604Y8824976D01*
G37*
G36*
X12596875Y10094976D02*
G01*
X12591795Y10095229D01*
X12591541Y10095229D01*
X12586715Y10095484D01*
X12586461Y10095484D01*
X12581381Y10096245D01*
X12581127Y10096245D01*
X12576302Y10097008D01*
X12576047Y10097008D01*
X12571222Y10098278D01*
X12570968Y10098278D01*
X12566141Y10099547D01*
X12565888Y10099802D01*
X12561315Y10101326D01*
X12561061Y10101326D01*
X12556236Y10103104D01*
X12555981Y10103358D01*
X12551663Y10105389D01*
X12551409Y10105389D01*
X12546838Y10107676D01*
X12546584Y10107929D01*
X12542265Y10110470D01*
X12537947Y10113263D01*
X12537693Y10113263D01*
X12533629Y10116312D01*
X12533375Y10116312D01*
X12529565Y10119613D01*
X12529311Y10119613D01*
X12525756Y10122915D01*
X12521945Y10126726D01*
X12521691Y10126726D01*
X12518390Y10130536D01*
X12518136Y10130536D01*
X12515088Y10134345D01*
X12514834Y10134600D01*
X12511786Y10138663D01*
X12511531Y10138918D01*
X12508738Y10142981D01*
X12508738Y10143236D01*
X12506197Y10147300D01*
X12505943Y10147554D01*
X12503658Y10152126D01*
X12503404Y10152126D01*
X12501372Y10156697D01*
X12501118Y10156952D01*
X12499340Y10161524D01*
X12499086Y10161778D01*
X12497561Y10166604D01*
X12497308Y10166604D01*
X12496038Y10171429D01*
X12495784Y10171684D01*
X12494513Y10176510D01*
X12494513Y10176763D01*
X12493497Y10181589D01*
X12493497Y10181844D01*
X12492736Y10186924D01*
X12492736Y10187178D01*
X12492227Y10192004D01*
X12492227Y10192258D01*
X12491974Y10197337D01*
X12491974Y10202671D01*
X12492227Y10207752D01*
X12492227Y10208005D01*
X12492736Y10213086D01*
X12492736Y10213339D01*
X12493497Y10218165D01*
X12493497Y10218420D01*
X12494513Y10223245D01*
X12494513Y10223500D01*
X12495784Y10228326D01*
X12496038Y10228579D01*
X12497308Y10233405D01*
X12497561Y10233660D01*
X12499086Y10238231D01*
X12499340Y10238486D01*
X12501118Y10243058D01*
X12501372Y10243312D01*
X12503404Y10247884D01*
X12503658Y10248137D01*
X12505943Y10252455D01*
X12506197Y10252710D01*
X12508738Y10257028D01*
X12511531Y10261345D01*
X12511786Y10261345D01*
X12514834Y10265410D01*
X12515088Y10265663D01*
X12518136Y10269474D01*
X12518390Y10269728D01*
X12521691Y10273284D01*
X12521945Y10273537D01*
X12525502Y10276839D01*
X12525756Y10277094D01*
X12529311Y10280395D01*
X12529565Y10280650D01*
X12533375Y10283697D01*
X12533629Y10283952D01*
X12537693Y10286745D01*
X12537947Y10287000D01*
X12542011Y10289539D01*
X12542265Y10289794D01*
X12546584Y10292334D01*
X12546838Y10292334D01*
X12551409Y10294620D01*
X12551663Y10294620D01*
X12555981Y10296652D01*
X12556236Y10296905D01*
X12561061Y10298684D01*
X12561315Y10298684D01*
X12565888Y10300462D01*
X12566141Y10300462D01*
X12570968Y10301731D01*
X12571222Y10301731D01*
X12576047Y10303002D01*
X12576302Y10303002D01*
X12581127Y10303763D01*
X12581381Y10304018D01*
X12586461Y10304526D01*
X12586715Y10304526D01*
X12591541Y10305034D01*
X12752577Y10305034D01*
X12757404Y10304526D01*
X12757658Y10304526D01*
X12762738Y10304018D01*
X12762991Y10303763D01*
X12767818Y10303002D01*
X12768072Y10303002D01*
X12772897Y10301731D01*
X12773152Y10301731D01*
X12777977Y10300462D01*
X12778231Y10300462D01*
X12782804Y10298684D01*
X12783058Y10298684D01*
X12787884Y10296905D01*
X12787884Y10296652D01*
X12792456Y10294620D01*
X12792709Y10294620D01*
X12797281Y10292334D01*
X12797536Y10292334D01*
X12801854Y10289794D01*
X12801854Y10289539D01*
X12806172Y10287000D01*
X12806425Y10286745D01*
X12810490Y10283952D01*
X12810490Y10283697D01*
X12814554Y10280650D01*
X12814808Y10280395D01*
X12818363Y10277094D01*
X12818618Y10276839D01*
X12822174Y10273537D01*
X12822427Y10273284D01*
X12825729Y10269728D01*
X12825984Y10269474D01*
X12829031Y10265663D01*
X12829286Y10265410D01*
X12832334Y10261345D01*
X12835127Y10257028D01*
X12835381Y10257028D01*
X12837922Y10252710D01*
X12838175Y10252455D01*
X12840461Y10248137D01*
X12840715Y10247884D01*
X12842747Y10243312D01*
X12843002Y10243058D01*
X12844779Y10238486D01*
X12844779Y10238231D01*
X12846558Y10233660D01*
X12846558Y10233405D01*
X12848081Y10228579D01*
X12848336Y10228326D01*
X12849352Y10223500D01*
X12849606Y10223245D01*
X12850368Y10218420D01*
X12850622Y10218165D01*
X12851384Y10213339D01*
X12851384Y10213086D01*
X12851891Y10208005D01*
X12851891Y10207752D01*
X12852145Y10202671D01*
X12852145Y10197337D01*
X12851891Y10192258D01*
X12851891Y10192004D01*
X12851384Y10187178D01*
X12851384Y10186924D01*
X12850622Y10181844D01*
X12850368Y10181589D01*
X12849606Y10176763D01*
X12849352Y10176510D01*
X12848336Y10171684D01*
X12848081Y10171429D01*
X12846558Y10166604D01*
X12844779Y10161778D01*
X12844779Y10161524D01*
X12843002Y10156952D01*
X12842747Y10156697D01*
X12840715Y10152126D01*
X12840461Y10152126D01*
X12838175Y10147554D01*
X12837922Y10147300D01*
X12835381Y10143236D01*
X12835127Y10142981D01*
X12832334Y10138918D01*
X12832334Y10138663D01*
X12829286Y10134600D01*
X12829031Y10134345D01*
X12825984Y10130536D01*
X12825729Y10130536D01*
X12822427Y10126726D01*
X12822174Y10126726D01*
X12818363Y10122915D01*
X12814808Y10119613D01*
X12814554Y10119613D01*
X12810490Y10116312D01*
X12806425Y10113263D01*
X12806172Y10113263D01*
X12801854Y10110470D01*
X12797536Y10107929D01*
X12797281Y10107676D01*
X12792709Y10105389D01*
X12792456Y10105389D01*
X12787884Y10103358D01*
X12787629Y10103104D01*
X12783058Y10101326D01*
X12782804Y10101326D01*
X12778231Y10099802D01*
X12777977Y10099547D01*
X12773152Y10098278D01*
X12772897Y10098278D01*
X12768072Y10097008D01*
X12767818Y10097008D01*
X12762991Y10096245D01*
X12762484Y10096245D01*
X12757658Y10095484D01*
X12757404Y10095484D01*
X12752577Y10095229D01*
X12752070Y10095229D01*
X12747243Y10094976D01*
G37*
G36*
X12596875Y9840976D02*
G01*
X12591795Y9841229D01*
X12591541Y9841229D01*
X12586715Y9841484D01*
X12586461Y9841484D01*
X12581381Y9842245D01*
X12581127Y9842245D01*
X12576302Y9843008D01*
X12576047Y9843008D01*
X12571222Y9844278D01*
X12570968Y9844278D01*
X12566141Y9845547D01*
X12565888Y9845802D01*
X12561315Y9847326D01*
X12561061Y9847326D01*
X12556236Y9849104D01*
X12555981Y9849358D01*
X12551663Y9851389D01*
X12551409Y9851389D01*
X12546838Y9853676D01*
X12546584Y9853929D01*
X12542265Y9856470D01*
X12542011Y9856470D01*
X12537947Y9859263D01*
X12537693Y9859263D01*
X12533629Y9862312D01*
X12533375Y9862312D01*
X12529565Y9865613D01*
X12529311Y9865613D01*
X12525756Y9868915D01*
X12521945Y9872726D01*
X12521691Y9872726D01*
X12518390Y9876536D01*
X12518136Y9876536D01*
X12515088Y9880345D01*
X12514834Y9880600D01*
X12511786Y9884663D01*
X12511531Y9884918D01*
X12508738Y9888981D01*
X12508738Y9889236D01*
X12506197Y9893300D01*
X12505943Y9893554D01*
X12503658Y9898126D01*
X12503404Y9898126D01*
X12501372Y9902697D01*
X12501118Y9902952D01*
X12499340Y9907524D01*
X12499086Y9907778D01*
X12497561Y9912604D01*
X12497308Y9912604D01*
X12496038Y9917429D01*
X12495784Y9917684D01*
X12494513Y9922510D01*
X12494513Y9922763D01*
X12493497Y9927589D01*
X12493497Y9927844D01*
X12492736Y9932924D01*
X12492736Y9933178D01*
X12492227Y9938004D01*
X12492227Y9938258D01*
X12491974Y9943337D01*
X12491974Y9948671D01*
X12492227Y9953752D01*
X12492227Y9954005D01*
X12492736Y9959086D01*
X12492736Y9959339D01*
X12493497Y9964165D01*
X12493497Y9964420D01*
X12494513Y9969245D01*
X12494513Y9969500D01*
X12495784Y9974326D01*
X12496038Y9974579D01*
X12497308Y9979405D01*
X12497561Y9979660D01*
X12499086Y9984231D01*
X12499340Y9984486D01*
X12501118Y9989058D01*
X12501372Y9989312D01*
X12503404Y9993884D01*
X12503658Y9994137D01*
X12505943Y9998455D01*
X12506197Y9998710D01*
X12508738Y10003028D01*
X12511531Y10007345D01*
X12511786Y10007345D01*
X12514834Y10011410D01*
X12515088Y10011663D01*
X12518136Y10015474D01*
X12518390Y10015728D01*
X12521691Y10019284D01*
X12521945Y10019537D01*
X12525502Y10022839D01*
X12525756Y10023094D01*
X12529311Y10026395D01*
X12529565Y10026650D01*
X12533375Y10029697D01*
X12533629Y10029952D01*
X12537693Y10032745D01*
X12537947Y10033000D01*
X12542011Y10035539D01*
X12542265Y10035794D01*
X12546584Y10038334D01*
X12546838Y10038334D01*
X12551409Y10040620D01*
X12551663Y10040620D01*
X12555981Y10042652D01*
X12556236Y10042905D01*
X12561061Y10044684D01*
X12561315Y10044684D01*
X12565888Y10046462D01*
X12566141Y10046462D01*
X12570968Y10047731D01*
X12571222Y10047731D01*
X12576047Y10049002D01*
X12576302Y10049002D01*
X12581127Y10049763D01*
X12581381Y10050018D01*
X12586461Y10050526D01*
X12586715Y10050526D01*
X12591541Y10051034D01*
X12752577Y10051034D01*
X12757404Y10050526D01*
X12757658Y10050526D01*
X12762738Y10050018D01*
X12762991Y10049763D01*
X12767818Y10049002D01*
X12768072Y10049002D01*
X12772897Y10047731D01*
X12773152Y10047731D01*
X12777977Y10046462D01*
X12778231Y10046462D01*
X12782804Y10044684D01*
X12783058Y10044684D01*
X12787884Y10042905D01*
X12787884Y10042652D01*
X12792456Y10040620D01*
X12792709Y10040620D01*
X12797281Y10038334D01*
X12797536Y10038334D01*
X12801854Y10035794D01*
X12801854Y10035539D01*
X12806172Y10033000D01*
X12806425Y10032745D01*
X12810490Y10029952D01*
X12810490Y10029697D01*
X12814554Y10026650D01*
X12814808Y10026395D01*
X12818363Y10023094D01*
X12818618Y10022839D01*
X12822174Y10019537D01*
X12822427Y10019284D01*
X12825729Y10015728D01*
X12825984Y10015474D01*
X12829031Y10011663D01*
X12829286Y10011410D01*
X12832334Y10007345D01*
X12835127Y10003028D01*
X12835381Y10003028D01*
X12837922Y9998710D01*
X12838175Y9998455D01*
X12840461Y9994137D01*
X12840715Y9993884D01*
X12842747Y9989312D01*
X12843002Y9989058D01*
X12844779Y9984486D01*
X12844779Y9984231D01*
X12846558Y9979660D01*
X12846558Y9979405D01*
X12848081Y9974579D01*
X12848336Y9974326D01*
X12849352Y9969500D01*
X12849606Y9969245D01*
X12850368Y9964420D01*
X12850622Y9964165D01*
X12851384Y9959339D01*
X12851384Y9959086D01*
X12851891Y9954005D01*
X12851891Y9953752D01*
X12852145Y9948671D01*
X12852145Y9943337D01*
X12851891Y9938258D01*
X12851891Y9938004D01*
X12851384Y9933178D01*
X12851384Y9932924D01*
X12850622Y9927844D01*
X12850368Y9927589D01*
X12849606Y9922763D01*
X12849352Y9922510D01*
X12848336Y9917684D01*
X12848081Y9917429D01*
X12846558Y9912604D01*
X12844779Y9907778D01*
X12844779Y9907524D01*
X12843002Y9902952D01*
X12842747Y9902697D01*
X12840715Y9898126D01*
X12840461Y9898126D01*
X12838175Y9893554D01*
X12837922Y9893300D01*
X12835381Y9889236D01*
X12835127Y9888981D01*
X12832334Y9884918D01*
X12832334Y9884663D01*
X12829286Y9880600D01*
X12829031Y9880345D01*
X12825984Y9876536D01*
X12825729Y9876536D01*
X12822427Y9872726D01*
X12822174Y9872726D01*
X12818363Y9868915D01*
X12814808Y9865613D01*
X12814554Y9865613D01*
X12810490Y9862312D01*
X12806425Y9859263D01*
X12806172Y9859263D01*
X12801854Y9856470D01*
X12797536Y9853929D01*
X12797281Y9853676D01*
X12792709Y9851389D01*
X12792456Y9851389D01*
X12787884Y9849358D01*
X12787629Y9849104D01*
X12783058Y9847326D01*
X12782804Y9847326D01*
X12778231Y9845802D01*
X12777977Y9845547D01*
X12773152Y9844278D01*
X12772897Y9844278D01*
X12768072Y9843008D01*
X12767818Y9843008D01*
X12762991Y9842245D01*
X12762484Y9842245D01*
X12757658Y9841484D01*
X12757404Y9841484D01*
X12752577Y9841229D01*
X12752070Y9841229D01*
X12747243Y9840976D01*
G37*
G36*
X12596875Y9586976D02*
G01*
X12591795Y9587229D01*
X12591541Y9587229D01*
X12586715Y9587484D01*
X12586461Y9587484D01*
X12581381Y9588245D01*
X12581127Y9588245D01*
X12576302Y9589008D01*
X12576047Y9589008D01*
X12571222Y9590278D01*
X12570968Y9590278D01*
X12566141Y9591547D01*
X12565888Y9591802D01*
X12561315Y9593326D01*
X12561061Y9593326D01*
X12556236Y9595104D01*
X12555981Y9595358D01*
X12551663Y9597389D01*
X12551409Y9597389D01*
X12546838Y9599676D01*
X12546584Y9599929D01*
X12542265Y9602470D01*
X12542011Y9602470D01*
X12537947Y9605263D01*
X12537693Y9605263D01*
X12533629Y9608312D01*
X12533375Y9608312D01*
X12529565Y9611613D01*
X12529311Y9611613D01*
X12525756Y9614915D01*
X12521945Y9618726D01*
X12521691Y9618726D01*
X12518390Y9622536D01*
X12518136Y9622536D01*
X12515088Y9626345D01*
X12514834Y9626600D01*
X12511786Y9630663D01*
X12511531Y9630918D01*
X12508738Y9634981D01*
X12508738Y9635236D01*
X12506197Y9639300D01*
X12505943Y9639554D01*
X12503658Y9644126D01*
X12503404Y9644126D01*
X12501372Y9648697D01*
X12501118Y9648952D01*
X12499340Y9653524D01*
X12499086Y9653778D01*
X12497561Y9658604D01*
X12497308Y9658604D01*
X12496038Y9663429D01*
X12495784Y9663684D01*
X12494513Y9668510D01*
X12494513Y9668763D01*
X12493497Y9673589D01*
X12493497Y9673844D01*
X12492736Y9678924D01*
X12492736Y9679178D01*
X12492227Y9684004D01*
X12492227Y9684258D01*
X12491974Y9689337D01*
X12491974Y9694671D01*
X12492227Y9699752D01*
X12492227Y9700005D01*
X12492736Y9705086D01*
X12492736Y9705339D01*
X12493497Y9710165D01*
X12493497Y9710420D01*
X12494513Y9715245D01*
X12494513Y9715500D01*
X12495784Y9720326D01*
X12496038Y9720579D01*
X12497308Y9725405D01*
X12497561Y9725660D01*
X12499086Y9730231D01*
X12499340Y9730486D01*
X12501118Y9735058D01*
X12501372Y9735312D01*
X12503404Y9739884D01*
X12503658Y9740137D01*
X12505943Y9744455D01*
X12506197Y9744710D01*
X12508738Y9749028D01*
X12511531Y9753345D01*
X12511786Y9753345D01*
X12514834Y9757410D01*
X12515088Y9757663D01*
X12518136Y9761474D01*
X12518390Y9761728D01*
X12521691Y9765284D01*
X12521945Y9765537D01*
X12525502Y9768839D01*
X12525756Y9769094D01*
X12529311Y9772395D01*
X12529565Y9772650D01*
X12533375Y9775697D01*
X12533629Y9775952D01*
X12537693Y9778745D01*
X12537947Y9779000D01*
X12542011Y9781539D01*
X12542265Y9781794D01*
X12546584Y9784334D01*
X12546838Y9784334D01*
X12551409Y9786620D01*
X12551663Y9786620D01*
X12555981Y9788652D01*
X12556236Y9788905D01*
X12561061Y9790684D01*
X12561315Y9790684D01*
X12565888Y9792462D01*
X12566141Y9792462D01*
X12570968Y9793731D01*
X12571222Y9793731D01*
X12576047Y9795002D01*
X12576302Y9795002D01*
X12581127Y9795763D01*
X12581381Y9796018D01*
X12586461Y9796526D01*
X12586715Y9796526D01*
X12591541Y9797034D01*
X12752577Y9797034D01*
X12757404Y9796526D01*
X12757658Y9796526D01*
X12762738Y9796018D01*
X12762991Y9795763D01*
X12767818Y9795002D01*
X12768072Y9795002D01*
X12772897Y9793731D01*
X12773152Y9793731D01*
X12777977Y9792462D01*
X12778231Y9792462D01*
X12782804Y9790684D01*
X12783058Y9790684D01*
X12787884Y9788905D01*
X12787884Y9788652D01*
X12792456Y9786620D01*
X12792709Y9786620D01*
X12797281Y9784334D01*
X12797536Y9784334D01*
X12801854Y9781794D01*
X12801854Y9781539D01*
X12806172Y9779000D01*
X12806425Y9778745D01*
X12810490Y9775952D01*
X12810490Y9775697D01*
X12814554Y9772650D01*
X12814808Y9772395D01*
X12818363Y9769094D01*
X12818618Y9768839D01*
X12822174Y9765537D01*
X12822427Y9765284D01*
X12825729Y9761728D01*
X12825984Y9761474D01*
X12829031Y9757663D01*
X12829286Y9757410D01*
X12832334Y9753345D01*
X12835127Y9749028D01*
X12835381Y9749028D01*
X12837922Y9744710D01*
X12838175Y9744455D01*
X12840461Y9740137D01*
X12840715Y9739884D01*
X12842747Y9735312D01*
X12843002Y9735058D01*
X12844779Y9730486D01*
X12844779Y9730231D01*
X12846558Y9725660D01*
X12846558Y9725405D01*
X12848081Y9720579D01*
X12848336Y9720326D01*
X12849352Y9715500D01*
X12849606Y9715245D01*
X12850368Y9710420D01*
X12850622Y9710165D01*
X12851384Y9705339D01*
X12851384Y9705086D01*
X12851891Y9700005D01*
X12851891Y9699752D01*
X12852145Y9694671D01*
X12852145Y9689337D01*
X12851891Y9684258D01*
X12851891Y9684004D01*
X12851384Y9679178D01*
X12851384Y9678924D01*
X12850622Y9673844D01*
X12850368Y9673589D01*
X12849606Y9668763D01*
X12849352Y9668510D01*
X12848336Y9663684D01*
X12848081Y9663429D01*
X12846558Y9658604D01*
X12844779Y9653778D01*
X12844779Y9653524D01*
X12843002Y9648952D01*
X12842747Y9648697D01*
X12840715Y9644126D01*
X12840461Y9644126D01*
X12838175Y9639554D01*
X12837922Y9639300D01*
X12835381Y9635236D01*
X12835127Y9634981D01*
X12832334Y9630918D01*
X12832334Y9630663D01*
X12829286Y9626600D01*
X12829031Y9626345D01*
X12825984Y9622536D01*
X12825729Y9622536D01*
X12822427Y9618726D01*
X12822174Y9618726D01*
X12818363Y9614915D01*
X12814808Y9611613D01*
X12814554Y9611613D01*
X12810490Y9608312D01*
X12806425Y9605263D01*
X12806172Y9605263D01*
X12801854Y9602470D01*
X12797536Y9599929D01*
X12797281Y9599676D01*
X12792709Y9597389D01*
X12792456Y9597389D01*
X12787884Y9595358D01*
X12787629Y9595104D01*
X12783058Y9593326D01*
X12782804Y9593326D01*
X12778231Y9591802D01*
X12777977Y9591547D01*
X12773152Y9590278D01*
X12772897Y9590278D01*
X12768072Y9589008D01*
X12767818Y9589008D01*
X12762991Y9588245D01*
X12762484Y9588245D01*
X12757658Y9587484D01*
X12757404Y9587484D01*
X12752577Y9587229D01*
X12752070Y9587229D01*
X12747243Y9586976D01*
G37*
G36*
X12596875Y9331960D02*
G01*
X12591795Y9332213D01*
X12591541Y9332213D01*
X12586715Y9332468D01*
X12586461Y9332468D01*
X12581381Y9333229D01*
X12581127Y9333229D01*
X12576302Y9333992D01*
X12576047Y9334245D01*
X12571222Y9335262D01*
X12570968Y9335262D01*
X12566141Y9336786D01*
X12565888Y9336786D01*
X12561315Y9338310D01*
X12561061Y9338310D01*
X12556236Y9340087D01*
X12555981Y9340342D01*
X12551663Y9342374D01*
X12551409Y9342374D01*
X12546838Y9344660D01*
X12546584Y9344913D01*
X12542265Y9347454D01*
X12537947Y9350247D01*
X12537693Y9350247D01*
X12533629Y9353295D01*
X12533375Y9353295D01*
X12529565Y9356597D01*
X12529311Y9356597D01*
X12525756Y9359900D01*
X12521945Y9363710D01*
X12521691Y9363710D01*
X12518390Y9367520D01*
X12518136Y9367520D01*
X12515088Y9371329D01*
X12514834Y9371584D01*
X12511786Y9375647D01*
X12511531Y9375902D01*
X12508738Y9379965D01*
X12508738Y9380220D01*
X12506197Y9384537D01*
X12505943Y9384537D01*
X12503658Y9389110D01*
X12503404Y9389363D01*
X12501372Y9393681D01*
X12501118Y9393936D01*
X12499340Y9398508D01*
X12499086Y9398762D01*
X12497561Y9403587D01*
X12497308Y9403587D01*
X12496038Y9408413D01*
X12495784Y9408668D01*
X12494513Y9413494D01*
X12494513Y9413747D01*
X12493497Y9418574D01*
X12493497Y9418828D01*
X12492736Y9423908D01*
X12492736Y9424162D01*
X12492227Y9428987D01*
X12492227Y9429242D01*
X12491974Y9434321D01*
X12491974Y9439655D01*
X12492227Y9444736D01*
X12492227Y9444989D01*
X12492736Y9450070D01*
X12492736Y9450324D01*
X12493497Y9455150D01*
X12493497Y9455404D01*
X12494513Y9460229D01*
X12494513Y9460484D01*
X12495784Y9465310D01*
X12496038Y9465563D01*
X12497308Y9470389D01*
X12497561Y9470644D01*
X12499086Y9475215D01*
X12499340Y9475470D01*
X12501118Y9480042D01*
X12501372Y9480295D01*
X12503404Y9484868D01*
X12503658Y9485121D01*
X12505943Y9489439D01*
X12506197Y9489694D01*
X12508738Y9494012D01*
X12511531Y9498329D01*
X12511786Y9498329D01*
X12514834Y9502394D01*
X12515088Y9502647D01*
X12518136Y9506458D01*
X12518390Y9506712D01*
X12521691Y9510268D01*
X12521945Y9510521D01*
X12525502Y9513824D01*
X12525756Y9514078D01*
X12529311Y9517379D01*
X12529565Y9517634D01*
X12533375Y9520681D01*
X12533629Y9520936D01*
X12537693Y9523729D01*
X12537947Y9523984D01*
X12542011Y9526524D01*
X12542265Y9526778D01*
X12546584Y9529318D01*
X12546838Y9529318D01*
X12551409Y9531604D01*
X12551663Y9531604D01*
X12555981Y9533889D01*
X12556236Y9533889D01*
X12561061Y9535668D01*
X12561315Y9535668D01*
X12565888Y9537445D01*
X12566141Y9537445D01*
X12570968Y9538715D01*
X12571222Y9538970D01*
X12576047Y9539986D01*
X12576302Y9539986D01*
X12581127Y9541002D01*
X12581381Y9541002D01*
X12586461Y9541510D01*
X12586715Y9541510D01*
X12591541Y9542018D01*
X12752577Y9542018D01*
X12757404Y9541510D01*
X12757658Y9541510D01*
X12762738Y9541002D01*
X12762991Y9541002D01*
X12767818Y9539986D01*
X12768072Y9539986D01*
X12772897Y9538970D01*
X12773152Y9538715D01*
X12777977Y9537445D01*
X12778231Y9537445D01*
X12782804Y9535668D01*
X12783058Y9535668D01*
X12787884Y9533889D01*
X12792456Y9531604D01*
X12792709Y9531604D01*
X12797281Y9529318D01*
X12797536Y9529318D01*
X12801854Y9526778D01*
X12801854Y9526524D01*
X12806172Y9523984D01*
X12806425Y9523729D01*
X12810490Y9520936D01*
X12810490Y9520681D01*
X12814554Y9517634D01*
X12814808Y9517379D01*
X12818363Y9514078D01*
X12818618Y9513824D01*
X12822174Y9510521D01*
X12822427Y9510268D01*
X12825729Y9506712D01*
X12825984Y9506458D01*
X12829031Y9502647D01*
X12829286Y9502394D01*
X12832334Y9498329D01*
X12835127Y9494012D01*
X12835381Y9494012D01*
X12837922Y9489694D01*
X12838175Y9489439D01*
X12840461Y9485121D01*
X12840715Y9484868D01*
X12842747Y9480295D01*
X12843002Y9480042D01*
X12844779Y9475470D01*
X12844779Y9475215D01*
X12846558Y9470644D01*
X12846558Y9470389D01*
X12848081Y9465563D01*
X12848336Y9465310D01*
X12849352Y9460484D01*
X12849606Y9460229D01*
X12850368Y9455404D01*
X12850622Y9455150D01*
X12851384Y9450324D01*
X12851384Y9450070D01*
X12851891Y9444989D01*
X12851891Y9444736D01*
X12852145Y9439655D01*
X12852145Y9434321D01*
X12851891Y9429242D01*
X12851891Y9428987D01*
X12851384Y9424162D01*
X12851384Y9423908D01*
X12850622Y9418828D01*
X12850368Y9418574D01*
X12849606Y9413747D01*
X12849352Y9413494D01*
X12848336Y9408668D01*
X12848081Y9408413D01*
X12846558Y9403587D01*
X12844779Y9398762D01*
X12844779Y9398508D01*
X12843002Y9393936D01*
X12842747Y9393681D01*
X12840715Y9389363D01*
X12840461Y9389110D01*
X12838175Y9384537D01*
X12837922Y9384537D01*
X12835381Y9380220D01*
X12835127Y9379965D01*
X12832334Y9375902D01*
X12832334Y9375647D01*
X12829286Y9371584D01*
X12829031Y9371584D01*
X12825984Y9367774D01*
X12825729Y9367520D01*
X12822427Y9363710D01*
X12822174Y9363710D01*
X12818363Y9359900D01*
X12814808Y9356597D01*
X12814554Y9356597D01*
X12810490Y9353295D01*
X12806425Y9350247D01*
X12806172Y9350247D01*
X12801854Y9347454D01*
X12797536Y9344913D01*
X12797281Y9344660D01*
X12792709Y9342374D01*
X12792456Y9342374D01*
X12787884Y9340342D01*
X12787629Y9340087D01*
X12783058Y9338310D01*
X12782804Y9338310D01*
X12778231Y9336786D01*
X12777977Y9336786D01*
X12773152Y9335262D01*
X12772897Y9335262D01*
X12768072Y9334245D01*
X12767818Y9333992D01*
X12762991Y9333229D01*
X12762484Y9333229D01*
X12757658Y9332468D01*
X12757404Y9332468D01*
X12752577Y9332213D01*
X12752070Y9332213D01*
X12747243Y9331960D01*
G37*
G36*
X12596875Y9078976D02*
G01*
X12591795Y9079229D01*
X12591541Y9079229D01*
X12586715Y9079484D01*
X12586461Y9079484D01*
X12581381Y9080245D01*
X12581127Y9080245D01*
X12576302Y9081008D01*
X12576047Y9081008D01*
X12571222Y9082278D01*
X12570968Y9082278D01*
X12566141Y9083547D01*
X12565888Y9083802D01*
X12561315Y9085326D01*
X12561061Y9085326D01*
X12556236Y9087104D01*
X12555981Y9087358D01*
X12551409Y9089389D01*
X12546838Y9091676D01*
X12546584Y9091929D01*
X12542265Y9094470D01*
X12542011Y9094470D01*
X12537947Y9097263D01*
X12537693Y9097263D01*
X12533629Y9100312D01*
X12533375Y9100312D01*
X12529565Y9103613D01*
X12529311Y9103613D01*
X12525756Y9106915D01*
X12521945Y9110726D01*
X12521691Y9110726D01*
X12518390Y9114536D01*
X12518136Y9114536D01*
X12515088Y9118345D01*
X12514834Y9118600D01*
X12511786Y9122663D01*
X12511531Y9122918D01*
X12508738Y9126981D01*
X12508738Y9127236D01*
X12506197Y9131300D01*
X12505943Y9131554D01*
X12503658Y9136126D01*
X12503404Y9136126D01*
X12501372Y9140697D01*
X12501118Y9140952D01*
X12499340Y9145524D01*
X12499086Y9145778D01*
X12497561Y9150604D01*
X12497308Y9150604D01*
X12496038Y9155429D01*
X12495784Y9155684D01*
X12494513Y9160510D01*
X12494513Y9160763D01*
X12493497Y9165589D01*
X12493497Y9165844D01*
X12492736Y9170924D01*
X12492736Y9171178D01*
X12492227Y9176004D01*
X12492227Y9176258D01*
X12491974Y9181337D01*
X12491974Y9186671D01*
X12492227Y9191752D01*
X12492227Y9192005D01*
X12492736Y9197086D01*
X12492736Y9197339D01*
X12493497Y9202165D01*
X12493497Y9202420D01*
X12494513Y9207245D01*
X12494513Y9207500D01*
X12495784Y9212326D01*
X12496038Y9212579D01*
X12497308Y9217405D01*
X12497561Y9217660D01*
X12499086Y9222231D01*
X12499340Y9222486D01*
X12501118Y9227058D01*
X12501372Y9227312D01*
X12503404Y9231884D01*
X12503658Y9232137D01*
X12505943Y9236455D01*
X12506197Y9236710D01*
X12508738Y9241028D01*
X12511531Y9245345D01*
X12511786Y9245345D01*
X12514834Y9249410D01*
X12515088Y9249663D01*
X12518136Y9253474D01*
X12518390Y9253728D01*
X12521691Y9257284D01*
X12521945Y9257537D01*
X12525502Y9260839D01*
X12525756Y9261094D01*
X12529311Y9264395D01*
X12529565Y9264650D01*
X12533375Y9267697D01*
X12533629Y9267952D01*
X12537693Y9270745D01*
X12537947Y9271000D01*
X12542011Y9273539D01*
X12542265Y9273794D01*
X12546584Y9276334D01*
X12546838Y9276334D01*
X12551409Y9278620D01*
X12551663Y9278620D01*
X12555981Y9280652D01*
X12556236Y9280905D01*
X12561061Y9282684D01*
X12561315Y9282684D01*
X12565888Y9284462D01*
X12566141Y9284462D01*
X12570968Y9285731D01*
X12571222Y9285731D01*
X12576047Y9287002D01*
X12576302Y9287002D01*
X12581127Y9287763D01*
X12581381Y9288018D01*
X12586461Y9288526D01*
X12586715Y9288526D01*
X12591541Y9289034D01*
X12752577Y9289034D01*
X12757404Y9288526D01*
X12757658Y9288526D01*
X12762738Y9288018D01*
X12762991Y9287763D01*
X12767818Y9287002D01*
X12768072Y9287002D01*
X12772897Y9285731D01*
X12773152Y9285731D01*
X12777977Y9284462D01*
X12778231Y9284462D01*
X12782804Y9282684D01*
X12783058Y9282684D01*
X12787884Y9280905D01*
X12787884Y9280652D01*
X12792456Y9278620D01*
X12792709Y9278620D01*
X12797281Y9276334D01*
X12797536Y9276334D01*
X12801854Y9273794D01*
X12801854Y9273539D01*
X12806172Y9271000D01*
X12806425Y9270745D01*
X12810490Y9267952D01*
X12810490Y9267697D01*
X12814554Y9264650D01*
X12814808Y9264395D01*
X12818363Y9261094D01*
X12818618Y9260839D01*
X12822174Y9257537D01*
X12822427Y9257284D01*
X12825729Y9253728D01*
X12825984Y9253474D01*
X12829031Y9249663D01*
X12829286Y9249410D01*
X12832334Y9245345D01*
X12835127Y9241028D01*
X12835381Y9241028D01*
X12837922Y9236710D01*
X12838175Y9236455D01*
X12840461Y9232137D01*
X12840715Y9231884D01*
X12842747Y9227312D01*
X12843002Y9227058D01*
X12844779Y9222486D01*
X12844779Y9222231D01*
X12846558Y9217660D01*
X12846558Y9217405D01*
X12848081Y9212579D01*
X12848336Y9212326D01*
X12849352Y9207500D01*
X12849606Y9207245D01*
X12850368Y9202420D01*
X12850622Y9202165D01*
X12851384Y9197339D01*
X12851384Y9197086D01*
X12851891Y9192005D01*
X12851891Y9191752D01*
X12852145Y9186671D01*
X12852145Y9181337D01*
X12851891Y9176258D01*
X12851891Y9176004D01*
X12851384Y9171178D01*
X12851384Y9170924D01*
X12850622Y9165844D01*
X12850368Y9165589D01*
X12849606Y9160763D01*
X12849352Y9160510D01*
X12848336Y9155684D01*
X12848081Y9155429D01*
X12846558Y9150604D01*
X12844779Y9145778D01*
X12844779Y9145524D01*
X12843002Y9140952D01*
X12842747Y9140697D01*
X12840715Y9136126D01*
X12840461Y9136126D01*
X12838175Y9131554D01*
X12837922Y9131300D01*
X12835381Y9127236D01*
X12835127Y9126981D01*
X12832334Y9122918D01*
X12832334Y9122663D01*
X12829286Y9118600D01*
X12829031Y9118345D01*
X12825984Y9114536D01*
X12825729Y9114536D01*
X12822427Y9110726D01*
X12822174Y9110726D01*
X12818363Y9106915D01*
X12814808Y9103613D01*
X12814554Y9103613D01*
X12810490Y9100312D01*
X12806425Y9097263D01*
X12806172Y9097263D01*
X12801854Y9094470D01*
X12797536Y9091929D01*
X12797281Y9091676D01*
X12792709Y9089389D01*
X12792456Y9089389D01*
X12787884Y9087358D01*
X12787629Y9087104D01*
X12783058Y9085326D01*
X12782804Y9085326D01*
X12778231Y9083802D01*
X12777977Y9083547D01*
X12773152Y9082278D01*
X12772897Y9082278D01*
X12768072Y9081008D01*
X12767818Y9081008D01*
X12762991Y9080245D01*
X12762484Y9080245D01*
X12757658Y9079484D01*
X12757404Y9079484D01*
X12752577Y9079229D01*
X12752070Y9079229D01*
X12747243Y9078976D01*
G37*
G36*
X12596875Y8823960D02*
G01*
X12591795Y8824213D01*
X12591541Y8824213D01*
X12586715Y8824468D01*
X12586461Y8824468D01*
X12581381Y8825229D01*
X12581127Y8825229D01*
X12576302Y8825992D01*
X12576047Y8826245D01*
X12571222Y8827262D01*
X12570968Y8827262D01*
X12566141Y8828786D01*
X12565888Y8828786D01*
X12561315Y8830310D01*
X12561061Y8830310D01*
X12556236Y8832087D01*
X12555981Y8832342D01*
X12551409Y8834374D01*
X12546838Y8836660D01*
X12546584Y8836913D01*
X12542265Y8839454D01*
X12537947Y8842247D01*
X12537693Y8842247D01*
X12533629Y8845295D01*
X12533375Y8845295D01*
X12529565Y8848597D01*
X12529311Y8848597D01*
X12525756Y8851900D01*
X12521945Y8855710D01*
X12521691Y8855710D01*
X12518390Y8859520D01*
X12518136Y8859774D01*
X12515088Y8863329D01*
X12514834Y8863584D01*
X12511786Y8867647D01*
X12511531Y8867902D01*
X12508738Y8871965D01*
X12508738Y8872220D01*
X12506197Y8876537D01*
X12505943Y8876537D01*
X12503658Y8881110D01*
X12503404Y8881363D01*
X12501372Y8885681D01*
X12501118Y8885936D01*
X12499340Y8890508D01*
X12499086Y8890762D01*
X12497561Y8895587D01*
X12497308Y8895587D01*
X12496038Y8900413D01*
X12495784Y8900668D01*
X12494513Y8905494D01*
X12494513Y8905747D01*
X12493497Y8910574D01*
X12493497Y8910828D01*
X12492736Y8915908D01*
X12492736Y8916162D01*
X12492227Y8920987D01*
X12492227Y8921242D01*
X12491974Y8926321D01*
X12491974Y8931655D01*
X12492227Y8936736D01*
X12492227Y8936989D01*
X12492736Y8942070D01*
X12492736Y8942324D01*
X12493497Y8947150D01*
X12493497Y8947404D01*
X12494513Y8952229D01*
X12494513Y8952484D01*
X12495784Y8957310D01*
X12496038Y8957563D01*
X12497308Y8962389D01*
X12497561Y8962644D01*
X12499086Y8967215D01*
X12499340Y8967470D01*
X12501118Y8972042D01*
X12501372Y8972295D01*
X12503404Y8976868D01*
X12503658Y8977121D01*
X12505943Y8981439D01*
X12506197Y8981694D01*
X12508738Y8986012D01*
X12511531Y8990329D01*
X12511786Y8990329D01*
X12514834Y8994394D01*
X12515088Y8994647D01*
X12518136Y8998458D01*
X12518390Y8998712D01*
X12521691Y9002268D01*
X12521945Y9002521D01*
X12525502Y9005824D01*
X12525756Y9006078D01*
X12529311Y9009379D01*
X12529565Y9009634D01*
X12533375Y9012681D01*
X12533629Y9012936D01*
X12537693Y9015729D01*
X12537947Y9015984D01*
X12542011Y9018524D01*
X12542265Y9018778D01*
X12546584Y9021318D01*
X12546838Y9021318D01*
X12551409Y9023604D01*
X12551663Y9023604D01*
X12555981Y9025889D01*
X12556236Y9025889D01*
X12561061Y9027668D01*
X12561315Y9027668D01*
X12565888Y9029445D01*
X12566141Y9029445D01*
X12570968Y9030715D01*
X12571222Y9030970D01*
X12576047Y9031986D01*
X12576302Y9031986D01*
X12581127Y9033002D01*
X12581381Y9033002D01*
X12586461Y9033510D01*
X12586715Y9033510D01*
X12591541Y9034018D01*
X12752577Y9034018D01*
X12757404Y9033510D01*
X12757658Y9033510D01*
X12762738Y9033002D01*
X12762991Y9033002D01*
X12767818Y9031986D01*
X12768072Y9031986D01*
X12772897Y9030970D01*
X12773152Y9030715D01*
X12777977Y9029445D01*
X12778231Y9029445D01*
X12782804Y9027668D01*
X12783058Y9027668D01*
X12787884Y9025889D01*
X12792456Y9023604D01*
X12792709Y9023604D01*
X12797281Y9021318D01*
X12797536Y9021318D01*
X12801854Y9018778D01*
X12801854Y9018524D01*
X12806172Y9015984D01*
X12806425Y9015729D01*
X12810490Y9012936D01*
X12810490Y9012681D01*
X12814554Y9009634D01*
X12814808Y9009379D01*
X12818363Y9006078D01*
X12818618Y9005824D01*
X12822174Y9002521D01*
X12822427Y9002268D01*
X12825729Y8998712D01*
X12825984Y8998458D01*
X12829031Y8994647D01*
X12829286Y8994394D01*
X12832334Y8990329D01*
X12835127Y8986012D01*
X12835381Y8986012D01*
X12837922Y8981694D01*
X12838175Y8981439D01*
X12840461Y8977121D01*
X12840715Y8976868D01*
X12842747Y8972295D01*
X12843002Y8972042D01*
X12844779Y8967470D01*
X12844779Y8967215D01*
X12846558Y8962644D01*
X12846558Y8962389D01*
X12848081Y8957563D01*
X12848336Y8957310D01*
X12849352Y8952484D01*
X12849606Y8952229D01*
X12850368Y8947404D01*
X12850622Y8947150D01*
X12851384Y8942324D01*
X12851384Y8942070D01*
X12851891Y8936989D01*
X12851891Y8936736D01*
X12852145Y8931910D01*
X12852145Y8926321D01*
X12851891Y8921242D01*
X12851891Y8920987D01*
X12851384Y8916162D01*
X12851384Y8915908D01*
X12850622Y8910828D01*
X12850368Y8910574D01*
X12849606Y8905747D01*
X12849352Y8905494D01*
X12848336Y8900668D01*
X12848081Y8900413D01*
X12846558Y8895587D01*
X12844779Y8890762D01*
X12844779Y8890508D01*
X12843002Y8885936D01*
X12842747Y8885681D01*
X12840715Y8881363D01*
X12840461Y8881110D01*
X12838175Y8876537D01*
X12837922Y8876537D01*
X12835381Y8872220D01*
X12835127Y8871965D01*
X12832334Y8867902D01*
X12832334Y8867647D01*
X12829286Y8863584D01*
X12829031Y8863584D01*
X12825984Y8859774D01*
X12825729Y8859520D01*
X12822427Y8855710D01*
X12822174Y8855710D01*
X12818363Y8851900D01*
X12814808Y8848597D01*
X12814554Y8848597D01*
X12810490Y8845295D01*
X12806425Y8842247D01*
X12806172Y8842247D01*
X12801854Y8839454D01*
X12797536Y8836913D01*
X12797281Y8836660D01*
X12792709Y8834374D01*
X12792456Y8834374D01*
X12787884Y8832342D01*
X12787629Y8832087D01*
X12783058Y8830310D01*
X12782804Y8830310D01*
X12778231Y8828786D01*
X12777977Y8828786D01*
X12773152Y8827262D01*
X12772897Y8827262D01*
X12768072Y8826245D01*
X12767818Y8825992D01*
X12762991Y8825229D01*
X12762484Y8825229D01*
X12757658Y8824468D01*
X12757404Y8824468D01*
X12752577Y8824213D01*
X12752070Y8824213D01*
X12747243Y8823960D01*
G37*
D10*
G01*
X5958840Y8021065D03*
G01*
X5704840Y8021065D03*
D11*
G01*
X6212840Y7259065D03*
G01*
X5577840Y7005065D03*
D10*
G01*
X7901940Y8021065D03*
G01*
X7647940Y8021065D03*
D11*
G01*
X8155940Y7259065D03*
G01*
X7520940Y7005065D03*
D10*
G01*
X9845040Y8021065D03*
G01*
X9591040Y8021065D03*
D11*
G01*
X10099040Y7259065D03*
G01*
X9464040Y7005065D03*
D10*
G01*
X9845040Y9964165D03*
G01*
X9591040Y9964165D03*
D11*
G01*
X10099040Y9202165D03*
G01*
X9464040Y8948165D03*
D10*
G01*
X7901940Y9964165D03*
G01*
X7647940Y9964165D03*
D11*
G01*
X8155940Y9202165D03*
G01*
X7520940Y8948165D03*
D10*
G01*
X4015740Y8021065D03*
G01*
X3761740Y8021065D03*
D11*
G01*
X4269740Y7259065D03*
G01*
X3634740Y7005065D03*
D10*
G01*
X5958840Y9964165D03*
G01*
X5704840Y9964165D03*
D11*
G01*
X6212840Y9202165D03*
G01*
X5577840Y8948165D03*
D10*
G01*
X11788140Y8021065D03*
G01*
X11534140Y8021065D03*
D11*
G01*
X12042140Y7259065D03*
G01*
X11407140Y7005065D03*
D10*
G01*
X4015740Y9964165D03*
G01*
X3761740Y9964165D03*
D11*
G01*
X4269740Y9202165D03*
G01*
X3634740Y8948165D03*
M02*
