G04 Layer: TopSilkscreenLayer*
G04 EasyEDA v6.5.34, 2023-09-07 19:38:45*
G04 9ee9bf4eaa3c4749808be0ecbaf77966,1ae14fa7f5aa486887b2aa5280da83c0,10*
G04 Gerber Generator version 0.2*
G04 Scale: 100 percent, Rotated: No, Reflected: No *
G04 Dimensions in millimeters *
G04 leading zeros omitted , absolute positions ,4 integer and 5 decimal *
%FSLAX45Y45*%
%MOMM*%

%ADD10C,0.1524*%
%ADD11C,0.2286*%
%ADD12C,0.1270*%
%ADD13C,0.0660*%
%ADD14C,0.2032*%
%ADD15C,0.0131*%

%LPD*%
G36*
X3470656Y6149136D02*
G01*
X3441293Y6140958D01*
X3436162Y6138976D01*
X3431844Y6136792D01*
X3416655Y6125667D01*
X3409086Y6118606D01*
X3401517Y6110528D01*
X3398316Y6106668D01*
X3395827Y6103162D01*
X3385413Y6084773D01*
X3383229Y6079540D01*
X3381197Y6072632D01*
X3377793Y6058052D01*
X3376269Y6050076D01*
X3375253Y6041694D01*
X3374644Y6030772D01*
X3374085Y5992723D01*
X3373729Y5920994D01*
X3369360Y5892901D01*
X3367582Y5885637D01*
X3364737Y5878931D01*
X3359708Y5869533D01*
X3357168Y5865317D01*
X3354070Y5860745D01*
X3346602Y5851347D01*
X3342589Y5846876D01*
X3338626Y5842863D01*
X3334867Y5839460D01*
X3318662Y5827572D01*
X3313328Y5824880D01*
X3309772Y5823712D01*
X3299307Y5821375D01*
X3281934Y5818378D01*
X3266440Y5818022D01*
X3201314Y5817819D01*
X3186785Y5817514D01*
X3176168Y5816955D01*
X3168396Y5816142D01*
X3162452Y5814974D01*
X3141116Y5808776D01*
X3136188Y5806592D01*
X3131820Y5804001D01*
X3124352Y5797956D01*
X3121609Y5796788D01*
X3118307Y5794298D01*
X3114243Y5790641D01*
X3109772Y5786170D01*
X3105251Y5781243D01*
X3101035Y5776264D01*
X3097530Y5771591D01*
X3088386Y5756503D01*
X3086252Y5751728D01*
X3084322Y5746292D01*
X3075635Y5709361D01*
X3075836Y5485282D01*
X3260090Y5485282D01*
X3266338Y5494121D01*
X3273145Y5502402D01*
X3347262Y5585561D01*
X3399840Y5643930D01*
X3408934Y5653430D01*
X3413556Y5657799D01*
X3416401Y5659678D01*
X3420262Y5660745D01*
X3422192Y5661710D01*
X3423412Y5662980D01*
X3423970Y5663133D01*
X3424478Y5662625D01*
X3424885Y5661253D01*
X3425494Y5655411D01*
X3426155Y5627268D01*
X3426714Y5547918D01*
X3430930Y5542280D01*
X3432251Y5541365D01*
X3434079Y5540603D01*
X3436874Y5539994D01*
X3446373Y5539282D01*
X3463188Y5538927D01*
X3549294Y5538774D01*
X3568700Y5539079D01*
X3582720Y5539790D01*
X3588105Y5540349D01*
X3596284Y5541975D01*
X3599434Y5543092D01*
X3602075Y5544413D01*
X3604463Y5545988D01*
X3608933Y5549950D01*
X3616502Y5557977D01*
X3619601Y5562854D01*
X3621532Y5568696D01*
X3624935Y5588863D01*
X3625189Y5798921D01*
X3627475Y5802579D01*
X3630320Y5806592D01*
X3633266Y5809081D01*
X3636975Y5810554D01*
X3642410Y5811418D01*
X3649014Y5811672D01*
X3683152Y5811723D01*
X3709009Y5811113D01*
X3714394Y5810148D01*
X3718458Y5808624D01*
X3721303Y5806490D01*
X3723030Y5803747D01*
X3723386Y5800598D01*
X3723944Y5783021D01*
X3724249Y5754014D01*
X3724401Y5689244D01*
X3723792Y5619851D01*
X3722928Y5591606D01*
X3720896Y5579770D01*
X3714242Y5536488D01*
X3700830Y5506770D01*
X3698494Y5502605D01*
X3693312Y5495493D01*
X3690213Y5490870D01*
X3683558Y5482691D01*
X3675481Y5473598D01*
X3668471Y5466486D01*
X3660698Y5460136D01*
X3657447Y5457139D01*
X3653332Y5454294D01*
X3638854Y5446522D01*
X3629964Y5441492D01*
X3627678Y5440476D01*
X3624173Y5439410D01*
X3613454Y5437073D01*
X3578301Y5430469D01*
X3572459Y5429707D01*
X3557168Y5428945D01*
X3464763Y5428792D01*
X3447643Y5428335D01*
X3441801Y5427929D01*
X3437483Y5427319D01*
X3434334Y5426506D01*
X3432149Y5425490D01*
X3430676Y5424220D01*
X3428542Y5420817D01*
X3426714Y5417159D01*
X3425951Y5327091D01*
X3425596Y5313883D01*
X3425190Y5307330D01*
X3424936Y5305907D01*
X3423970Y5302961D01*
X3420313Y5305653D01*
X3417112Y5307228D01*
X3413658Y5309971D01*
X3400602Y5321198D01*
X3397859Y5324144D01*
X3393592Y5330088D01*
X3387801Y5336743D01*
X3381756Y5343194D01*
X3376066Y5348122D01*
X3373729Y5350662D01*
X3371240Y5354472D01*
X3360572Y5366715D01*
X3293770Y5440883D01*
X3283965Y5452313D01*
X3278733Y5457088D01*
X3275685Y5461355D01*
X3273298Y5463997D01*
X3272180Y5464860D01*
X3269691Y5467350D01*
X3266744Y5471464D01*
X3263900Y5476443D01*
X3261614Y5481370D01*
X3260090Y5485282D01*
X3075836Y5485282D01*
X3075990Y5255971D01*
X3083356Y5223662D01*
X3085642Y5216194D01*
X3086709Y5213705D01*
X3096463Y5196535D01*
X3100527Y5190794D01*
X3107283Y5183022D01*
X3114700Y5175504D01*
X3120694Y5170474D01*
X3133750Y5161381D01*
X3137052Y5159654D01*
X3141116Y5158232D01*
X3150463Y5155793D01*
X3155746Y5154117D01*
X3161233Y5151526D01*
X3163417Y5150764D01*
X3177336Y5150408D01*
X3256432Y5149748D01*
X3392220Y5149342D01*
X3672992Y5149138D01*
X3864152Y5149850D01*
X3884828Y5150307D01*
X3891432Y5152491D01*
X3896106Y5154269D01*
X3903319Y5156454D01*
X3911244Y5158486D01*
X3914444Y5159502D01*
X3916832Y5160568D01*
X3927195Y5168087D01*
X3933139Y5172100D01*
X3936441Y5174996D01*
X3943858Y5182514D01*
X3951020Y5190947D01*
X3954018Y5194960D01*
X3961790Y5207660D01*
X3965194Y5213654D01*
X3966616Y5217363D01*
X3967784Y5222392D01*
X3969816Y5234228D01*
X3971747Y5243169D01*
X3975201Y5255768D01*
X3975608Y5451348D01*
X3975506Y5962700D01*
X3975303Y6006592D01*
X3974947Y6030010D01*
X3974439Y6042761D01*
X3973728Y6048705D01*
X3971848Y6055156D01*
X3967835Y6075273D01*
X3966413Y6080709D01*
X3964838Y6084824D01*
X3956507Y6099657D01*
X3951579Y6107125D01*
X3944721Y6115405D01*
X3937558Y6122720D01*
X3931716Y6127343D01*
X3927297Y6130086D01*
X3919169Y6136182D01*
X3914546Y6138570D01*
X3907891Y6141059D01*
X3881526Y6148933D01*
G37*
G36*
X4931156Y5415280D02*
G01*
X4924450Y5415026D01*
X4917998Y5414264D01*
X4911852Y5412994D01*
X4906010Y5411317D01*
X4900472Y5409133D01*
X4895240Y5406542D01*
X4890465Y5403596D01*
X4886045Y5400192D01*
X4882032Y5396484D01*
X4878527Y5392369D01*
X4875479Y5387949D01*
X4872888Y5383225D01*
X4870856Y5378246D01*
X4869383Y5372963D01*
X4868468Y5367426D01*
X4868164Y5361686D01*
X4868621Y5354574D01*
X4869942Y5348071D01*
X4871974Y5342178D01*
X4874717Y5336844D01*
X4878070Y5332018D01*
X4881829Y5327700D01*
X4886045Y5323789D01*
X4890566Y5320334D01*
X4895291Y5317236D01*
X4900117Y5314442D01*
X4909820Y5309870D01*
X4946396Y5293461D01*
X4953000Y5290210D01*
X4958994Y5286756D01*
X4964125Y5282844D01*
X4968392Y5278272D01*
X4971592Y5272938D01*
X4973624Y5266588D01*
X4974336Y5259070D01*
X4973980Y5253939D01*
X4972964Y5249113D01*
X4971237Y5244642D01*
X4968900Y5240528D01*
X4965903Y5236819D01*
X4962347Y5233517D01*
X4958181Y5230622D01*
X4953457Y5228234D01*
X4948174Y5226304D01*
X4942433Y5224932D01*
X4936134Y5224068D01*
X4929378Y5223764D01*
X4923942Y5223967D01*
X4918557Y5224576D01*
X4913325Y5225592D01*
X4908092Y5226964D01*
X4903063Y5228742D01*
X4898085Y5230825D01*
X4893310Y5233212D01*
X4888687Y5235956D01*
X4884216Y5239004D01*
X4879898Y5242306D01*
X4875834Y5245862D01*
X4871974Y5249672D01*
X4858004Y5233924D01*
X4862525Y5229352D01*
X4867351Y5225135D01*
X4872380Y5221224D01*
X4877765Y5217668D01*
X4883353Y5214467D01*
X4889195Y5211622D01*
X4895291Y5209184D01*
X4901590Y5207152D01*
X4908143Y5205577D01*
X4914950Y5204409D01*
X4921910Y5203698D01*
X4929124Y5203444D01*
X4936845Y5203748D01*
X4944160Y5204612D01*
X4951120Y5205984D01*
X4957622Y5207863D01*
X4963718Y5210251D01*
X4969357Y5213096D01*
X4974539Y5216347D01*
X4979212Y5220004D01*
X4983429Y5224068D01*
X4987137Y5228437D01*
X4990287Y5233162D01*
X4992928Y5238140D01*
X4995011Y5243423D01*
X4996484Y5248960D01*
X4997399Y5254701D01*
X4997704Y5260594D01*
X4997297Y5267858D01*
X4996180Y5274513D01*
X4994351Y5280558D01*
X4991912Y5286044D01*
X4988864Y5291023D01*
X4985258Y5295544D01*
X4981194Y5299659D01*
X4976672Y5303367D01*
X4971796Y5306771D01*
X4966563Y5309870D01*
X4961026Y5312765D01*
X4955286Y5315458D01*
X4925568Y5327904D01*
X4913731Y5333441D01*
X4907991Y5336692D01*
X4902758Y5340451D01*
X4898237Y5344871D01*
X4894681Y5350103D01*
X4892344Y5356250D01*
X4891532Y5363464D01*
X4892243Y5370372D01*
X4894376Y5376468D01*
X4897831Y5381853D01*
X4902504Y5386324D01*
X4908245Y5389930D01*
X4915001Y5392521D01*
X4922672Y5394147D01*
X4931156Y5394706D01*
X4938268Y5394350D01*
X4945024Y5393334D01*
X4951425Y5391658D01*
X4957470Y5389422D01*
X4963160Y5386578D01*
X4968494Y5383225D01*
X4973574Y5379415D01*
X4978400Y5375148D01*
X4990846Y5389880D01*
X4987188Y5393537D01*
X4983276Y5396941D01*
X4979111Y5400192D01*
X4974640Y5403138D01*
X4969916Y5405831D01*
X4964988Y5408218D01*
X4959858Y5410301D01*
X4954473Y5412028D01*
X4948936Y5413400D01*
X4943144Y5414416D01*
X4937252Y5415076D01*
G37*
G36*
X5671820Y5415280D02*
G01*
X5665114Y5415026D01*
X5658662Y5414264D01*
X5652516Y5412994D01*
X5646674Y5411317D01*
X5641136Y5409133D01*
X5635904Y5406542D01*
X5631129Y5403596D01*
X5626709Y5400192D01*
X5622696Y5396484D01*
X5619191Y5392369D01*
X5616143Y5387949D01*
X5613552Y5383225D01*
X5611520Y5378246D01*
X5610047Y5372963D01*
X5609132Y5367426D01*
X5608828Y5361686D01*
X5609285Y5354574D01*
X5610606Y5348071D01*
X5612638Y5342178D01*
X5615381Y5336844D01*
X5618734Y5332018D01*
X5622493Y5327700D01*
X5626709Y5323789D01*
X5631230Y5320334D01*
X5635955Y5317236D01*
X5640781Y5314442D01*
X5650484Y5309870D01*
X5687060Y5293461D01*
X5693664Y5290210D01*
X5699658Y5286756D01*
X5704789Y5282844D01*
X5709056Y5278272D01*
X5712256Y5272938D01*
X5714288Y5266588D01*
X5715000Y5259070D01*
X5714644Y5253939D01*
X5713628Y5249113D01*
X5711901Y5244642D01*
X5709564Y5240528D01*
X5706567Y5236819D01*
X5703011Y5233517D01*
X5698845Y5230622D01*
X5694121Y5228234D01*
X5688838Y5226304D01*
X5683097Y5224932D01*
X5676798Y5224068D01*
X5670042Y5223764D01*
X5664606Y5223967D01*
X5659221Y5224576D01*
X5653989Y5225592D01*
X5648756Y5226964D01*
X5643727Y5228742D01*
X5638749Y5230825D01*
X5633974Y5233212D01*
X5629351Y5235956D01*
X5624880Y5239004D01*
X5620562Y5242306D01*
X5616498Y5245862D01*
X5612638Y5249672D01*
X5598668Y5233924D01*
X5603240Y5229352D01*
X5608066Y5225135D01*
X5613196Y5221224D01*
X5618530Y5217668D01*
X5624118Y5214467D01*
X5629960Y5211622D01*
X5636006Y5209184D01*
X5642305Y5207152D01*
X5648858Y5205577D01*
X5655614Y5204409D01*
X5662574Y5203698D01*
X5669788Y5203444D01*
X5677509Y5203748D01*
X5684824Y5204612D01*
X5691784Y5205984D01*
X5698286Y5207863D01*
X5704382Y5210251D01*
X5710021Y5213096D01*
X5715203Y5216347D01*
X5719876Y5220004D01*
X5724093Y5224068D01*
X5727801Y5228437D01*
X5730951Y5233162D01*
X5733592Y5238140D01*
X5735675Y5243423D01*
X5737148Y5248960D01*
X5738063Y5254701D01*
X5738368Y5260594D01*
X5737961Y5267858D01*
X5736844Y5274513D01*
X5735015Y5280558D01*
X5732576Y5286044D01*
X5729528Y5291023D01*
X5725922Y5295544D01*
X5721858Y5299659D01*
X5717336Y5303367D01*
X5712460Y5306771D01*
X5707227Y5309870D01*
X5701690Y5312765D01*
X5695950Y5315458D01*
X5666232Y5327904D01*
X5654395Y5333441D01*
X5648655Y5336692D01*
X5643422Y5340451D01*
X5638901Y5344871D01*
X5635345Y5350103D01*
X5633008Y5356250D01*
X5632196Y5363464D01*
X5632907Y5370372D01*
X5635040Y5376468D01*
X5638495Y5381853D01*
X5643168Y5386324D01*
X5648909Y5389930D01*
X5655665Y5392521D01*
X5663336Y5394147D01*
X5671820Y5394706D01*
X5678932Y5394350D01*
X5685688Y5393334D01*
X5692089Y5391658D01*
X5698083Y5389422D01*
X5703824Y5386578D01*
X5709158Y5383225D01*
X5714238Y5379415D01*
X5719064Y5375148D01*
X5731510Y5389880D01*
X5727852Y5393537D01*
X5723940Y5396941D01*
X5719775Y5400192D01*
X5715304Y5403138D01*
X5710580Y5405831D01*
X5705652Y5408218D01*
X5700522Y5410301D01*
X5695137Y5412028D01*
X5689600Y5413400D01*
X5683808Y5414416D01*
X5677916Y5415076D01*
G37*
G36*
X6034278Y5415280D02*
G01*
X6027572Y5415026D01*
X6021120Y5414264D01*
X6014974Y5412994D01*
X6009132Y5411317D01*
X6003594Y5409133D01*
X5998362Y5406542D01*
X5993587Y5403596D01*
X5989167Y5400192D01*
X5985154Y5396484D01*
X5981649Y5392369D01*
X5978601Y5387949D01*
X5976010Y5383225D01*
X5973978Y5378246D01*
X5972505Y5372963D01*
X5971590Y5367426D01*
X5971286Y5361686D01*
X5971743Y5354574D01*
X5973064Y5348071D01*
X5975096Y5342178D01*
X5977839Y5336844D01*
X5981141Y5332018D01*
X5984951Y5327700D01*
X5989116Y5323789D01*
X5993587Y5320334D01*
X5998311Y5317236D01*
X6003086Y5314442D01*
X6012688Y5309870D01*
X6049518Y5293461D01*
X6056122Y5290210D01*
X6062116Y5286756D01*
X6067247Y5282844D01*
X6071514Y5278272D01*
X6074714Y5272938D01*
X6076746Y5266588D01*
X6077458Y5259070D01*
X6077102Y5253939D01*
X6076035Y5249113D01*
X6074308Y5244642D01*
X6071920Y5240528D01*
X6068923Y5236819D01*
X6065316Y5233517D01*
X6061151Y5230622D01*
X6056376Y5228234D01*
X6051092Y5226304D01*
X6045301Y5224932D01*
X6039002Y5224068D01*
X6032246Y5223764D01*
X6026861Y5223967D01*
X6021527Y5224576D01*
X6016294Y5225592D01*
X6011113Y5226964D01*
X6006033Y5228742D01*
X6001105Y5230825D01*
X5996279Y5233212D01*
X5991656Y5235956D01*
X5987186Y5239004D01*
X5982970Y5242306D01*
X5978906Y5245862D01*
X5975096Y5249672D01*
X5961126Y5233924D01*
X5965647Y5229352D01*
X5970473Y5225135D01*
X5975502Y5221224D01*
X5980836Y5217668D01*
X5986424Y5214467D01*
X5992266Y5211622D01*
X5998362Y5209184D01*
X6004661Y5207152D01*
X6011164Y5205577D01*
X6017920Y5204409D01*
X6024829Y5203698D01*
X6031992Y5203444D01*
X6039713Y5203748D01*
X6047079Y5204612D01*
X6053988Y5205984D01*
X6060541Y5207863D01*
X6066637Y5210251D01*
X6072276Y5213096D01*
X6077508Y5216347D01*
X6082233Y5220004D01*
X6086449Y5224068D01*
X6090158Y5228437D01*
X6093358Y5233162D01*
X6096000Y5238140D01*
X6098082Y5243423D01*
X6099606Y5248960D01*
X6100521Y5254701D01*
X6100826Y5260594D01*
X6100419Y5267858D01*
X6099302Y5274513D01*
X6097473Y5280558D01*
X6095034Y5286044D01*
X6091986Y5291023D01*
X6088380Y5295544D01*
X6084316Y5299659D01*
X6079794Y5303367D01*
X6074918Y5306771D01*
X6069685Y5309870D01*
X6064148Y5312765D01*
X6058408Y5315458D01*
X6028690Y5327904D01*
X6016853Y5333441D01*
X6011113Y5336692D01*
X6005880Y5340451D01*
X6001359Y5344871D01*
X5997803Y5350103D01*
X5995466Y5356250D01*
X5994654Y5363464D01*
X5995365Y5370372D01*
X5997498Y5376468D01*
X6000953Y5381853D01*
X6005626Y5386324D01*
X6011367Y5389930D01*
X6018123Y5392521D01*
X6025794Y5394147D01*
X6034278Y5394706D01*
X6041390Y5394350D01*
X6048146Y5393334D01*
X6054547Y5391658D01*
X6060541Y5389422D01*
X6066282Y5386578D01*
X6071616Y5383225D01*
X6076696Y5379415D01*
X6081522Y5375148D01*
X6093714Y5389880D01*
X6090056Y5393537D01*
X6086195Y5396941D01*
X6081979Y5400192D01*
X6077559Y5403138D01*
X6072886Y5405831D01*
X6068009Y5408218D01*
X6062878Y5410301D01*
X6057544Y5412028D01*
X6052007Y5413400D01*
X6046266Y5414416D01*
X6040374Y5415076D01*
G37*
G36*
X4353814Y5411470D02*
G01*
X4353814Y5207000D01*
X4376928Y5207000D01*
X4376928Y5411470D01*
G37*
G36*
X4433824Y5411470D02*
G01*
X4433824Y5207000D01*
X4455668Y5207000D01*
X4455617Y5326989D01*
X4455109Y5342737D01*
X4452874Y5381244D01*
X4454398Y5381244D01*
X4476750Y5339334D01*
X4553458Y5207000D01*
X4577588Y5207000D01*
X4577588Y5411470D01*
X4555490Y5411470D01*
X4555540Y5295696D01*
X4555744Y5284978D01*
X4557420Y5252770D01*
X4558538Y5237226D01*
X4557014Y5237226D01*
X4535170Y5279136D01*
X4457700Y5411470D01*
G37*
G36*
X4606544Y5411470D02*
G01*
X4672330Y5207000D01*
X4698746Y5207000D01*
X4764278Y5411470D01*
X4740656Y5411470D01*
X4701590Y5281218D01*
X4693615Y5253837D01*
X4686554Y5231130D01*
X4685284Y5231130D01*
X4678324Y5253837D01*
X4668723Y5286857D01*
X4630928Y5411470D01*
G37*
G36*
X4792980Y5411470D02*
G01*
X4792980Y5207000D01*
X4816094Y5207000D01*
X4816094Y5411470D01*
G37*
G36*
X5038598Y5411470D02*
G01*
X5038598Y5207000D01*
X5061712Y5207000D01*
X5061712Y5411470D01*
G37*
G36*
X5118862Y5411470D02*
G01*
X5118862Y5393182D01*
X5174742Y5393182D01*
X5182666Y5392978D01*
X5189931Y5392369D01*
X5196484Y5391302D01*
X5202377Y5389829D01*
X5207609Y5387848D01*
X5212130Y5385358D01*
X5215991Y5382310D01*
X5219141Y5378754D01*
X5221579Y5374640D01*
X5223357Y5369915D01*
X5224424Y5364581D01*
X5224780Y5358638D01*
X5224475Y5353456D01*
X5223510Y5348630D01*
X5221884Y5344210D01*
X5219598Y5340146D01*
X5216550Y5336489D01*
X5212791Y5333238D01*
X5208270Y5330444D01*
X5202936Y5328107D01*
X5196789Y5326278D01*
X5189829Y5324957D01*
X5181955Y5324094D01*
X5173218Y5323840D01*
X5141976Y5323840D01*
X5141976Y5393182D01*
X5118862Y5393182D01*
X5118862Y5305806D01*
X5178806Y5305806D01*
X5187746Y5305552D01*
X5196027Y5304790D01*
X5203596Y5303520D01*
X5210454Y5301742D01*
X5216550Y5299405D01*
X5221935Y5296560D01*
X5226507Y5293156D01*
X5230317Y5289194D01*
X5233314Y5284673D01*
X5235498Y5279593D01*
X5236768Y5273954D01*
X5237226Y5267706D01*
X5236972Y5262422D01*
X5236210Y5257495D01*
X5234940Y5252974D01*
X5233212Y5248808D01*
X5230977Y5244998D01*
X5228336Y5241544D01*
X5225186Y5238445D01*
X5221630Y5235651D01*
X5217668Y5233263D01*
X5213248Y5231180D01*
X5208473Y5229453D01*
X5203240Y5228031D01*
X5197703Y5226913D01*
X5191760Y5226151D01*
X5185460Y5225694D01*
X5178806Y5225542D01*
X5141976Y5225542D01*
X5141976Y5305806D01*
X5118862Y5305806D01*
X5118862Y5207000D01*
X5182362Y5207000D01*
X5189169Y5207152D01*
X5195722Y5207609D01*
X5202021Y5208320D01*
X5208066Y5209387D01*
X5213858Y5210708D01*
X5219395Y5212334D01*
X5224576Y5214315D01*
X5229504Y5216550D01*
X5234076Y5219039D01*
X5238343Y5221884D01*
X5242255Y5225034D01*
X5245811Y5228437D01*
X5249011Y5232196D01*
X5251805Y5236210D01*
X5254193Y5240528D01*
X5256174Y5245150D01*
X5257749Y5250078D01*
X5258917Y5255310D01*
X5259578Y5260848D01*
X5259832Y5266690D01*
X5259476Y5273446D01*
X5258460Y5279694D01*
X5256733Y5285486D01*
X5254447Y5290820D01*
X5251500Y5295646D01*
X5248046Y5300014D01*
X5244084Y5303875D01*
X5239562Y5307279D01*
X5234635Y5310174D01*
X5229301Y5312562D01*
X5223510Y5314492D01*
X5217414Y5315966D01*
X5217414Y5316982D01*
X5224322Y5319979D01*
X5230418Y5323840D01*
X5235651Y5328615D01*
X5239969Y5334050D01*
X5243423Y5340197D01*
X5245862Y5346852D01*
X5247386Y5353964D01*
X5247894Y5361432D01*
X5247589Y5367832D01*
X5246624Y5373776D01*
X5244998Y5379262D01*
X5242814Y5384241D01*
X5240070Y5388813D01*
X5236768Y5392877D01*
X5232958Y5396534D01*
X5228590Y5399786D01*
X5223764Y5402580D01*
X5218430Y5405018D01*
X5212689Y5407050D01*
X5206542Y5408676D01*
X5199938Y5409895D01*
X5193030Y5410758D01*
X5185714Y5411317D01*
X5178044Y5411470D01*
G37*
G36*
X5300980Y5411470D02*
G01*
X5300980Y5207000D01*
X5414518Y5207000D01*
X5414518Y5226558D01*
X5324094Y5226558D01*
X5324094Y5411470D01*
G37*
G36*
X5450586Y5411470D02*
G01*
X5450586Y5207000D01*
X5570220Y5207000D01*
X5570220Y5226558D01*
X5473954Y5226558D01*
X5473954Y5305044D01*
X5552440Y5305044D01*
X5552440Y5324602D01*
X5473954Y5324602D01*
X5473954Y5391912D01*
X5567172Y5391912D01*
X5567172Y5411470D01*
G37*
G36*
X5778500Y5411470D02*
G01*
X5778500Y5290058D01*
X5778652Y5282133D01*
X5779160Y5274665D01*
X5779973Y5267604D01*
X5781040Y5261000D01*
X5782462Y5254752D01*
X5784138Y5248960D01*
X5786069Y5243576D01*
X5788304Y5238597D01*
X5790742Y5233974D01*
X5793435Y5229707D01*
X5796381Y5225796D01*
X5799531Y5222290D01*
X5802884Y5219090D01*
X5806440Y5216194D01*
X5810199Y5213654D01*
X5814110Y5211368D01*
X5818174Y5209438D01*
X5822442Y5207812D01*
X5826810Y5206441D01*
X5831382Y5205323D01*
X5840780Y5203901D01*
X5845657Y5203545D01*
X5855614Y5203545D01*
X5860542Y5203901D01*
X5870041Y5205323D01*
X5874562Y5206441D01*
X5878982Y5207812D01*
X5883249Y5209438D01*
X5887364Y5211368D01*
X5891276Y5213654D01*
X5895035Y5216194D01*
X5898591Y5219090D01*
X5901994Y5222290D01*
X5905144Y5225796D01*
X5908090Y5229707D01*
X5910783Y5233974D01*
X5913221Y5238597D01*
X5915456Y5243576D01*
X5917387Y5248960D01*
X5919063Y5254752D01*
X5920486Y5261000D01*
X5921552Y5267604D01*
X5922365Y5274665D01*
X5922873Y5282133D01*
X5923026Y5290058D01*
X5923026Y5411470D01*
X5900928Y5411470D01*
X5900928Y5289804D01*
X5900674Y5280761D01*
X5899912Y5272532D01*
X5898642Y5265013D01*
X5896965Y5258257D01*
X5894832Y5252212D01*
X5892292Y5246827D01*
X5889396Y5242052D01*
X5886145Y5237937D01*
X5882589Y5234381D01*
X5878728Y5231384D01*
X5874562Y5228945D01*
X5870194Y5227015D01*
X5865571Y5225542D01*
X5860745Y5224526D01*
X5855766Y5223967D01*
X5850636Y5223764D01*
X5845657Y5223967D01*
X5840780Y5224526D01*
X5836107Y5225542D01*
X5831636Y5227015D01*
X5827318Y5228945D01*
X5823305Y5231384D01*
X5819495Y5234381D01*
X5816041Y5237937D01*
X5812840Y5242052D01*
X5810046Y5246827D01*
X5807557Y5252212D01*
X5805474Y5258257D01*
X5803849Y5265013D01*
X5802630Y5272532D01*
X5801868Y5280761D01*
X5801614Y5289804D01*
X5801614Y5411470D01*
G37*
G36*
X6141720Y5411470D02*
G01*
X6141720Y5207000D01*
X6164834Y5207000D01*
X6164834Y5304790D01*
X6263386Y5304790D01*
X6263386Y5207000D01*
X6286500Y5207000D01*
X6286500Y5411470D01*
X6263386Y5411470D01*
X6263386Y5324856D01*
X6164834Y5324856D01*
X6164834Y5411470D01*
G37*
G36*
X6343396Y5411470D02*
G01*
X6343396Y5207000D01*
X6366510Y5207000D01*
X6366510Y5411470D01*
G37*
G36*
X4208272Y5407406D02*
G01*
X4202582Y5407304D01*
X4191355Y5406288D01*
X4185818Y5405424D01*
X4174947Y5402986D01*
X4164380Y5399633D01*
X4154220Y5395366D01*
X4149293Y5392928D01*
X4139793Y5387340D01*
X4135221Y5384292D01*
X4126433Y5377484D01*
X4118305Y5369864D01*
X4114444Y5365800D01*
X4107281Y5357063D01*
X4103928Y5352440D01*
X4100779Y5347614D01*
X4095089Y5337454D01*
X4090162Y5326634D01*
X4086148Y5315153D01*
X4083100Y5303012D01*
X4081881Y5296763D01*
X4080967Y5290362D01*
X4080306Y5283758D01*
X4079900Y5277104D01*
X4079748Y5270246D01*
X4079900Y5263642D01*
X4080306Y5257190D01*
X4080967Y5250942D01*
X4083100Y5239054D01*
X4086250Y5227980D01*
X4090314Y5217668D01*
X4095292Y5208168D01*
X4101084Y5199481D01*
X4107687Y5191607D01*
X4111244Y5188000D01*
X4118914Y5181396D01*
X4127296Y5175656D01*
X4131665Y5173116D01*
X4140911Y5168646D01*
X4145737Y5166715D01*
X4155795Y5163566D01*
X4166311Y5161330D01*
X4171696Y5160518D01*
X4182770Y5159603D01*
X4188460Y5159502D01*
X4196384Y5159756D01*
X4204106Y5160518D01*
X4211675Y5161737D01*
X4219041Y5163515D01*
X4226356Y5165750D01*
X4233468Y5168493D01*
X4240479Y5171744D01*
X4247388Y5175504D01*
X4240784Y5189474D01*
X4235297Y5186476D01*
X4229557Y5183733D01*
X4223562Y5181295D01*
X4217263Y5179212D01*
X4210812Y5177536D01*
X4204055Y5176316D01*
X4197146Y5175504D01*
X4189984Y5175250D01*
X4178706Y5175758D01*
X4167936Y5177383D01*
X4162755Y5178552D01*
X4157726Y5179974D01*
X4152849Y5181650D01*
X4143552Y5185816D01*
X4139133Y5188254D01*
X4134916Y5190896D01*
X4127042Y5196992D01*
X4123385Y5200345D01*
X4116730Y5207812D01*
X4110939Y5216194D01*
X4108399Y5220716D01*
X4106062Y5225491D01*
X4104030Y5230418D01*
X4102201Y5235600D01*
X4100626Y5240985D01*
X4099356Y5246573D01*
X4098340Y5252415D01*
X4097629Y5258409D01*
X4097172Y5264607D01*
X4097020Y5271008D01*
X4097172Y5277815D01*
X4097629Y5284419D01*
X4098391Y5290870D01*
X4099458Y5297170D01*
X4100779Y5303316D01*
X4102354Y5309311D01*
X4104182Y5315102D01*
X4106316Y5320741D01*
X4108653Y5326176D01*
X4111193Y5331409D01*
X4113987Y5336489D01*
X4120184Y5345988D01*
X4127144Y5354726D01*
X4134815Y5362600D01*
X4143095Y5369610D01*
X4151884Y5375706D01*
X4161129Y5380888D01*
X4170781Y5385054D01*
X4180738Y5388254D01*
X4185818Y5389473D01*
X4190949Y5390438D01*
X4196080Y5391099D01*
X4201261Y5391505D01*
X4206494Y5391658D01*
X4213352Y5391454D01*
X4219956Y5390896D01*
X4226255Y5389981D01*
X4232300Y5388711D01*
X4238040Y5387136D01*
X4243578Y5385206D01*
X4248759Y5382920D01*
X4253738Y5380329D01*
X4258360Y5377484D01*
X4262729Y5374284D01*
X4266844Y5370830D01*
X4270654Y5367121D01*
X4274159Y5363108D01*
X4277360Y5358841D01*
X4280255Y5354370D01*
X4282897Y5349646D01*
X4285183Y5344668D01*
X4287215Y5339486D01*
X4288942Y5334101D01*
X4290314Y5328462D01*
X4291431Y5322671D01*
X4292244Y5316728D01*
X4292701Y5310581D01*
X4292854Y5304282D01*
X4292600Y5296712D01*
X4291838Y5289600D01*
X4290618Y5282844D01*
X4288993Y5276596D01*
X4286961Y5270754D01*
X4284573Y5265369D01*
X4281932Y5260441D01*
X4278985Y5255971D01*
X4275836Y5252008D01*
X4272432Y5248554D01*
X4268927Y5245608D01*
X4265320Y5243169D01*
X4261612Y5241239D01*
X4257852Y5239867D01*
X4254144Y5239054D01*
X4250436Y5238750D01*
X4244340Y5239308D01*
X4239310Y5241036D01*
X4235399Y5243982D01*
X4232605Y5248046D01*
X4230979Y5253329D01*
X4230471Y5259882D01*
X4231132Y5267604D01*
X4245102Y5337810D01*
X4229354Y5337810D01*
X4226306Y5325110D01*
X4225798Y5325110D01*
X4220921Y5331866D01*
X4215028Y5336641D01*
X4208272Y5339435D01*
X4200652Y5340350D01*
X4195267Y5340045D01*
X4190085Y5339232D01*
X4185158Y5337860D01*
X4180433Y5336032D01*
X4175912Y5333746D01*
X4171696Y5331002D01*
X4167682Y5327954D01*
X4163923Y5324500D01*
X4160418Y5320741D01*
X4157218Y5316728D01*
X4154271Y5312460D01*
X4151579Y5307990D01*
X4149242Y5303316D01*
X4147159Y5298541D01*
X4145381Y5293614D01*
X4143908Y5288635D01*
X4142740Y5283657D01*
X4141876Y5278628D01*
X4141368Y5273649D01*
X4141263Y5270246D01*
X4159504Y5270246D01*
X4159808Y5276342D01*
X4160774Y5282539D01*
X4162348Y5288737D01*
X4164533Y5294833D01*
X4167225Y5300675D01*
X4170527Y5306110D01*
X4174337Y5311089D01*
X4178604Y5315458D01*
X4183379Y5319014D01*
X4188612Y5321757D01*
X4194301Y5323484D01*
X4200398Y5324094D01*
X4206544Y5323433D01*
X4211878Y5321147D01*
X4216654Y5317032D01*
X4221226Y5310632D01*
X4212336Y5260086D01*
X4204208Y5251450D01*
X4196537Y5245506D01*
X4189222Y5242102D01*
X4182110Y5241036D01*
X4177487Y5241442D01*
X4173220Y5242610D01*
X4169359Y5244744D01*
X4166057Y5247741D01*
X4163314Y5251754D01*
X4161231Y5256784D01*
X4159961Y5262930D01*
X4159504Y5270246D01*
X4141263Y5270246D01*
X4141520Y5261914D01*
X4142486Y5255666D01*
X4144060Y5249976D01*
X4146143Y5244795D01*
X4148734Y5240223D01*
X4151833Y5236159D01*
X4155338Y5232755D01*
X4159250Y5229910D01*
X4163517Y5227675D01*
X4168089Y5226100D01*
X4172965Y5225084D01*
X4178046Y5224780D01*
X4183278Y5225237D01*
X4188409Y5226507D01*
X4193489Y5228539D01*
X4198416Y5231180D01*
X4203141Y5234381D01*
X4207662Y5238089D01*
X4211929Y5242102D01*
X4215892Y5246370D01*
X4216654Y5246370D01*
X4217822Y5240782D01*
X4219956Y5235956D01*
X4223004Y5231942D01*
X4226814Y5228691D01*
X4231335Y5226151D01*
X4236516Y5224424D01*
X4242206Y5223357D01*
X4248404Y5223002D01*
X4252569Y5223205D01*
X4256836Y5223865D01*
X4261104Y5224881D01*
X4265371Y5226354D01*
X4269587Y5228234D01*
X4273804Y5230571D01*
X4277868Y5233263D01*
X4281830Y5236362D01*
X4285640Y5239918D01*
X4289247Y5243830D01*
X4292701Y5248148D01*
X4295902Y5252923D01*
X4298797Y5258054D01*
X4301439Y5263591D01*
X4303725Y5269484D01*
X4305706Y5275834D01*
X4307230Y5282539D01*
X4308398Y5289651D01*
X4309110Y5297170D01*
X4309364Y5305044D01*
X4309211Y5311495D01*
X4308754Y5317794D01*
X4308043Y5323941D01*
X4307027Y5329885D01*
X4305757Y5335727D01*
X4304182Y5341315D01*
X4302302Y5346750D01*
X4300220Y5351983D01*
X4297832Y5357063D01*
X4295190Y5361889D01*
X4292295Y5366512D01*
X4289145Y5370931D01*
X4285792Y5375097D01*
X4282135Y5379110D01*
X4278274Y5382818D01*
X4274210Y5386324D01*
X4269841Y5389575D01*
X4265320Y5392572D01*
X4260545Y5395315D01*
X4250334Y5399989D01*
X4244898Y5401919D01*
X4239310Y5403545D01*
X4233468Y5404916D01*
X4227474Y5405983D01*
X4221226Y5406796D01*
X4214825Y5407253D01*
G37*
G36*
X7132574Y5815076D02*
G01*
X7132574Y5734304D01*
X7134098Y5698490D01*
X7124903Y5705602D01*
X7115809Y5711596D01*
X7111238Y5714136D01*
X7106615Y5716371D01*
X7101840Y5718352D01*
X7096912Y5719927D01*
X7091781Y5721197D01*
X7086447Y5722112D01*
X7080859Y5722670D01*
X7074916Y5722874D01*
X7069886Y5722721D01*
X7059930Y5721451D01*
X7055103Y5720334D01*
X7050328Y5718962D01*
X7045604Y5717286D01*
X7041032Y5715304D01*
X7036511Y5713018D01*
X7032142Y5710478D01*
X7027925Y5707634D01*
X7023811Y5704535D01*
X7019899Y5701182D01*
X7016089Y5697524D01*
X7012482Y5693613D01*
X7009079Y5689498D01*
X7005828Y5685078D01*
X7002780Y5680456D01*
X6999935Y5675579D01*
X6997344Y5670448D01*
X6994956Y5665114D01*
X6992823Y5659526D01*
X6990943Y5653735D01*
X6989318Y5647740D01*
X6987997Y5641543D01*
X6986930Y5635142D01*
X6986117Y5628487D01*
X6985660Y5621680D01*
X6985508Y5614670D01*
X7017766Y5614670D01*
X7017969Y5621782D01*
X7018578Y5628640D01*
X7019544Y5635244D01*
X7020864Y5641644D01*
X7022541Y5647740D01*
X7024573Y5653582D01*
X7026909Y5659069D01*
X7029551Y5664301D01*
X7032498Y5669178D01*
X7035749Y5673699D01*
X7039203Y5677865D01*
X7042962Y5681675D01*
X7046925Y5685078D01*
X7051090Y5688076D01*
X7055459Y5690666D01*
X7060082Y5692800D01*
X7064806Y5694476D01*
X7069734Y5695696D01*
X7074814Y5696458D01*
X7079996Y5696712D01*
X7086600Y5696407D01*
X7093051Y5695442D01*
X7099503Y5693765D01*
X7105903Y5691327D01*
X7112355Y5688177D01*
X7118908Y5684164D01*
X7125665Y5679338D01*
X7132574Y5673598D01*
X7132574Y5562346D01*
X7123480Y5553456D01*
X7118959Y5549646D01*
X7114438Y5546191D01*
X7109866Y5543143D01*
X7105345Y5540502D01*
X7100722Y5538266D01*
X7096099Y5536438D01*
X7091425Y5534964D01*
X7086701Y5533948D01*
X7081875Y5533339D01*
X7076948Y5533136D01*
X7071410Y5533390D01*
X7066076Y5534050D01*
X7061047Y5535168D01*
X7056272Y5536742D01*
X7051751Y5538724D01*
X7047484Y5541162D01*
X7043470Y5543956D01*
X7039762Y5547207D01*
X7036308Y5550814D01*
X7033158Y5554878D01*
X7030262Y5559247D01*
X7027722Y5564022D01*
X7025386Y5569153D01*
X7023404Y5574639D01*
X7021677Y5580481D01*
X7020306Y5586679D01*
X7019188Y5593181D01*
X7018426Y5600039D01*
X7017918Y5607202D01*
X7017766Y5614670D01*
X6985508Y5614670D01*
X6985609Y5607405D01*
X6986625Y5593588D01*
X6987489Y5587034D01*
X6989927Y5574588D01*
X6991502Y5568746D01*
X6993280Y5563158D01*
X6995261Y5557824D01*
X6997496Y5552694D01*
X6999935Y5547868D01*
X7002576Y5543296D01*
X7005421Y5538978D01*
X7008520Y5534863D01*
X7011771Y5531053D01*
X7015175Y5527548D01*
X7018832Y5524246D01*
X7022642Y5521248D01*
X7026656Y5518556D01*
X7030872Y5516067D01*
X7035241Y5513882D01*
X7039762Y5512003D01*
X7044486Y5510428D01*
X7049312Y5509107D01*
X7054342Y5508040D01*
X7059523Y5507329D01*
X7064857Y5506872D01*
X7070344Y5506720D01*
X7076541Y5506974D01*
X7082637Y5507786D01*
X7088581Y5509056D01*
X7094372Y5510834D01*
X7100011Y5512968D01*
X7105446Y5515508D01*
X7110730Y5518353D01*
X7115809Y5521502D01*
X7125411Y5528614D01*
X7134098Y5536438D01*
X7135114Y5536438D01*
X7137908Y5511800D01*
X7163308Y5511800D01*
X7163308Y5815076D01*
G37*
G36*
X4625086Y5795772D02*
G01*
X4618736Y5795568D01*
X4612589Y5795010D01*
X4606696Y5794095D01*
X4601006Y5792825D01*
X4595469Y5791200D01*
X4590186Y5789269D01*
X4585004Y5787034D01*
X4579975Y5784443D01*
X4575149Y5781649D01*
X4570425Y5778550D01*
X4561281Y5771540D01*
X4556861Y5767730D01*
X4548276Y5759348D01*
X4544060Y5754878D01*
X4562094Y5737352D01*
X4570425Y5746242D01*
X4574895Y5750356D01*
X4579467Y5754166D01*
X4584242Y5757672D01*
X4589119Y5760821D01*
X4594199Y5763564D01*
X4599381Y5765952D01*
X4604766Y5767832D01*
X4610201Y5769203D01*
X4615789Y5770067D01*
X4621530Y5770372D01*
X4628134Y5770067D01*
X4634230Y5769254D01*
X4639919Y5767882D01*
X4645152Y5766003D01*
X4649927Y5763666D01*
X4654296Y5760872D01*
X4658207Y5757621D01*
X4661712Y5753963D01*
X4664760Y5749899D01*
X4667402Y5745530D01*
X4669637Y5740806D01*
X4671415Y5735777D01*
X4672838Y5730443D01*
X4673803Y5724855D01*
X4674412Y5719013D01*
X4674616Y5712968D01*
X4674260Y5704789D01*
X4673142Y5696508D01*
X4671263Y5688025D01*
X4668621Y5679338D01*
X4665218Y5670499D01*
X4661052Y5661406D01*
X4656074Y5652109D01*
X4650282Y5642559D01*
X4643678Y5632754D01*
X4636211Y5622645D01*
X4627981Y5612282D01*
X4618837Y5601665D01*
X4608880Y5590692D01*
X4598060Y5579364D01*
X4586325Y5567730D01*
X4573727Y5555742D01*
X4560265Y5543346D01*
X4545838Y5530596D01*
X4545838Y5511800D01*
X4718558Y5511800D01*
X4718558Y5538470D01*
X4632909Y5538419D01*
X4621631Y5538165D01*
X4598416Y5536742D01*
X4592828Y5536184D01*
X4614621Y5557266D01*
X4624781Y5567680D01*
X4634433Y5577941D01*
X4643577Y5588101D01*
X4652213Y5598210D01*
X4660239Y5608218D01*
X4667656Y5618124D01*
X4674463Y5627979D01*
X4680712Y5637733D01*
X4686249Y5647486D01*
X4691126Y5657138D01*
X4695291Y5666740D01*
X4698796Y5676290D01*
X4701489Y5685840D01*
X4702606Y5690565D01*
X4704181Y5700064D01*
X4704994Y5709513D01*
X4704943Y5720283D01*
X4704486Y5726176D01*
X4703673Y5731865D01*
X4702606Y5737402D01*
X4701235Y5742686D01*
X4699558Y5747766D01*
X4697577Y5752642D01*
X4695342Y5757265D01*
X4692853Y5761685D01*
X4690059Y5765850D01*
X4687011Y5769813D01*
X4683658Y5773470D01*
X4680102Y5776925D01*
X4676241Y5780074D01*
X4672177Y5782970D01*
X4667859Y5785561D01*
X4663287Y5787898D01*
X4658461Y5789980D01*
X4653483Y5791708D01*
X4648200Y5793130D01*
X4642764Y5794298D01*
X4637074Y5795111D01*
X4631182Y5795619D01*
G37*
G36*
X4842510Y5795772D02*
G01*
X4837684Y5795619D01*
X4832908Y5795213D01*
X4828286Y5794552D01*
X4823815Y5793587D01*
X4815179Y5790844D01*
X4811064Y5789015D01*
X4807051Y5786932D01*
X4803190Y5784596D01*
X4799482Y5781954D01*
X4795875Y5779058D01*
X4792421Y5775858D01*
X4789119Y5772404D01*
X4785969Y5768644D01*
X4782972Y5764631D01*
X4780076Y5760313D01*
X4777384Y5755690D01*
X4774844Y5750814D01*
X4770221Y5740196D01*
X4766208Y5728411D01*
X4762906Y5715508D01*
X4760315Y5701436D01*
X4758436Y5686196D01*
X4757318Y5669838D01*
X4756912Y5652262D01*
X4787138Y5652262D01*
X4787239Y5662218D01*
X4788154Y5680760D01*
X4789932Y5697423D01*
X4791151Y5705094D01*
X4792573Y5712358D01*
X4794148Y5719114D01*
X4795926Y5725464D01*
X4800092Y5736844D01*
X4802428Y5741873D01*
X4804968Y5746496D01*
X4807661Y5750712D01*
X4810455Y5754522D01*
X4813503Y5757875D01*
X4816652Y5760821D01*
X4819904Y5763361D01*
X4823358Y5765546D01*
X4826965Y5767273D01*
X4830673Y5768644D01*
X4834483Y5769610D01*
X4838446Y5770168D01*
X4842510Y5770372D01*
X4846574Y5770168D01*
X4850485Y5769610D01*
X4854295Y5768644D01*
X4857953Y5767273D01*
X4861509Y5765546D01*
X4864912Y5763361D01*
X4868164Y5760821D01*
X4871313Y5757875D01*
X4874260Y5754522D01*
X4877104Y5750712D01*
X4879746Y5746496D01*
X4882235Y5741873D01*
X4884572Y5736844D01*
X4886706Y5731357D01*
X4888636Y5725464D01*
X4892040Y5712358D01*
X4893411Y5705094D01*
X4895596Y5689346D01*
X4896916Y5671718D01*
X4897272Y5662218D01*
X4897272Y5642102D01*
X4896358Y5623255D01*
X4895596Y5614517D01*
X4893411Y5598464D01*
X4892040Y5591098D01*
X4890414Y5584190D01*
X4888636Y5577738D01*
X4886706Y5571744D01*
X4884572Y5566156D01*
X4882235Y5561025D01*
X4879746Y5556351D01*
X4877104Y5552084D01*
X4874260Y5548223D01*
X4871313Y5544820D01*
X4868164Y5541822D01*
X4864912Y5539232D01*
X4861509Y5537047D01*
X4857953Y5535269D01*
X4854295Y5533898D01*
X4850485Y5532882D01*
X4846574Y5532323D01*
X4842510Y5532120D01*
X4838446Y5532323D01*
X4834483Y5532882D01*
X4830673Y5533898D01*
X4826965Y5535269D01*
X4823358Y5537047D01*
X4819904Y5539232D01*
X4816652Y5541822D01*
X4813503Y5544820D01*
X4810455Y5548223D01*
X4807661Y5552084D01*
X4804968Y5556351D01*
X4802428Y5561025D01*
X4800092Y5566156D01*
X4795926Y5577738D01*
X4794148Y5584190D01*
X4791151Y5598464D01*
X4789932Y5606237D01*
X4788154Y5623255D01*
X4787239Y5642102D01*
X4787138Y5652262D01*
X4756912Y5652262D01*
X4757318Y5634583D01*
X4758436Y5618073D01*
X4760315Y5602681D01*
X4762906Y5588457D01*
X4766208Y5575401D01*
X4770221Y5563463D01*
X4774844Y5552643D01*
X4780076Y5542991D01*
X4785969Y5534507D01*
X4789119Y5530646D01*
X4795875Y5523839D01*
X4799482Y5520893D01*
X4803190Y5518200D01*
X4807051Y5515762D01*
X4815179Y5511800D01*
X4819446Y5510276D01*
X4823815Y5509006D01*
X4828286Y5507990D01*
X4832908Y5507278D01*
X4837684Y5506872D01*
X4842510Y5506720D01*
X4847336Y5506872D01*
X4852111Y5507278D01*
X4856683Y5507990D01*
X4861204Y5509006D01*
X4865573Y5510276D01*
X4869789Y5511800D01*
X4877866Y5515762D01*
X4881727Y5518200D01*
X4885436Y5520893D01*
X4888992Y5523839D01*
X4892446Y5527141D01*
X4895697Y5530646D01*
X4898847Y5534507D01*
X4901844Y5538622D01*
X4904689Y5542991D01*
X4907381Y5547715D01*
X4912258Y5557926D01*
X4914493Y5563463D01*
X4918405Y5575401D01*
X4920132Y5581802D01*
X4923028Y5595467D01*
X4924247Y5602681D01*
X4926076Y5618073D01*
X4927244Y5634583D01*
X4927600Y5652262D01*
X4927244Y5669788D01*
X4926076Y5686145D01*
X4924247Y5701334D01*
X4921656Y5715406D01*
X4920132Y5722010D01*
X4916525Y5734354D01*
X4914493Y5740095D01*
X4909870Y5750712D01*
X4907381Y5755589D01*
X4904689Y5760212D01*
X4901844Y5764530D01*
X4898847Y5768594D01*
X4895697Y5772353D01*
X4892446Y5775807D01*
X4888992Y5779008D01*
X4885436Y5781903D01*
X4881727Y5784545D01*
X4877866Y5786932D01*
X4873904Y5789015D01*
X4869789Y5790793D01*
X4865573Y5792317D01*
X4861204Y5793587D01*
X4856683Y5794552D01*
X4852111Y5795213D01*
X4847336Y5795619D01*
G37*
G36*
X5260848Y5795772D02*
G01*
X5255971Y5795619D01*
X5251246Y5795213D01*
X5246573Y5794552D01*
X5242052Y5793587D01*
X5233416Y5790844D01*
X5229301Y5789015D01*
X5225288Y5786932D01*
X5221427Y5784596D01*
X5217718Y5781954D01*
X5214112Y5779058D01*
X5210657Y5775858D01*
X5207355Y5772404D01*
X5204206Y5768644D01*
X5201208Y5764631D01*
X5198313Y5760313D01*
X5195620Y5755690D01*
X5193080Y5750814D01*
X5188458Y5740196D01*
X5184495Y5728411D01*
X5182768Y5722112D01*
X5179872Y5708599D01*
X5177637Y5693968D01*
X5176113Y5678170D01*
X5175351Y5661202D01*
X5175250Y5652262D01*
X5205222Y5652262D01*
X5205323Y5662218D01*
X5206238Y5680760D01*
X5207050Y5689346D01*
X5208066Y5697423D01*
X5209286Y5705094D01*
X5210708Y5712358D01*
X5212283Y5719114D01*
X5214112Y5725464D01*
X5216093Y5731357D01*
X5218277Y5736844D01*
X5220665Y5741873D01*
X5223205Y5746496D01*
X5225897Y5750712D01*
X5228742Y5754522D01*
X5231739Y5757875D01*
X5234940Y5760821D01*
X5238242Y5763361D01*
X5241696Y5765546D01*
X5245252Y5767273D01*
X5248960Y5768644D01*
X5252821Y5769610D01*
X5256784Y5770168D01*
X5260848Y5770372D01*
X5264912Y5770168D01*
X5268823Y5769610D01*
X5272633Y5768644D01*
X5276291Y5767273D01*
X5279847Y5765546D01*
X5283250Y5763361D01*
X5286502Y5760821D01*
X5289651Y5757875D01*
X5292598Y5754522D01*
X5295442Y5750712D01*
X5298084Y5746496D01*
X5300573Y5741873D01*
X5302910Y5736844D01*
X5305044Y5731357D01*
X5306974Y5725464D01*
X5310378Y5712358D01*
X5311749Y5705094D01*
X5313934Y5689346D01*
X5315254Y5671718D01*
X5315610Y5662218D01*
X5315610Y5642102D01*
X5314696Y5623255D01*
X5313934Y5614517D01*
X5311749Y5598464D01*
X5310378Y5591098D01*
X5308752Y5584190D01*
X5306974Y5577738D01*
X5305044Y5571744D01*
X5302910Y5566156D01*
X5300573Y5561025D01*
X5298084Y5556351D01*
X5295442Y5552084D01*
X5292598Y5548223D01*
X5289651Y5544820D01*
X5286502Y5541822D01*
X5283250Y5539232D01*
X5279847Y5537047D01*
X5276291Y5535269D01*
X5272633Y5533898D01*
X5268823Y5532882D01*
X5264912Y5532323D01*
X5260848Y5532120D01*
X5256784Y5532323D01*
X5252821Y5532882D01*
X5248960Y5533898D01*
X5245252Y5535269D01*
X5241696Y5537047D01*
X5238242Y5539232D01*
X5234940Y5541822D01*
X5231739Y5544820D01*
X5228742Y5548223D01*
X5225897Y5552084D01*
X5223205Y5556351D01*
X5220665Y5561025D01*
X5218277Y5566156D01*
X5216093Y5571744D01*
X5214112Y5577738D01*
X5212283Y5584190D01*
X5209286Y5598464D01*
X5208066Y5606237D01*
X5206238Y5623255D01*
X5205323Y5642102D01*
X5205222Y5652262D01*
X5175250Y5652262D01*
X5175656Y5634583D01*
X5176774Y5618073D01*
X5178653Y5602681D01*
X5181244Y5588457D01*
X5182768Y5581802D01*
X5184495Y5575401D01*
X5188458Y5563463D01*
X5193080Y5552643D01*
X5198313Y5542991D01*
X5204206Y5534507D01*
X5207355Y5530646D01*
X5214112Y5523839D01*
X5217718Y5520893D01*
X5221427Y5518200D01*
X5225288Y5515762D01*
X5233416Y5511800D01*
X5237683Y5510276D01*
X5242052Y5509006D01*
X5246573Y5507990D01*
X5251246Y5507278D01*
X5255971Y5506872D01*
X5260848Y5506720D01*
X5265674Y5506872D01*
X5270449Y5507278D01*
X5275021Y5507990D01*
X5279542Y5509006D01*
X5283911Y5510276D01*
X5288127Y5511800D01*
X5296204Y5515762D01*
X5300065Y5518200D01*
X5303774Y5520893D01*
X5307330Y5523839D01*
X5310784Y5527141D01*
X5314035Y5530646D01*
X5317185Y5534507D01*
X5320182Y5538622D01*
X5323027Y5542991D01*
X5325719Y5547715D01*
X5330596Y5557926D01*
X5332831Y5563463D01*
X5336743Y5575401D01*
X5338470Y5581802D01*
X5341366Y5595467D01*
X5342585Y5602681D01*
X5344414Y5618073D01*
X5345582Y5634583D01*
X5345938Y5652262D01*
X5345582Y5669788D01*
X5344414Y5686145D01*
X5342585Y5701334D01*
X5339994Y5715406D01*
X5338470Y5722010D01*
X5334863Y5734354D01*
X5332831Y5740095D01*
X5328208Y5750712D01*
X5325719Y5755589D01*
X5323027Y5760212D01*
X5320182Y5764530D01*
X5317185Y5768594D01*
X5314035Y5772353D01*
X5310784Y5775807D01*
X5307330Y5779008D01*
X5303774Y5781903D01*
X5300065Y5784545D01*
X5296204Y5786932D01*
X5292242Y5789015D01*
X5288127Y5790793D01*
X5283911Y5792317D01*
X5279542Y5793587D01*
X5275021Y5794552D01*
X5270449Y5795213D01*
X5265674Y5795619D01*
G37*
G36*
X4090162Y5790692D02*
G01*
X4090162Y5765038D01*
X4170426Y5765038D01*
X4178655Y5764885D01*
X4186428Y5764377D01*
X4193641Y5763514D01*
X4200398Y5762294D01*
X4206646Y5760669D01*
X4212386Y5758688D01*
X4217619Y5756249D01*
X4222292Y5753404D01*
X4226458Y5750102D01*
X4230116Y5746343D01*
X4233164Y5742127D01*
X4235704Y5737402D01*
X4237685Y5732170D01*
X4239107Y5726379D01*
X4239971Y5720080D01*
X4240276Y5713222D01*
X4239971Y5706516D01*
X4239107Y5700217D01*
X4237685Y5694375D01*
X4235704Y5688939D01*
X4233164Y5684012D01*
X4230116Y5679490D01*
X4226458Y5675426D01*
X4222292Y5671769D01*
X4217619Y5668568D01*
X4212386Y5665774D01*
X4206646Y5663438D01*
X4200398Y5661507D01*
X4193641Y5660034D01*
X4186428Y5658967D01*
X4178655Y5658307D01*
X4170426Y5658104D01*
X4121658Y5658104D01*
X4121658Y5765038D01*
X4090162Y5765038D01*
X4090162Y5511800D01*
X4121658Y5511800D01*
X4121658Y5632196D01*
X4173982Y5632196D01*
X4243578Y5511800D01*
X4279138Y5511800D01*
X4207256Y5635244D01*
X4212996Y5636666D01*
X4218584Y5638342D01*
X4223918Y5640273D01*
X4228998Y5642457D01*
X4233875Y5644946D01*
X4238498Y5647639D01*
X4242866Y5650585D01*
X4246930Y5653836D01*
X4250791Y5657342D01*
X4254296Y5661101D01*
X4257548Y5665114D01*
X4260494Y5669381D01*
X4263136Y5673953D01*
X4265422Y5678728D01*
X4267403Y5683808D01*
X4269028Y5689142D01*
X4270349Y5694781D01*
X4271264Y5700674D01*
X4271822Y5706821D01*
X4272026Y5713222D01*
X4271822Y5720181D01*
X4271213Y5726734D01*
X4270197Y5732983D01*
X4268825Y5738825D01*
X4267047Y5744311D01*
X4264964Y5749442D01*
X4262475Y5754217D01*
X4259630Y5758688D01*
X4256481Y5762853D01*
X4253026Y5766663D01*
X4249216Y5770168D01*
X4245102Y5773369D01*
X4240682Y5776315D01*
X4236008Y5778906D01*
X4231030Y5781243D01*
X4225798Y5783326D01*
X4220311Y5785104D01*
X4214571Y5786628D01*
X4208627Y5787898D01*
X4195978Y5789726D01*
X4182516Y5790590D01*
G37*
G36*
X4328922Y5790692D02*
G01*
X4328922Y5765038D01*
X4401820Y5765038D01*
X4416399Y5764631D01*
X4429404Y5763310D01*
X4435398Y5762294D01*
X4440936Y5761075D01*
X4446168Y5759500D01*
X4450943Y5757722D01*
X4455414Y5755589D01*
X4459427Y5753201D01*
X4463135Y5750458D01*
X4466386Y5747410D01*
X4469282Y5744057D01*
X4471822Y5740298D01*
X4473956Y5736234D01*
X4475683Y5731764D01*
X4477054Y5726887D01*
X4478020Y5721654D01*
X4478578Y5716016D01*
X4478782Y5709920D01*
X4478578Y5703874D01*
X4478070Y5698134D01*
X4477105Y5692749D01*
X4475835Y5687720D01*
X4474159Y5683046D01*
X4472127Y5678728D01*
X4469739Y5674715D01*
X4466945Y5671007D01*
X4463745Y5667654D01*
X4460189Y5664555D01*
X4456277Y5661863D01*
X4451959Y5659424D01*
X4447235Y5657291D01*
X4442155Y5655462D01*
X4436668Y5653938D01*
X4430776Y5652668D01*
X4424527Y5651703D01*
X4417872Y5651042D01*
X4410811Y5650636D01*
X4403344Y5650484D01*
X4360672Y5650484D01*
X4360672Y5765038D01*
X4328922Y5765038D01*
X4328922Y5511800D01*
X4360672Y5511800D01*
X4360672Y5624576D01*
X4414469Y5624677D01*
X4420819Y5624982D01*
X4433011Y5626252D01*
X4444492Y5628386D01*
X4449927Y5629757D01*
X4460189Y5633161D01*
X4465015Y5635193D01*
X4474006Y5639917D01*
X4478172Y5642610D01*
X4482134Y5645505D01*
X4485792Y5648655D01*
X4489246Y5652008D01*
X4492498Y5655614D01*
X4495444Y5659374D01*
X4498136Y5663438D01*
X4500575Y5667654D01*
X4502759Y5672175D01*
X4504639Y5676849D01*
X4506264Y5681776D01*
X4507585Y5686958D01*
X4508652Y5692343D01*
X4509414Y5697982D01*
X4509871Y5703824D01*
X4510024Y5709920D01*
X4509871Y5716168D01*
X4509414Y5722162D01*
X4508652Y5727852D01*
X4507585Y5733288D01*
X4506214Y5738418D01*
X4504588Y5743244D01*
X4502658Y5747816D01*
X4500473Y5752134D01*
X4497984Y5756198D01*
X4495241Y5760008D01*
X4492244Y5763564D01*
X4488992Y5766866D01*
X4485487Y5769965D01*
X4481728Y5772810D01*
X4477766Y5775401D01*
X4473498Y5777788D01*
X4464405Y5781903D01*
X4454398Y5785154D01*
X4449064Y5786526D01*
X4437786Y5788609D01*
X4425797Y5789930D01*
X4419498Y5790387D01*
X4406392Y5790692D01*
G37*
G36*
X5072634Y5790692D02*
G01*
X4957096Y5614162D01*
X4987290Y5614162D01*
X5054854Y5714238D01*
X5063388Y5729274D01*
X5076952Y5754370D01*
X5078730Y5754370D01*
X5077206Y5729630D01*
X5076647Y5716524D01*
X5076444Y5705094D01*
X5076444Y5614162D01*
X4957096Y5614162D01*
X4954270Y5609844D01*
X4954270Y5589524D01*
X5076444Y5589524D01*
X5076444Y5511800D01*
X5105908Y5511800D01*
X5105908Y5589524D01*
X5144008Y5589524D01*
X5144008Y5614162D01*
X5105908Y5614162D01*
X5105908Y5790692D01*
G37*
G36*
X5489194Y5790692D02*
G01*
X5489194Y5511800D01*
X5517642Y5511800D01*
X5517591Y5678982D01*
X5517286Y5692140D01*
X5515914Y5720283D01*
X5513832Y5753862D01*
X5515356Y5753862D01*
X5537454Y5690362D01*
X5592318Y5540248D01*
X5614162Y5540248D01*
X5668518Y5690362D01*
X5690616Y5753862D01*
X5692140Y5753862D01*
X5690463Y5727344D01*
X5688990Y5699048D01*
X5688482Y5685434D01*
X5688330Y5672836D01*
X5688330Y5511800D01*
X5717794Y5511800D01*
X5717794Y5790692D01*
X5678932Y5790692D01*
X5624322Y5638292D01*
X5614873Y5608574D01*
X5605018Y5578856D01*
X5602986Y5578856D01*
X5585460Y5630875D01*
X5528056Y5790692D01*
G37*
G36*
X6570725Y5790692D02*
G01*
X6570725Y5765038D01*
X6643624Y5765038D01*
X6658203Y5764631D01*
X6671208Y5763310D01*
X6677202Y5762294D01*
X6682740Y5761075D01*
X6687972Y5759500D01*
X6692747Y5757722D01*
X6697218Y5755589D01*
X6701231Y5753201D01*
X6704939Y5750458D01*
X6708190Y5747410D01*
X6711086Y5744057D01*
X6713626Y5740298D01*
X6715759Y5736234D01*
X6717487Y5731764D01*
X6718858Y5726887D01*
X6719824Y5721654D01*
X6720382Y5716016D01*
X6720586Y5709920D01*
X6720382Y5703874D01*
X6719874Y5698134D01*
X6718909Y5692749D01*
X6717639Y5687720D01*
X6715963Y5683046D01*
X6713931Y5678728D01*
X6711543Y5674715D01*
X6708749Y5671007D01*
X6705549Y5667654D01*
X6701993Y5664555D01*
X6698081Y5661863D01*
X6693763Y5659424D01*
X6689039Y5657291D01*
X6683959Y5655462D01*
X6678472Y5653938D01*
X6672580Y5652668D01*
X6666331Y5651703D01*
X6659676Y5651042D01*
X6652615Y5650636D01*
X6645148Y5650484D01*
X6602475Y5650484D01*
X6602475Y5765038D01*
X6570725Y5765038D01*
X6570725Y5511800D01*
X6602475Y5511800D01*
X6602475Y5624576D01*
X6656273Y5624677D01*
X6662623Y5624982D01*
X6674815Y5626252D01*
X6686296Y5628386D01*
X6691731Y5629757D01*
X6701993Y5633161D01*
X6706819Y5635193D01*
X6715810Y5639917D01*
X6719976Y5642610D01*
X6723938Y5645505D01*
X6727596Y5648655D01*
X6731050Y5652008D01*
X6734302Y5655614D01*
X6737248Y5659374D01*
X6739940Y5663438D01*
X6742379Y5667654D01*
X6744563Y5672175D01*
X6746443Y5676849D01*
X6748068Y5681776D01*
X6749389Y5686958D01*
X6750456Y5692343D01*
X6751218Y5697982D01*
X6751675Y5703824D01*
X6751828Y5709920D01*
X6751675Y5716168D01*
X6751218Y5722162D01*
X6750456Y5727852D01*
X6749389Y5733288D01*
X6748068Y5738418D01*
X6746392Y5743244D01*
X6744512Y5747816D01*
X6742277Y5752134D01*
X6739839Y5756198D01*
X6737096Y5760008D01*
X6734098Y5763564D01*
X6730898Y5766866D01*
X6727393Y5769965D01*
X6723634Y5772810D01*
X6719671Y5775401D01*
X6715404Y5777788D01*
X6706311Y5781903D01*
X6696303Y5785154D01*
X6690969Y5786526D01*
X6679692Y5788609D01*
X6667652Y5789930D01*
X6661353Y5790387D01*
X6648196Y5790692D01*
G37*
G36*
X5868162Y5722874D02*
G01*
X5859983Y5722569D01*
X5852007Y5721705D01*
X5844286Y5720283D01*
X5836767Y5718505D01*
X5829503Y5716270D01*
X5822543Y5713780D01*
X5815888Y5710986D01*
X5803595Y5704992D01*
X5792876Y5698744D01*
X5788152Y5695696D01*
X5800852Y5674106D01*
X5809132Y5679592D01*
X5818428Y5684875D01*
X5823407Y5687364D01*
X5828588Y5689650D01*
X5833973Y5691682D01*
X5839510Y5693460D01*
X5845251Y5694934D01*
X5851144Y5696051D01*
X5857189Y5696712D01*
X5863336Y5696966D01*
X5869635Y5696661D01*
X5875375Y5695746D01*
X5880506Y5694273D01*
X5885129Y5692241D01*
X5889193Y5689752D01*
X5892800Y5686806D01*
X5895949Y5683453D01*
X5898591Y5679744D01*
X5900877Y5675731D01*
X5902756Y5671413D01*
X5904230Y5666841D01*
X5905398Y5662015D01*
X5906211Y5657088D01*
X5907024Y5646826D01*
X5907024Y5641594D01*
X5888837Y5639308D01*
X5872124Y5636564D01*
X5856884Y5633466D01*
X5843066Y5629910D01*
X5836716Y5627979D01*
X5825032Y5623712D01*
X5814771Y5618937D01*
X5810097Y5616397D01*
X5805830Y5613654D01*
X5801868Y5610809D01*
X5798261Y5607862D01*
X5794959Y5604713D01*
X5791962Y5601462D01*
X5789320Y5598007D01*
X5787034Y5594451D01*
X5785002Y5590692D01*
X5783326Y5586831D01*
X5781954Y5582767D01*
X5780887Y5578551D01*
X5780125Y5574182D01*
X5779573Y5566664D01*
X5809488Y5566664D01*
X5809691Y5570829D01*
X5810250Y5574792D01*
X5811266Y5578652D01*
X5812637Y5582310D01*
X5814517Y5585815D01*
X5816803Y5589219D01*
X5819597Y5592419D01*
X5822899Y5595467D01*
X5826709Y5598363D01*
X5831027Y5601157D01*
X5835904Y5603748D01*
X5841288Y5606237D01*
X5847334Y5608523D01*
X5853938Y5610707D01*
X5861151Y5612739D01*
X5868974Y5614619D01*
X5886653Y5617972D01*
X5896457Y5619445D01*
X5907024Y5620766D01*
X5907024Y5560568D01*
X5896864Y5551932D01*
X5891936Y5548172D01*
X5887059Y5544820D01*
X5882233Y5541873D01*
X5877407Y5539282D01*
X5872581Y5537098D01*
X5867755Y5535320D01*
X5862828Y5533898D01*
X5857849Y5532932D01*
X5852769Y5532323D01*
X5847588Y5532120D01*
X5842457Y5532323D01*
X5837529Y5532932D01*
X5832856Y5533999D01*
X5828436Y5535523D01*
X5824372Y5537555D01*
X5820714Y5540044D01*
X5817514Y5543092D01*
X5814720Y5546648D01*
X5812536Y5550763D01*
X5810859Y5555437D01*
X5809843Y5560771D01*
X5809488Y5566664D01*
X5779573Y5566664D01*
X5779820Y5558028D01*
X5780684Y5551576D01*
X5782106Y5545582D01*
X5784088Y5539943D01*
X5786577Y5534761D01*
X5789472Y5529986D01*
X5792876Y5525617D01*
X5796686Y5521706D01*
X5800902Y5518251D01*
X5805474Y5515203D01*
X5810402Y5512663D01*
X5815634Y5510530D01*
X5821172Y5508853D01*
X5826963Y5507685D01*
X5832957Y5506974D01*
X5839206Y5506720D01*
X5845657Y5506974D01*
X5851956Y5507786D01*
X5858205Y5509107D01*
X5864301Y5510834D01*
X5870295Y5513019D01*
X5876188Y5515559D01*
X5881928Y5518454D01*
X5887516Y5521655D01*
X5898337Y5528868D01*
X5908548Y5536946D01*
X5909818Y5536946D01*
X5912358Y5511800D01*
X5938012Y5511800D01*
X5938012Y5639562D01*
X5937859Y5646826D01*
X5937402Y5653887D01*
X5936640Y5660644D01*
X5935573Y5667146D01*
X5934151Y5673344D01*
X5932373Y5679287D01*
X5930290Y5684875D01*
X5927852Y5690158D01*
X5925007Y5695137D01*
X5921857Y5699709D01*
X5918301Y5703925D01*
X5914390Y5707735D01*
X5910021Y5711190D01*
X5905296Y5714187D01*
X5900166Y5716778D01*
X5894628Y5718962D01*
X5888685Y5720638D01*
X5882284Y5721858D01*
X5875426Y5722620D01*
G37*
G36*
X6087618Y5722874D02*
G01*
X6082080Y5722721D01*
X6076594Y5722264D01*
X6071158Y5721502D01*
X6065824Y5720486D01*
X6060541Y5719165D01*
X6055410Y5717540D01*
X6050381Y5715609D01*
X6045454Y5713425D01*
X6040678Y5710936D01*
X6036056Y5708192D01*
X6031585Y5705195D01*
X6027267Y5701893D01*
X6023152Y5698337D01*
X6019190Y5694476D01*
X6015431Y5690412D01*
X6011926Y5686044D01*
X6008624Y5681421D01*
X6005525Y5676595D01*
X6002680Y5671464D01*
X6000089Y5666130D01*
X5997803Y5660491D01*
X5995720Y5654649D01*
X5993993Y5648553D01*
X5992520Y5642254D01*
X5991352Y5635701D01*
X5990488Y5628894D01*
X5989980Y5621883D01*
X5989828Y5614670D01*
X5989980Y5607456D01*
X5990437Y5600496D01*
X5991199Y5593689D01*
X5992266Y5587187D01*
X5993638Y5580888D01*
X5995263Y5574792D01*
X5997143Y5569000D01*
X5999327Y5563412D01*
X6001715Y5558028D01*
X6004356Y5552948D01*
X6007252Y5548071D01*
X6010402Y5543499D01*
X6013754Y5539181D01*
X6017310Y5535066D01*
X6021120Y5531256D01*
X6025083Y5527700D01*
X6029248Y5524398D01*
X6033617Y5521401D01*
X6038138Y5518658D01*
X6042812Y5516168D01*
X6047689Y5513984D01*
X6052718Y5512054D01*
X6057849Y5510428D01*
X6063183Y5509107D01*
X6068618Y5508091D01*
X6074156Y5507329D01*
X6079794Y5506872D01*
X6085586Y5506720D01*
X6091783Y5506923D01*
X6097828Y5507532D01*
X6103823Y5508548D01*
X6109716Y5509971D01*
X6115456Y5511698D01*
X6121095Y5513832D01*
X6126581Y5516270D01*
X6131915Y5519064D01*
X6137097Y5522163D01*
X6142126Y5525516D01*
X6151626Y5533136D01*
X6137910Y5553710D01*
X6132830Y5549544D01*
X6127394Y5545582D01*
X6121552Y5542026D01*
X6115405Y5538876D01*
X6108954Y5536285D01*
X6102248Y5534304D01*
X6095288Y5533085D01*
X6088126Y5532628D01*
X6082284Y5532882D01*
X6076645Y5533593D01*
X6071209Y5534761D01*
X6066028Y5536438D01*
X6061049Y5538520D01*
X6056325Y5541060D01*
X6051854Y5543956D01*
X6047689Y5547309D01*
X6043777Y5551068D01*
X6040120Y5555183D01*
X6036767Y5559653D01*
X6033770Y5564479D01*
X6031026Y5569712D01*
X6028639Y5575198D01*
X6026607Y5581040D01*
X6024930Y5587238D01*
X6023610Y5593689D01*
X6022594Y5600395D01*
X6022035Y5607405D01*
X6021832Y5614670D01*
X6022035Y5621883D01*
X6022644Y5628792D01*
X6023711Y5635498D01*
X6025083Y5641949D01*
X6026861Y5648045D01*
X6028994Y5653887D01*
X6031484Y5659424D01*
X6034328Y5664606D01*
X6037427Y5669483D01*
X6040882Y5673953D01*
X6044590Y5678119D01*
X6048603Y5681878D01*
X6052870Y5685231D01*
X6057392Y5688228D01*
X6062116Y5690768D01*
X6067094Y5692851D01*
X6072276Y5694527D01*
X6077610Y5695746D01*
X6083198Y5696458D01*
X6088888Y5696712D01*
X6095085Y5696356D01*
X6101029Y5695289D01*
X6106668Y5693664D01*
X6112052Y5691428D01*
X6117183Y5688685D01*
X6122162Y5685485D01*
X6126937Y5681878D01*
X6131560Y5677916D01*
X6148070Y5698236D01*
X6140348Y5704636D01*
X6136233Y5707634D01*
X6127343Y5713120D01*
X6122517Y5715508D01*
X6117437Y5717641D01*
X6112103Y5719419D01*
X6106464Y5720892D01*
X6100521Y5721959D01*
X6094222Y5722620D01*
G37*
G36*
X6286246Y5722874D02*
G01*
X6280454Y5722518D01*
X6274816Y5721502D01*
X6269278Y5719826D01*
X6263894Y5717489D01*
X6258661Y5714593D01*
X6253581Y5711088D01*
X6248755Y5707075D01*
X6244082Y5702503D01*
X6239662Y5697474D01*
X6235446Y5691987D01*
X6231534Y5686044D01*
X6227826Y5679694D01*
X6226810Y5679694D01*
X6223762Y5717540D01*
X6198616Y5717540D01*
X6198616Y5511800D01*
X6229604Y5511800D01*
X6229604Y5645912D01*
X6233261Y5654395D01*
X6237173Y5661964D01*
X6241288Y5668619D01*
X6245606Y5674461D01*
X6250076Y5679490D01*
X6254699Y5683707D01*
X6259372Y5687212D01*
X6264046Y5690006D01*
X6268770Y5692089D01*
X6273393Y5693562D01*
X6277965Y5694426D01*
X6282436Y5694680D01*
X6287820Y5694476D01*
X6292545Y5693867D01*
X6297066Y5692851D01*
X6301740Y5691378D01*
X6307836Y5718302D01*
X6302806Y5720384D01*
X6297777Y5721807D01*
X6292392Y5722620D01*
G37*
G36*
X6417310Y5722874D02*
G01*
X6411925Y5722721D01*
X6406642Y5722264D01*
X6401409Y5721502D01*
X6396228Y5720486D01*
X6391148Y5719165D01*
X6386169Y5717540D01*
X6376568Y5713425D01*
X6371945Y5710936D01*
X6367475Y5708192D01*
X6363157Y5705195D01*
X6358991Y5701893D01*
X6355029Y5698337D01*
X6351219Y5694476D01*
X6347612Y5690412D01*
X6344158Y5686044D01*
X6340957Y5681421D01*
X6338011Y5676595D01*
X6335268Y5671464D01*
X6332778Y5666130D01*
X6330492Y5660491D01*
X6328511Y5654649D01*
X6326835Y5648553D01*
X6325412Y5642254D01*
X6324295Y5635701D01*
X6323482Y5628894D01*
X6322974Y5621883D01*
X6322822Y5614670D01*
X6354826Y5614670D01*
X6355029Y5621883D01*
X6355588Y5628792D01*
X6356502Y5635498D01*
X6357772Y5641949D01*
X6359398Y5648045D01*
X6361379Y5653887D01*
X6363614Y5659424D01*
X6366205Y5664606D01*
X6369100Y5669483D01*
X6372250Y5673953D01*
X6375704Y5678119D01*
X6379413Y5681878D01*
X6383375Y5685231D01*
X6387592Y5688228D01*
X6392011Y5690768D01*
X6396685Y5692851D01*
X6401562Y5694527D01*
X6406591Y5695746D01*
X6411874Y5696458D01*
X6417310Y5696712D01*
X6422796Y5696458D01*
X6428079Y5695746D01*
X6433210Y5694527D01*
X6438087Y5692851D01*
X6442811Y5690768D01*
X6447282Y5688228D01*
X6451498Y5685231D01*
X6455511Y5681878D01*
X6459220Y5678119D01*
X6462725Y5673953D01*
X6465925Y5669483D01*
X6468821Y5664606D01*
X6471412Y5659424D01*
X6473698Y5653887D01*
X6475679Y5648045D01*
X6477304Y5641949D01*
X6478625Y5635498D01*
X6479540Y5628792D01*
X6480098Y5621883D01*
X6480302Y5614670D01*
X6480098Y5607405D01*
X6479540Y5600395D01*
X6478625Y5593689D01*
X6477304Y5587238D01*
X6475679Y5581040D01*
X6473698Y5575198D01*
X6471412Y5569712D01*
X6468821Y5564479D01*
X6465925Y5559653D01*
X6462725Y5555183D01*
X6459220Y5551068D01*
X6455511Y5547309D01*
X6451498Y5543956D01*
X6447282Y5541060D01*
X6442811Y5538520D01*
X6438087Y5536438D01*
X6433210Y5534761D01*
X6428079Y5533593D01*
X6422796Y5532882D01*
X6417310Y5532628D01*
X6411874Y5532882D01*
X6406591Y5533593D01*
X6401562Y5534761D01*
X6396685Y5536438D01*
X6392011Y5538520D01*
X6387592Y5541060D01*
X6383375Y5543956D01*
X6379413Y5547309D01*
X6375704Y5551068D01*
X6372250Y5555183D01*
X6369100Y5559653D01*
X6366205Y5564479D01*
X6363614Y5569712D01*
X6361379Y5575198D01*
X6359398Y5581040D01*
X6357772Y5587238D01*
X6356502Y5593689D01*
X6355588Y5600395D01*
X6355029Y5607405D01*
X6354826Y5614670D01*
X6322822Y5614670D01*
X6322974Y5607456D01*
X6323482Y5600496D01*
X6324295Y5593689D01*
X6325412Y5587187D01*
X6326835Y5580888D01*
X6328511Y5574792D01*
X6330492Y5569000D01*
X6332778Y5563412D01*
X6335268Y5558028D01*
X6338011Y5552948D01*
X6340957Y5548071D01*
X6344158Y5543499D01*
X6351219Y5535066D01*
X6355029Y5531256D01*
X6358991Y5527700D01*
X6363157Y5524398D01*
X6367475Y5521401D01*
X6371945Y5518658D01*
X6376568Y5516168D01*
X6386169Y5512054D01*
X6391148Y5510428D01*
X6396228Y5509107D01*
X6401409Y5508091D01*
X6406642Y5507329D01*
X6411925Y5506872D01*
X6417310Y5506720D01*
X6422694Y5506872D01*
X6427978Y5507329D01*
X6433210Y5508091D01*
X6438392Y5509107D01*
X6443472Y5510428D01*
X6448501Y5512054D01*
X6453378Y5513984D01*
X6458153Y5516168D01*
X6462776Y5518658D01*
X6467297Y5521401D01*
X6471615Y5524398D01*
X6475831Y5527700D01*
X6479844Y5531256D01*
X6483654Y5535066D01*
X6487312Y5539181D01*
X6490766Y5543499D01*
X6493967Y5548071D01*
X6496964Y5552948D01*
X6499758Y5558028D01*
X6502247Y5563412D01*
X6504533Y5569000D01*
X6506514Y5574792D01*
X6508242Y5580888D01*
X6509664Y5587187D01*
X6510832Y5593689D01*
X6511645Y5600496D01*
X6512153Y5607456D01*
X6512306Y5614670D01*
X6512153Y5621883D01*
X6511645Y5628894D01*
X6510832Y5635701D01*
X6509664Y5642254D01*
X6508242Y5648553D01*
X6506514Y5654649D01*
X6504533Y5660491D01*
X6502247Y5666130D01*
X6499758Y5671464D01*
X6496964Y5676595D01*
X6493967Y5681421D01*
X6490766Y5686044D01*
X6487312Y5690412D01*
X6479844Y5698337D01*
X6475831Y5701893D01*
X6471615Y5705195D01*
X6467297Y5708192D01*
X6462776Y5710936D01*
X6458153Y5713425D01*
X6453378Y5715609D01*
X6448501Y5717540D01*
X6443472Y5719165D01*
X6438392Y5720486D01*
X6433210Y5721502D01*
X6427978Y5722264D01*
X6422694Y5722721D01*
G37*
G36*
X6863588Y5722874D02*
G01*
X6855358Y5722569D01*
X6847331Y5721705D01*
X6839559Y5720283D01*
X6831990Y5718505D01*
X6824725Y5716270D01*
X6817766Y5713780D01*
X6811111Y5710986D01*
X6804812Y5708040D01*
X6798919Y5704992D01*
X6788251Y5698744D01*
X6783578Y5695696D01*
X6796024Y5674106D01*
X6804406Y5679592D01*
X6813753Y5684875D01*
X6818731Y5687364D01*
X6823913Y5689650D01*
X6829298Y5691682D01*
X6834835Y5693460D01*
X6840575Y5694934D01*
X6846417Y5696051D01*
X6852412Y5696712D01*
X6858508Y5696966D01*
X6864858Y5696661D01*
X6870598Y5695746D01*
X6875780Y5694273D01*
X6880402Y5692241D01*
X6884517Y5689752D01*
X6888124Y5686806D01*
X6891223Y5683453D01*
X6893915Y5679744D01*
X6896150Y5675731D01*
X6898030Y5671413D01*
X6899554Y5666841D01*
X6900672Y5662015D01*
X6901535Y5657088D01*
X6902094Y5652008D01*
X6902399Y5646826D01*
X6902450Y5641594D01*
X6884263Y5639308D01*
X6867550Y5636564D01*
X6852259Y5633466D01*
X6838442Y5629910D01*
X6826046Y5625896D01*
X6820408Y5623712D01*
X6810044Y5618937D01*
X6805422Y5616397D01*
X6801103Y5613654D01*
X6797141Y5610809D01*
X6793484Y5607862D01*
X6790181Y5604713D01*
X6787235Y5601462D01*
X6784543Y5598007D01*
X6782206Y5594451D01*
X6780225Y5590692D01*
X6778498Y5586831D01*
X6777126Y5582767D01*
X6776059Y5578551D01*
X6775297Y5574182D01*
X6774745Y5566664D01*
X6804914Y5566664D01*
X6805117Y5570829D01*
X6805675Y5574792D01*
X6806641Y5578652D01*
X6808063Y5582310D01*
X6809892Y5585815D01*
X6812229Y5589219D01*
X6814972Y5592419D01*
X6818274Y5595467D01*
X6822033Y5598363D01*
X6826351Y5601157D01*
X6831228Y5603748D01*
X6836613Y5606237D01*
X6842607Y5608523D01*
X6849211Y5610707D01*
X6856475Y5612739D01*
X6864299Y5614619D01*
X6882028Y5617972D01*
X6902450Y5620766D01*
X6902450Y5560568D01*
X6892188Y5551932D01*
X6887209Y5548172D01*
X6882282Y5544820D01*
X6877456Y5541873D01*
X6872630Y5539282D01*
X6867804Y5537098D01*
X6862978Y5535320D01*
X6858101Y5533898D01*
X6853174Y5532932D01*
X6848144Y5532323D01*
X6843014Y5532120D01*
X6837832Y5532323D01*
X6832853Y5532932D01*
X6828180Y5533999D01*
X6823760Y5535523D01*
X6819696Y5537555D01*
X6816039Y5540044D01*
X6812838Y5543092D01*
X6810095Y5546648D01*
X6807911Y5550763D01*
X6806285Y5555437D01*
X6805269Y5560771D01*
X6804914Y5566664D01*
X6774745Y5566664D01*
X6774992Y5558028D01*
X6775856Y5551576D01*
X6777278Y5545582D01*
X6779259Y5539943D01*
X6781749Y5534761D01*
X6784695Y5529986D01*
X6788099Y5525617D01*
X6791909Y5521706D01*
X6796125Y5518251D01*
X6800697Y5515203D01*
X6805625Y5512663D01*
X6810908Y5510530D01*
X6816445Y5508853D01*
X6822287Y5507685D01*
X6828332Y5506974D01*
X6834631Y5506720D01*
X6841083Y5506974D01*
X6847382Y5507786D01*
X6853631Y5509107D01*
X6859727Y5510834D01*
X6865721Y5513019D01*
X6871563Y5515559D01*
X6877354Y5518454D01*
X6882942Y5521655D01*
X6893763Y5528868D01*
X6903974Y5536946D01*
X6904990Y5536946D01*
X6907784Y5511800D01*
X6933184Y5511800D01*
X6933184Y5639562D01*
X6933031Y5646826D01*
X6932574Y5653887D01*
X6931812Y5660644D01*
X6930745Y5667146D01*
X6929323Y5673344D01*
X6927545Y5679287D01*
X6925462Y5684875D01*
X6923024Y5690158D01*
X6920230Y5695137D01*
X6917029Y5699709D01*
X6913524Y5703925D01*
X6909612Y5707735D01*
X6905294Y5711190D01*
X6900570Y5714187D01*
X6895490Y5716778D01*
X6889953Y5718962D01*
X6884009Y5720638D01*
X6877659Y5721858D01*
X6870852Y5722620D01*
G37*
D10*
X11805411Y11076927D02*
G01*
X11805411Y10998949D01*
X11810491Y10983455D01*
X11820906Y10973041D01*
X11836654Y10967961D01*
X11847068Y10967961D01*
X11862561Y10973041D01*
X11872975Y10983455D01*
X11878056Y10998949D01*
X11878056Y11076927D01*
X11917679Y11051019D02*
G01*
X11917679Y11056099D01*
X11922759Y11066513D01*
X11928093Y11071847D01*
X11938508Y11076927D01*
X11959081Y11076927D01*
X11969495Y11071847D01*
X11974829Y11066513D01*
X11979909Y11056099D01*
X11979909Y11045685D01*
X11974829Y11035271D01*
X11964415Y11019777D01*
X11912345Y10967961D01*
X11985243Y10967961D01*
X6427977Y6477533D02*
G01*
X6422643Y6487947D01*
X6412229Y6498361D01*
X6402070Y6503441D01*
X6381241Y6503441D01*
X6370827Y6498361D01*
X6360413Y6487947D01*
X6355079Y6477533D01*
X6350000Y6461785D01*
X6350000Y6435877D01*
X6355079Y6420383D01*
X6360413Y6409969D01*
X6370827Y6399555D01*
X6381241Y6394221D01*
X6402070Y6394221D01*
X6412229Y6399555D01*
X6422643Y6409969D01*
X6427977Y6420383D01*
X6427977Y6435877D01*
X6402070Y6435877D02*
G01*
X6427977Y6435877D01*
X6462268Y6503441D02*
G01*
X6462268Y6394221D01*
X6462268Y6503441D02*
G01*
X6509004Y6503441D01*
X6524497Y6498361D01*
X6529831Y6493027D01*
X6534911Y6482613D01*
X6534911Y6467119D01*
X6529831Y6456705D01*
X6524497Y6451371D01*
X6509004Y6446291D01*
X6462268Y6446291D01*
X6569202Y6503441D02*
G01*
X6569202Y6394221D01*
X6634734Y6503441D02*
G01*
X6624320Y6498361D01*
X6613906Y6487947D01*
X6608825Y6477533D01*
X6603491Y6461785D01*
X6603491Y6435877D01*
X6608825Y6420383D01*
X6613906Y6409969D01*
X6624320Y6399555D01*
X6634734Y6394221D01*
X6655561Y6394221D01*
X6665975Y6399555D01*
X6676390Y6409969D01*
X6681470Y6420383D01*
X6686550Y6435877D01*
X6686550Y6461785D01*
X6681470Y6477533D01*
X6676390Y6487947D01*
X6665975Y6498361D01*
X6655561Y6503441D01*
X6634734Y6503441D01*
X6752081Y6503441D02*
G01*
X6736588Y6498361D01*
X6726174Y6482613D01*
X6720840Y6456705D01*
X6720840Y6441211D01*
X6726174Y6415049D01*
X6736588Y6399555D01*
X6752081Y6394221D01*
X6762495Y6394221D01*
X6777990Y6399555D01*
X6788404Y6415049D01*
X6793738Y6441211D01*
X6793738Y6456705D01*
X6788404Y6482613D01*
X6777990Y6498361D01*
X6762495Y6503441D01*
X6752081Y6503441D01*
D11*
X6122670Y7887970D02*
G01*
X6122670Y8012684D01*
X6184900Y7950454D02*
G01*
X6060186Y7950454D01*
X5577840Y7950454D02*
G01*
X5453125Y7950454D01*
D10*
X8409177Y6477533D02*
G01*
X8403843Y6487947D01*
X8393429Y6498361D01*
X8383270Y6503441D01*
X8362441Y6503441D01*
X8352027Y6498361D01*
X8341613Y6487947D01*
X8336279Y6477533D01*
X8331200Y6461785D01*
X8331200Y6435877D01*
X8336279Y6420383D01*
X8341613Y6409969D01*
X8352027Y6399555D01*
X8362441Y6394221D01*
X8383270Y6394221D01*
X8393429Y6399555D01*
X8403843Y6409969D01*
X8409177Y6420383D01*
X8409177Y6435877D01*
X8383270Y6435877D02*
G01*
X8409177Y6435877D01*
X8443468Y6503441D02*
G01*
X8443468Y6394221D01*
X8443468Y6503441D02*
G01*
X8490204Y6503441D01*
X8505697Y6498361D01*
X8511031Y6493027D01*
X8516111Y6482613D01*
X8516111Y6467119D01*
X8511031Y6456705D01*
X8505697Y6451371D01*
X8490204Y6446291D01*
X8443468Y6446291D01*
X8550402Y6503441D02*
G01*
X8550402Y6394221D01*
X8615934Y6503441D02*
G01*
X8605520Y6498361D01*
X8595106Y6487947D01*
X8590025Y6477533D01*
X8584691Y6461785D01*
X8584691Y6435877D01*
X8590025Y6420383D01*
X8595106Y6409969D01*
X8605520Y6399555D01*
X8615934Y6394221D01*
X8636761Y6394221D01*
X8647175Y6399555D01*
X8657590Y6409969D01*
X8662670Y6420383D01*
X8667750Y6435877D01*
X8667750Y6461785D01*
X8662670Y6477533D01*
X8657590Y6487947D01*
X8647175Y6498361D01*
X8636761Y6503441D01*
X8615934Y6503441D01*
X8702040Y6482613D02*
G01*
X8712454Y6487947D01*
X8728202Y6503441D01*
X8728202Y6394221D01*
D11*
X8065770Y7887970D02*
G01*
X8065770Y8012684D01*
X8128000Y7950454D02*
G01*
X8003286Y7950454D01*
X7520940Y7950454D02*
G01*
X7396225Y7950454D01*
D10*
X10301477Y6477533D02*
G01*
X10296143Y6487947D01*
X10285729Y6498361D01*
X10275570Y6503441D01*
X10254741Y6503441D01*
X10244327Y6498361D01*
X10233913Y6487947D01*
X10228579Y6477533D01*
X10223500Y6461785D01*
X10223500Y6435877D01*
X10228579Y6420383D01*
X10233913Y6409969D01*
X10244327Y6399555D01*
X10254741Y6394221D01*
X10275570Y6394221D01*
X10285729Y6399555D01*
X10296143Y6409969D01*
X10301477Y6420383D01*
X10301477Y6435877D01*
X10275570Y6435877D02*
G01*
X10301477Y6435877D01*
X10335768Y6503441D02*
G01*
X10335768Y6394221D01*
X10335768Y6503441D02*
G01*
X10382504Y6503441D01*
X10397997Y6498361D01*
X10403331Y6493027D01*
X10408411Y6482613D01*
X10408411Y6467119D01*
X10403331Y6456705D01*
X10397997Y6451371D01*
X10382504Y6446291D01*
X10335768Y6446291D01*
X10442702Y6503441D02*
G01*
X10442702Y6394221D01*
X10508234Y6503441D02*
G01*
X10497820Y6498361D01*
X10487406Y6487947D01*
X10482325Y6477533D01*
X10476991Y6461785D01*
X10476991Y6435877D01*
X10482325Y6420383D01*
X10487406Y6409969D01*
X10497820Y6399555D01*
X10508234Y6394221D01*
X10529061Y6394221D01*
X10539475Y6399555D01*
X10549890Y6409969D01*
X10554970Y6420383D01*
X10560050Y6435877D01*
X10560050Y6461785D01*
X10554970Y6477533D01*
X10549890Y6487947D01*
X10539475Y6498361D01*
X10529061Y6503441D01*
X10508234Y6503441D01*
X10599674Y6477533D02*
G01*
X10599674Y6482613D01*
X10604754Y6493027D01*
X10610088Y6498361D01*
X10620502Y6503441D01*
X10641329Y6503441D01*
X10651490Y6498361D01*
X10656824Y6493027D01*
X10661904Y6482613D01*
X10661904Y6472199D01*
X10656824Y6461785D01*
X10646409Y6446291D01*
X10594340Y6394221D01*
X10667238Y6394221D01*
D11*
X10008870Y7887970D02*
G01*
X10008870Y8012684D01*
X10071100Y7950454D02*
G01*
X9946386Y7950454D01*
X9464040Y7950454D02*
G01*
X9339325Y7950454D01*
D10*
X9895077Y10541533D02*
G01*
X9889743Y10551947D01*
X9879329Y10562361D01*
X9869170Y10567441D01*
X9848341Y10567441D01*
X9837927Y10562361D01*
X9827513Y10551947D01*
X9822179Y10541533D01*
X9817100Y10525785D01*
X9817100Y10499877D01*
X9822179Y10484383D01*
X9827513Y10473969D01*
X9837927Y10463555D01*
X9848341Y10458221D01*
X9869170Y10458221D01*
X9879329Y10463555D01*
X9889743Y10473969D01*
X9895077Y10484383D01*
X9895077Y10499877D01*
X9869170Y10499877D02*
G01*
X9895077Y10499877D01*
X9929368Y10567441D02*
G01*
X9929368Y10458221D01*
X9929368Y10567441D02*
G01*
X9976104Y10567441D01*
X9991597Y10562361D01*
X9996931Y10557027D01*
X10002011Y10546613D01*
X10002011Y10531119D01*
X9996931Y10520705D01*
X9991597Y10515371D01*
X9976104Y10510291D01*
X9929368Y10510291D01*
X10036302Y10567441D02*
G01*
X10036302Y10458221D01*
X10101834Y10567441D02*
G01*
X10091420Y10562361D01*
X10081006Y10551947D01*
X10075925Y10541533D01*
X10070591Y10525785D01*
X10070591Y10499877D01*
X10075925Y10484383D01*
X10081006Y10473969D01*
X10091420Y10463555D01*
X10101834Y10458221D01*
X10122661Y10458221D01*
X10133075Y10463555D01*
X10143490Y10473969D01*
X10148570Y10484383D01*
X10153650Y10499877D01*
X10153650Y10525785D01*
X10148570Y10541533D01*
X10143490Y10551947D01*
X10133075Y10562361D01*
X10122661Y10567441D01*
X10101834Y10567441D01*
X10198354Y10567441D02*
G01*
X10255504Y10567441D01*
X10224515Y10525785D01*
X10240009Y10525785D01*
X10250424Y10520705D01*
X10255504Y10515371D01*
X10260838Y10499877D01*
X10260838Y10489463D01*
X10255504Y10473969D01*
X10245090Y10463555D01*
X10229595Y10458221D01*
X10214102Y10458221D01*
X10198354Y10463555D01*
X10193274Y10468635D01*
X10187940Y10479049D01*
D11*
X10008870Y9831070D02*
G01*
X10008870Y9955784D01*
X10071100Y9893554D02*
G01*
X9946386Y9893554D01*
X9464040Y9893554D02*
G01*
X9339325Y9893554D01*
D10*
X8358377Y10541533D02*
G01*
X8353043Y10551947D01*
X8342629Y10562361D01*
X8332470Y10567441D01*
X8311641Y10567441D01*
X8301227Y10562361D01*
X8290813Y10551947D01*
X8285479Y10541533D01*
X8280400Y10525785D01*
X8280400Y10499877D01*
X8285479Y10484383D01*
X8290813Y10473969D01*
X8301227Y10463555D01*
X8311641Y10458221D01*
X8332470Y10458221D01*
X8342629Y10463555D01*
X8353043Y10473969D01*
X8358377Y10484383D01*
X8358377Y10499877D01*
X8332470Y10499877D02*
G01*
X8358377Y10499877D01*
X8392668Y10567441D02*
G01*
X8392668Y10458221D01*
X8392668Y10567441D02*
G01*
X8439404Y10567441D01*
X8454897Y10562361D01*
X8460231Y10557027D01*
X8465311Y10546613D01*
X8465311Y10531119D01*
X8460231Y10520705D01*
X8454897Y10515371D01*
X8439404Y10510291D01*
X8392668Y10510291D01*
X8499602Y10567441D02*
G01*
X8499602Y10458221D01*
X8565134Y10567441D02*
G01*
X8554720Y10562361D01*
X8544306Y10551947D01*
X8539225Y10541533D01*
X8533891Y10525785D01*
X8533891Y10499877D01*
X8539225Y10484383D01*
X8544306Y10473969D01*
X8554720Y10463555D01*
X8565134Y10458221D01*
X8585961Y10458221D01*
X8596375Y10463555D01*
X8606790Y10473969D01*
X8611870Y10484383D01*
X8616950Y10499877D01*
X8616950Y10525785D01*
X8611870Y10541533D01*
X8606790Y10551947D01*
X8596375Y10562361D01*
X8585961Y10567441D01*
X8565134Y10567441D01*
X8703309Y10567441D02*
G01*
X8651240Y10494797D01*
X8729218Y10494797D01*
X8703309Y10567441D02*
G01*
X8703309Y10458221D01*
D11*
X8065770Y9831070D02*
G01*
X8065770Y9955784D01*
X8128000Y9893554D02*
G01*
X8003286Y9893554D01*
X7520940Y9893554D02*
G01*
X7396225Y9893554D01*
D10*
X4472177Y6477533D02*
G01*
X4466843Y6487947D01*
X4456429Y6498361D01*
X4446270Y6503441D01*
X4425441Y6503441D01*
X4415027Y6498361D01*
X4404613Y6487947D01*
X4399279Y6477533D01*
X4394200Y6461785D01*
X4394200Y6435877D01*
X4399279Y6420383D01*
X4404613Y6409969D01*
X4415027Y6399555D01*
X4425441Y6394221D01*
X4446270Y6394221D01*
X4456429Y6399555D01*
X4466843Y6409969D01*
X4472177Y6420383D01*
X4472177Y6435877D01*
X4446270Y6435877D02*
G01*
X4472177Y6435877D01*
X4506468Y6503441D02*
G01*
X4506468Y6394221D01*
X4506468Y6503441D02*
G01*
X4553204Y6503441D01*
X4568697Y6498361D01*
X4574031Y6493027D01*
X4579111Y6482613D01*
X4579111Y6467119D01*
X4574031Y6456705D01*
X4568697Y6451371D01*
X4553204Y6446291D01*
X4506468Y6446291D01*
X4613402Y6503441D02*
G01*
X4613402Y6394221D01*
X4678934Y6503441D02*
G01*
X4668520Y6498361D01*
X4658106Y6487947D01*
X4653025Y6477533D01*
X4647691Y6461785D01*
X4647691Y6435877D01*
X4653025Y6420383D01*
X4658106Y6409969D01*
X4668520Y6399555D01*
X4678934Y6394221D01*
X4699761Y6394221D01*
X4710175Y6399555D01*
X4720590Y6409969D01*
X4725670Y6420383D01*
X4730750Y6435877D01*
X4730750Y6461785D01*
X4725670Y6477533D01*
X4720590Y6487947D01*
X4710175Y6498361D01*
X4699761Y6503441D01*
X4678934Y6503441D01*
X4837938Y6503441D02*
G01*
X4785868Y6394221D01*
X4765040Y6503441D02*
G01*
X4837938Y6503441D01*
D11*
X4179570Y7887970D02*
G01*
X4179570Y8012684D01*
X4241800Y7950454D02*
G01*
X4117086Y7950454D01*
X3634740Y7950454D02*
G01*
X3510025Y7950454D01*
D10*
X6313677Y10541533D02*
G01*
X6308343Y10551947D01*
X6297929Y10562361D01*
X6287770Y10567441D01*
X6266941Y10567441D01*
X6256527Y10562361D01*
X6246113Y10551947D01*
X6240779Y10541533D01*
X6235700Y10525785D01*
X6235700Y10499877D01*
X6240779Y10484383D01*
X6246113Y10473969D01*
X6256527Y10463555D01*
X6266941Y10458221D01*
X6287770Y10458221D01*
X6297929Y10463555D01*
X6308343Y10473969D01*
X6313677Y10484383D01*
X6313677Y10499877D01*
X6287770Y10499877D02*
G01*
X6313677Y10499877D01*
X6347968Y10567441D02*
G01*
X6347968Y10458221D01*
X6347968Y10567441D02*
G01*
X6394704Y10567441D01*
X6410197Y10562361D01*
X6415531Y10557027D01*
X6420611Y10546613D01*
X6420611Y10531119D01*
X6415531Y10520705D01*
X6410197Y10515371D01*
X6394704Y10510291D01*
X6347968Y10510291D01*
X6454902Y10567441D02*
G01*
X6454902Y10458221D01*
X6520434Y10567441D02*
G01*
X6510020Y10562361D01*
X6499606Y10551947D01*
X6494525Y10541533D01*
X6489191Y10525785D01*
X6489191Y10499877D01*
X6494525Y10484383D01*
X6499606Y10473969D01*
X6510020Y10463555D01*
X6520434Y10458221D01*
X6541261Y10458221D01*
X6551675Y10463555D01*
X6562090Y10473969D01*
X6567170Y10484383D01*
X6572250Y10499877D01*
X6572250Y10525785D01*
X6567170Y10541533D01*
X6562090Y10551947D01*
X6551675Y10562361D01*
X6541261Y10567441D01*
X6520434Y10567441D01*
X6611874Y10541533D02*
G01*
X6611874Y10546613D01*
X6616954Y10557027D01*
X6622288Y10562361D01*
X6632702Y10567441D01*
X6653529Y10567441D01*
X6663690Y10562361D01*
X6669024Y10557027D01*
X6674104Y10546613D01*
X6674104Y10536199D01*
X6669024Y10525785D01*
X6658609Y10510291D01*
X6606540Y10458221D01*
X6679438Y10458221D01*
X6775958Y10551947D02*
G01*
X6770877Y10562361D01*
X6755129Y10567441D01*
X6744970Y10567441D01*
X6729222Y10562361D01*
X6718808Y10546613D01*
X6713727Y10520705D01*
X6713727Y10494797D01*
X6718808Y10473969D01*
X6729222Y10463555D01*
X6744970Y10458221D01*
X6750050Y10458221D01*
X6765543Y10463555D01*
X6775958Y10473969D01*
X6781291Y10489463D01*
X6781291Y10494797D01*
X6775958Y10510291D01*
X6765543Y10520705D01*
X6750050Y10525785D01*
X6744970Y10525785D01*
X6729222Y10520705D01*
X6718808Y10510291D01*
X6713727Y10494797D01*
D11*
X6122670Y9831070D02*
G01*
X6122670Y9955784D01*
X6184900Y9893554D02*
G01*
X6060186Y9893554D01*
X5577840Y9893554D02*
G01*
X5453125Y9893554D01*
D10*
X11965177Y6490233D02*
G01*
X11959843Y6500647D01*
X11949429Y6511061D01*
X11939270Y6516141D01*
X11918441Y6516141D01*
X11908027Y6511061D01*
X11897613Y6500647D01*
X11892279Y6490233D01*
X11887200Y6474485D01*
X11887200Y6448577D01*
X11892279Y6433083D01*
X11897613Y6422669D01*
X11908027Y6412255D01*
X11918441Y6406921D01*
X11939270Y6406921D01*
X11949429Y6412255D01*
X11959843Y6422669D01*
X11965177Y6433083D01*
X11965177Y6448577D01*
X11939270Y6448577D02*
G01*
X11965177Y6448577D01*
X11999468Y6516141D02*
G01*
X11999468Y6406921D01*
X11999468Y6516141D02*
G01*
X12046204Y6516141D01*
X12061697Y6511061D01*
X12067031Y6505727D01*
X12072111Y6495313D01*
X12072111Y6479819D01*
X12067031Y6469405D01*
X12061697Y6464071D01*
X12046204Y6458991D01*
X11999468Y6458991D01*
X12106402Y6516141D02*
G01*
X12106402Y6406921D01*
X12171934Y6516141D02*
G01*
X12161520Y6511061D01*
X12151106Y6500647D01*
X12146025Y6490233D01*
X12140691Y6474485D01*
X12140691Y6448577D01*
X12146025Y6433083D01*
X12151106Y6422669D01*
X12161520Y6412255D01*
X12171934Y6406921D01*
X12192761Y6406921D01*
X12203175Y6412255D01*
X12213590Y6422669D01*
X12218670Y6433083D01*
X12223750Y6448577D01*
X12223750Y6474485D01*
X12218670Y6490233D01*
X12213590Y6500647D01*
X12203175Y6511061D01*
X12192761Y6516141D01*
X12171934Y6516141D01*
X12263374Y6490233D02*
G01*
X12263374Y6495313D01*
X12268454Y6505727D01*
X12273788Y6511061D01*
X12284202Y6516141D01*
X12305029Y6516141D01*
X12315190Y6511061D01*
X12320524Y6505727D01*
X12325604Y6495313D01*
X12325604Y6484899D01*
X12320524Y6474485D01*
X12310109Y6458991D01*
X12258040Y6406921D01*
X12330938Y6406921D01*
X12437872Y6516141D02*
G01*
X12386056Y6406921D01*
X12365227Y6516141D02*
G01*
X12437872Y6516141D01*
D11*
X11951970Y7887970D02*
G01*
X11951970Y8012684D01*
X12014200Y7950454D02*
G01*
X11889486Y7950454D01*
X11407140Y7950454D02*
G01*
X11282425Y7950454D01*
D10*
X4370577Y10541533D02*
G01*
X4365243Y10551947D01*
X4354829Y10562361D01*
X4344670Y10567441D01*
X4323841Y10567441D01*
X4313427Y10562361D01*
X4303013Y10551947D01*
X4297679Y10541533D01*
X4292600Y10525785D01*
X4292600Y10499877D01*
X4297679Y10484383D01*
X4303013Y10473969D01*
X4313427Y10463555D01*
X4323841Y10458221D01*
X4344670Y10458221D01*
X4354829Y10463555D01*
X4365243Y10473969D01*
X4370577Y10484383D01*
X4370577Y10499877D01*
X4344670Y10499877D02*
G01*
X4370577Y10499877D01*
X4404868Y10567441D02*
G01*
X4404868Y10458221D01*
X4404868Y10567441D02*
G01*
X4451604Y10567441D01*
X4467097Y10562361D01*
X4472431Y10557027D01*
X4477511Y10546613D01*
X4477511Y10531119D01*
X4472431Y10520705D01*
X4467097Y10515371D01*
X4451604Y10510291D01*
X4404868Y10510291D01*
X4511802Y10567441D02*
G01*
X4511802Y10458221D01*
X4577334Y10567441D02*
G01*
X4566920Y10562361D01*
X4556506Y10551947D01*
X4551425Y10541533D01*
X4546091Y10525785D01*
X4546091Y10499877D01*
X4551425Y10484383D01*
X4556506Y10473969D01*
X4566920Y10463555D01*
X4577334Y10458221D01*
X4598161Y10458221D01*
X4608575Y10463555D01*
X4618990Y10473969D01*
X4624070Y10484383D01*
X4629150Y10499877D01*
X4629150Y10525785D01*
X4624070Y10541533D01*
X4618990Y10551947D01*
X4608575Y10562361D01*
X4598161Y10567441D01*
X4577334Y10567441D01*
X4736338Y10551947D02*
G01*
X4725924Y10562361D01*
X4710429Y10567441D01*
X4689602Y10567441D01*
X4673854Y10562361D01*
X4663440Y10551947D01*
X4663440Y10541533D01*
X4668774Y10531119D01*
X4673854Y10525785D01*
X4684268Y10520705D01*
X4715509Y10510291D01*
X4725924Y10505211D01*
X4731004Y10499877D01*
X4736338Y10489463D01*
X4736338Y10473969D01*
X4725924Y10463555D01*
X4710429Y10458221D01*
X4689602Y10458221D01*
X4673854Y10463555D01*
X4663440Y10473969D01*
X4832858Y10551947D02*
G01*
X4827777Y10562361D01*
X4812029Y10567441D01*
X4801870Y10567441D01*
X4786122Y10562361D01*
X4775708Y10546613D01*
X4770627Y10520705D01*
X4770627Y10494797D01*
X4775708Y10473969D01*
X4786122Y10463555D01*
X4801870Y10458221D01*
X4806950Y10458221D01*
X4822443Y10463555D01*
X4832858Y10473969D01*
X4838191Y10489463D01*
X4838191Y10494797D01*
X4832858Y10510291D01*
X4822443Y10520705D01*
X4806950Y10525785D01*
X4801870Y10525785D01*
X4786122Y10520705D01*
X4775708Y10510291D01*
X4770627Y10494797D01*
D11*
X4179570Y9831070D02*
G01*
X4179570Y9955784D01*
X4241800Y9893554D02*
G01*
X4117086Y9893554D01*
X3634740Y9893554D02*
G01*
X3510025Y9893554D01*
D12*
X12714224Y10562323D02*
G01*
X12714224Y10742155D01*
X11002263Y10742155D01*
X10936224Y10676115D01*
X10935241Y10674037D01*
X12714239Y10308369D02*
G01*
X12714239Y10344853D01*
X12714239Y10054369D02*
G01*
X12714239Y10090853D01*
X12714239Y9800369D02*
G01*
X12714239Y9836853D01*
X12714239Y9546369D02*
G01*
X12714239Y9582853D01*
X12714239Y9292369D02*
G01*
X12714239Y9328853D01*
X12714239Y9038369D02*
G01*
X12714239Y9074853D01*
X10935241Y8822072D02*
G01*
X10935241Y8642042D01*
X12714239Y8642042D01*
X12714239Y8820853D01*
X10935241Y9076072D02*
G01*
X10935241Y9037149D01*
X10935241Y9330072D02*
G01*
X10935241Y9291149D01*
X10935241Y9584072D02*
G01*
X10935241Y9545149D01*
X10935241Y9838072D02*
G01*
X10935241Y9799149D01*
X10935241Y10092072D02*
G01*
X10935241Y10053149D01*
X10935241Y10346072D02*
G01*
X10935241Y10307149D01*
X10935241Y10674037D02*
G01*
X10935241Y10561149D01*
D13*
X12141200Y8705329D02*
G01*
X11569700Y8705329D01*
X11569700Y8959329D01*
X12141200Y8959329D01*
X12141200Y8705329D01*
X12344400Y10483329D02*
G01*
X12166600Y10483329D01*
X12166600Y10750029D01*
X12344400Y10750029D01*
X12344400Y10483329D01*
X12344400Y10076675D02*
G01*
X12166600Y10076675D01*
X12166600Y10343629D01*
X12344400Y10343629D01*
X12344400Y10076675D01*
X12077700Y10419829D02*
G01*
X11569700Y10419829D01*
X11569700Y10673829D01*
X12077700Y10673829D01*
X12077700Y10419829D01*
X11480800Y10076675D02*
G01*
X11303000Y10076675D01*
X11303000Y10343629D01*
X11480800Y10343629D01*
X11480800Y10076675D01*
X11480800Y10483329D02*
G01*
X11303000Y10483329D01*
X11303000Y10750029D01*
X11480800Y10750029D01*
X11480800Y10483329D01*
D12*
X11374627Y10884141D02*
G01*
X12274041Y10884141D01*
X12274041Y10148811D01*
X11374120Y10148811D01*
X11374120Y10884141D01*
D14*
X6212840Y7259065D02*
G01*
X5958840Y7005065D01*
X5577840Y7005065D02*
G01*
X5908040Y7132065D01*
X6441440Y6839965D02*
G01*
X5222240Y6839965D01*
X5222240Y8186165D01*
X6441440Y8186165D01*
X6441440Y6839965D01*
X8155940Y7259065D02*
G01*
X7901940Y7005065D01*
X7520940Y7005065D02*
G01*
X7851140Y7132065D01*
X8384540Y6839965D02*
G01*
X7165340Y6839965D01*
X7165340Y8186165D01*
X8384540Y8186165D01*
X8384540Y6839965D01*
X10099040Y7259065D02*
G01*
X9845040Y7005065D01*
X9464040Y7005065D02*
G01*
X9794240Y7132065D01*
X10327640Y6839965D02*
G01*
X9108440Y6839965D01*
X9108440Y8186165D01*
X10327640Y8186165D01*
X10327640Y6839965D01*
X10099040Y9202165D02*
G01*
X9845040Y8948165D01*
X9464040Y8948165D02*
G01*
X9794240Y9075165D01*
X10327640Y8783065D02*
G01*
X9108440Y8783065D01*
X9108440Y10129265D01*
X10327640Y10129265D01*
X10327640Y8783065D01*
X8155940Y9202165D02*
G01*
X7901940Y8948165D01*
X7520940Y8948165D02*
G01*
X7851140Y9075165D01*
X8384540Y8783065D02*
G01*
X7165340Y8783065D01*
X7165340Y10129265D01*
X8384540Y10129265D01*
X8384540Y8783065D01*
X4269740Y7259065D02*
G01*
X4015740Y7005065D01*
X3634740Y7005065D02*
G01*
X3964940Y7132065D01*
X4498340Y6839965D02*
G01*
X3279140Y6839965D01*
X3279140Y8186165D01*
X4498340Y8186165D01*
X4498340Y6839965D01*
X6212840Y9202165D02*
G01*
X5958840Y8948165D01*
X5577840Y8948165D02*
G01*
X5908040Y9075165D01*
X6441440Y8783065D02*
G01*
X5222240Y8783065D01*
X5222240Y10129265D01*
X6441440Y10129265D01*
X6441440Y8783065D01*
X12042140Y7259065D02*
G01*
X11788140Y7005065D01*
X11407140Y7005065D02*
G01*
X11737340Y7132065D01*
X12270740Y6839965D02*
G01*
X11051540Y6839965D01*
X11051540Y8186165D01*
X12270740Y8186165D01*
X12270740Y6839965D01*
X4269740Y9202165D02*
G01*
X4015740Y8948165D01*
X3634740Y8948165D02*
G01*
X3964940Y9075165D01*
X4498340Y8783065D02*
G01*
X3279140Y8783065D01*
X3279140Y10129265D01*
X4498340Y10129265D01*
X4498340Y8783065D01*
M02*
