G04 Layer: TopLayer*
G04 EasyEDA v6.5.34, 2023-09-07 19:38:45*
G04 9ee9bf4eaa3c4749808be0ecbaf77966,1ae14fa7f5aa486887b2aa5280da83c0,10*
G04 Gerber Generator version 0.2*
G04 Scale: 100 percent, Rotated: No, Reflected: No *
G04 Dimensions in millimeters *
G04 leading zeros omitted , absolute positions ,4 integer and 5 decimal *
%FSLAX45Y45*%
%MOMM*%

%ADD10C,0.4000*%
%ADD11O,1.016X2.032*%
%ADD12C,1.1430*%
%ADD13C,2.0320*%
%ADD14C,3.2258*%
%ADD15C,0.6100*%
%ADD16C,0.0194*%

%LPD*%
D10*
X4015740Y9964165D02*
G01*
X4166209Y9813696D01*
X5808370Y9813696D01*
X5958840Y9964165D01*
X9845040Y7883397D02*
G01*
X9845040Y8021065D01*
X11788140Y8021065D02*
G01*
X11650472Y7883397D01*
X9845040Y7883397D01*
X9845040Y7883397D02*
G01*
X8039608Y7883397D01*
X7901940Y8021065D01*
X7901940Y9964165D02*
G01*
X7764957Y9827183D01*
X6095822Y9827183D01*
X5958840Y9964165D01*
X11627586Y9269552D02*
G01*
X11483720Y9413417D01*
X11483720Y9586645D01*
X11843131Y9946055D01*
X12672034Y9946055D01*
X3634740Y7005065D02*
G01*
X5577840Y7005065D01*
X11407140Y7005065D02*
G01*
X9464040Y7005065D01*
X9464040Y7005065D02*
G01*
X7520940Y7005065D01*
X7520940Y7005065D02*
G01*
X5577840Y7005065D01*
X7830616Y10453624D02*
G01*
X10980445Y10453624D01*
X10980420Y9184055D02*
G01*
X10817123Y9184055D01*
X10384561Y8751493D01*
X6020765Y8751493D01*
X4528337Y7259065D01*
X4269740Y7259065D01*
X4269740Y9202165D02*
G01*
X4684268Y9202165D01*
X5178196Y9696094D01*
X10207396Y9696094D01*
X10465434Y9438055D01*
X10980420Y9438055D01*
X11557609Y9563404D02*
G01*
X11686260Y9692055D01*
X12672034Y9692055D01*
X10099040Y7259065D02*
G01*
X10513568Y7259065D01*
X11044986Y7790484D01*
X12070486Y7790484D01*
X9521063Y8218525D02*
G01*
X11961495Y8218525D01*
X12672034Y8929065D01*
X6212840Y7259065D02*
G01*
X6692290Y7259065D01*
X7846466Y8413242D01*
X10463606Y8413242D01*
X10980420Y8930055D01*
D11*
G01*
X11704700Y8821839D03*
G01*
X11959691Y8821839D03*
D12*
G01*
X11704574Y10522242D03*
G01*
X11704574Y10268242D03*
G01*
X11958574Y10268242D03*
G01*
X11958574Y10522242D03*
G36*
X12596987Y10353662D02*
G01*
X12592006Y10353786D01*
X12587036Y10354160D01*
X12582090Y10354779D01*
X12577183Y10355643D01*
X12572324Y10356753D01*
X12567526Y10358102D01*
X12562804Y10359689D01*
X12558163Y10361510D01*
X12553622Y10363560D01*
X12549187Y10365833D01*
X12544872Y10368325D01*
X12540683Y10371030D01*
X12536637Y10373939D01*
X12532740Y10377045D01*
X12529004Y10380342D01*
X12525438Y10383822D01*
X12522047Y10387477D01*
X12518844Y10391294D01*
X12515834Y10395267D01*
X12513028Y10399384D01*
X12510429Y10403636D01*
X12508047Y10408013D01*
X12505883Y10412503D01*
X12503947Y10417096D01*
X12502243Y10421780D01*
X12500775Y10426539D01*
X12499545Y10431371D01*
X12498557Y10436255D01*
X12497813Y10441183D01*
X12497318Y10446141D01*
X12497069Y10451119D01*
X12497069Y10456103D01*
X12497318Y10461081D01*
X12497813Y10466039D01*
X12498557Y10470967D01*
X12499545Y10475851D01*
X12500775Y10480682D01*
X12502243Y10485442D01*
X12503947Y10490126D01*
X12505883Y10494718D01*
X12508047Y10499209D01*
X12510429Y10503585D01*
X12513028Y10507837D01*
X12515834Y10511955D01*
X12518844Y10515927D01*
X12522047Y10519745D01*
X12525438Y10523400D01*
X12529004Y10526880D01*
X12532740Y10530177D01*
X12536637Y10533283D01*
X12540683Y10536191D01*
X12544872Y10538896D01*
X12549187Y10541388D01*
X12553622Y10543661D01*
X12558163Y10545711D01*
X12562804Y10547532D01*
X12567526Y10549120D01*
X12572324Y10550469D01*
X12577183Y10551579D01*
X12582090Y10552442D01*
X12587036Y10553062D01*
X12592006Y10553435D01*
X12596987Y10553560D01*
X12747091Y10553560D01*
X12752072Y10553435D01*
X12757043Y10553062D01*
X12761988Y10552442D01*
X12766895Y10551579D01*
X12771754Y10550469D01*
X12776553Y10549120D01*
X12781274Y10547532D01*
X12785915Y10545711D01*
X12790457Y10543661D01*
X12794891Y10541388D01*
X12799207Y10538896D01*
X12803395Y10536191D01*
X12807441Y10533283D01*
X12811338Y10530177D01*
X12815074Y10526880D01*
X12818640Y10523400D01*
X12822031Y10519745D01*
X12825234Y10515927D01*
X12828244Y10511955D01*
X12831051Y10507837D01*
X12833649Y10503585D01*
X12836032Y10499209D01*
X12838196Y10494718D01*
X12840131Y10490126D01*
X12841836Y10485442D01*
X12843304Y10480682D01*
X12844533Y10475851D01*
X12845521Y10470967D01*
X12846265Y10466039D01*
X12846761Y10461081D01*
X12847010Y10456103D01*
X12847010Y10451119D01*
X12846761Y10446141D01*
X12846265Y10441183D01*
X12845521Y10436255D01*
X12844533Y10431371D01*
X12843304Y10426539D01*
X12841836Y10421780D01*
X12840131Y10417096D01*
X12838196Y10412503D01*
X12836032Y10408013D01*
X12833649Y10403636D01*
X12831051Y10399384D01*
X12828244Y10395267D01*
X12825234Y10391294D01*
X12822031Y10387477D01*
X12818640Y10383822D01*
X12815074Y10380342D01*
X12811338Y10377045D01*
X12807441Y10373939D01*
X12803395Y10371030D01*
X12799207Y10368325D01*
X12794891Y10365833D01*
X12790457Y10363560D01*
X12785915Y10361510D01*
X12781274Y10359689D01*
X12776553Y10358102D01*
X12771754Y10356753D01*
X12766895Y10355643D01*
X12761988Y10354779D01*
X12757043Y10354160D01*
X12752072Y10353786D01*
X12747091Y10353662D01*
G37*
G36*
X10905388Y10353662D02*
G01*
X10900407Y10353786D01*
X10895436Y10354160D01*
X10890491Y10354779D01*
X10885584Y10355643D01*
X10880725Y10356753D01*
X10875926Y10358102D01*
X10871205Y10359689D01*
X10866564Y10361510D01*
X10862022Y10363560D01*
X10857588Y10365833D01*
X10853272Y10368325D01*
X10849084Y10371030D01*
X10845038Y10373939D01*
X10841141Y10377045D01*
X10837405Y10380342D01*
X10833839Y10383822D01*
X10830448Y10387477D01*
X10827245Y10391294D01*
X10824235Y10395267D01*
X10821428Y10399384D01*
X10818830Y10403636D01*
X10816447Y10408013D01*
X10814283Y10412503D01*
X10812348Y10417096D01*
X10810643Y10421780D01*
X10809175Y10426539D01*
X10807946Y10431371D01*
X10806958Y10436255D01*
X10806214Y10441183D01*
X10805718Y10446141D01*
X10805469Y10451119D01*
X10805469Y10456103D01*
X10805718Y10461081D01*
X10806214Y10466039D01*
X10806958Y10470967D01*
X10807946Y10475851D01*
X10809175Y10480682D01*
X10810643Y10485442D01*
X10812348Y10490126D01*
X10814283Y10494718D01*
X10816447Y10499209D01*
X10818830Y10503585D01*
X10821428Y10507837D01*
X10824235Y10511955D01*
X10827245Y10515927D01*
X10830448Y10519745D01*
X10833839Y10523400D01*
X10837405Y10526880D01*
X10841141Y10530177D01*
X10845038Y10533283D01*
X10849084Y10536191D01*
X10853272Y10538896D01*
X10857588Y10541388D01*
X10862022Y10543661D01*
X10866564Y10545711D01*
X10871205Y10547532D01*
X10875926Y10549120D01*
X10880725Y10550469D01*
X10885584Y10551579D01*
X10890491Y10552442D01*
X10895436Y10553062D01*
X10900407Y10553435D01*
X10905388Y10553560D01*
X11055492Y10553560D01*
X11060473Y10553435D01*
X11065443Y10553062D01*
X11070389Y10552442D01*
X11075296Y10551579D01*
X11080155Y10550469D01*
X11084953Y10549120D01*
X11089675Y10547532D01*
X11094316Y10545711D01*
X11098857Y10543661D01*
X11103292Y10541388D01*
X11107607Y10538896D01*
X11111796Y10536191D01*
X11115842Y10533283D01*
X11119738Y10530177D01*
X11123475Y10526880D01*
X11127041Y10523400D01*
X11130432Y10519745D01*
X11133635Y10515927D01*
X11136645Y10511955D01*
X11139451Y10507837D01*
X11142050Y10503585D01*
X11144432Y10499209D01*
X11146596Y10494718D01*
X11148532Y10490126D01*
X11150236Y10485442D01*
X11151704Y10480682D01*
X11152934Y10475851D01*
X11153922Y10470967D01*
X11154666Y10466039D01*
X11155161Y10461081D01*
X11155410Y10456103D01*
X11155410Y10451119D01*
X11155161Y10446141D01*
X11154666Y10441183D01*
X11153922Y10436255D01*
X11152934Y10431371D01*
X11151704Y10426539D01*
X11150236Y10421780D01*
X11148532Y10417096D01*
X11146596Y10412503D01*
X11144432Y10408013D01*
X11142050Y10403636D01*
X11139451Y10399384D01*
X11136645Y10395267D01*
X11133635Y10391294D01*
X11130432Y10387477D01*
X11127041Y10383822D01*
X11123475Y10380342D01*
X11119738Y10377045D01*
X11115842Y10373939D01*
X11111796Y10371030D01*
X11107607Y10368325D01*
X11103292Y10365833D01*
X11098857Y10363560D01*
X11094316Y10361510D01*
X11089675Y10359689D01*
X11084953Y10358102D01*
X11080155Y10356753D01*
X11075296Y10355643D01*
X11070389Y10354779D01*
X11065443Y10354160D01*
X11060473Y10353786D01*
X11055492Y10353662D01*
G37*
G36*
X10905370Y10099090D02*
G01*
X10900392Y10099210D01*
X10895418Y10099598D01*
X10890473Y10100198D01*
X10885568Y10101071D01*
X10880707Y10102179D01*
X10875911Y10103533D01*
X10871189Y10105120D01*
X10866546Y10106936D01*
X10862007Y10108986D01*
X10857570Y10111259D01*
X10853252Y10113749D01*
X10849066Y10116461D01*
X10845017Y10119362D01*
X10841123Y10122468D01*
X10837390Y10125781D01*
X10833818Y10129253D01*
X10830427Y10132913D01*
X10827230Y10136728D01*
X10824215Y10140690D01*
X10821410Y10144808D01*
X10818812Y10149062D01*
X10816432Y10153436D01*
X10814268Y10157924D01*
X10812330Y10162522D01*
X10810623Y10167203D01*
X10809155Y10171965D01*
X10807928Y10176791D01*
X10806940Y10181686D01*
X10806198Y10186609D01*
X10805701Y10191559D01*
X10805449Y10196550D01*
X10805449Y10201523D01*
X10805701Y10206509D01*
X10806198Y10211460D01*
X10806940Y10216393D01*
X10807928Y10221282D01*
X10809155Y10226113D01*
X10810623Y10230876D01*
X10812330Y10235552D01*
X10814268Y10240144D01*
X10816432Y10244637D01*
X10818812Y10249011D01*
X10821410Y10253266D01*
X10824215Y10257383D01*
X10827230Y10261358D01*
X10830427Y10265178D01*
X10833818Y10268826D01*
X10837390Y10272311D01*
X10841123Y10275605D01*
X10845017Y10278711D01*
X10849066Y10281612D01*
X10853252Y10284325D01*
X10857570Y10286809D01*
X10862007Y10289087D01*
X10866546Y10291137D01*
X10871189Y10292953D01*
X10875911Y10294541D01*
X10880707Y10295895D01*
X10885568Y10297002D01*
X10890473Y10297871D01*
X10895418Y10298493D01*
X10900392Y10298864D01*
X10905370Y10298988D01*
X11055477Y10298988D01*
X11060455Y10298864D01*
X11065423Y10298493D01*
X11070369Y10297871D01*
X11075278Y10297002D01*
X11080140Y10295895D01*
X11084935Y10294541D01*
X11089657Y10292953D01*
X11094295Y10291137D01*
X11098847Y10289087D01*
X11103272Y10286809D01*
X11107590Y10284325D01*
X11111781Y10281612D01*
X11115824Y10278711D01*
X11119718Y10275605D01*
X11123465Y10272311D01*
X11127021Y10268826D01*
X11130414Y10265178D01*
X11133617Y10261358D01*
X11136627Y10257383D01*
X11139436Y10253266D01*
X11142035Y10249011D01*
X11144415Y10244637D01*
X11146579Y10240144D01*
X11148517Y10235552D01*
X11150224Y10230876D01*
X11151684Y10226113D01*
X11152919Y10221282D01*
X11153907Y10216393D01*
X11154648Y10211460D01*
X11155146Y10206509D01*
X11155390Y10201523D01*
X11155390Y10196550D01*
X11155146Y10191559D01*
X11154648Y10186609D01*
X11153907Y10181686D01*
X11152919Y10176791D01*
X11151684Y10171965D01*
X11150224Y10167203D01*
X11148517Y10162522D01*
X11146579Y10157924D01*
X11144415Y10153436D01*
X11142035Y10149062D01*
X11139436Y10144808D01*
X11136627Y10140690D01*
X11133617Y10136728D01*
X11130414Y10132913D01*
X11127021Y10129253D01*
X11123465Y10125781D01*
X11119718Y10122468D01*
X11115824Y10119362D01*
X11111781Y10116461D01*
X11107590Y10113749D01*
X11103272Y10111259D01*
X11098847Y10108986D01*
X11094295Y10106936D01*
X11089657Y10105120D01*
X11084935Y10103533D01*
X11080140Y10102179D01*
X11075278Y10101071D01*
X11070369Y10100198D01*
X11065423Y10099598D01*
X11060455Y10099210D01*
X11055477Y10099090D01*
G37*
G36*
X10905370Y9846091D02*
G01*
X10900387Y9846210D01*
X10895416Y9846599D01*
X10890468Y9847199D01*
X10885566Y9848072D01*
X10880707Y9849180D01*
X10875906Y9850534D01*
X10871187Y9852121D01*
X10866541Y9853937D01*
X10862005Y9855987D01*
X10857567Y9858260D01*
X10853247Y9860749D01*
X10849061Y9863462D01*
X10845012Y9866363D01*
X10841118Y9869469D01*
X10837387Y9872781D01*
X10833818Y9876254D01*
X10830422Y9879914D01*
X10827224Y9883729D01*
X10824209Y9887691D01*
X10821405Y9891809D01*
X10818807Y9896063D01*
X10816429Y9900437D01*
X10814265Y9904925D01*
X10812330Y9909522D01*
X10810618Y9914204D01*
X10809155Y9918966D01*
X10807923Y9923792D01*
X10806935Y9928687D01*
X10806193Y9933609D01*
X10805701Y9938560D01*
X10805449Y9943551D01*
X10805449Y9948524D01*
X10805701Y9953510D01*
X10806193Y9958461D01*
X10806935Y9963393D01*
X10807923Y9968283D01*
X10809155Y9973114D01*
X10810618Y9977876D01*
X10812330Y9982553D01*
X10814265Y9987145D01*
X10816429Y9991638D01*
X10818807Y9996012D01*
X10821405Y10000267D01*
X10824209Y10004384D01*
X10827224Y10008359D01*
X10830422Y10012179D01*
X10833818Y10015827D01*
X10837387Y10019311D01*
X10841118Y10022606D01*
X10845012Y10025712D01*
X10849061Y10028613D01*
X10853247Y10031326D01*
X10857567Y10033810D01*
X10862005Y10036088D01*
X10866541Y10038138D01*
X10871187Y10039954D01*
X10875906Y10041542D01*
X10880707Y10042895D01*
X10885566Y10044003D01*
X10890468Y10044871D01*
X10895416Y10045494D01*
X10900387Y10045865D01*
X10905370Y10045989D01*
X11055474Y10045989D01*
X11060450Y10045865D01*
X11065418Y10045494D01*
X11070363Y10044871D01*
X11075278Y10044003D01*
X11080137Y10042895D01*
X11084930Y10041542D01*
X11089657Y10039954D01*
X11094290Y10038138D01*
X11098844Y10036088D01*
X11103267Y10033810D01*
X11107587Y10031326D01*
X11111776Y10028613D01*
X11115822Y10025712D01*
X11119713Y10022606D01*
X11123462Y10019311D01*
X11127021Y10015827D01*
X11130412Y10012179D01*
X11133612Y10008359D01*
X11136622Y10004384D01*
X11139431Y10000267D01*
X11142030Y9996012D01*
X11144415Y9991638D01*
X11146579Y9987145D01*
X11148514Y9982553D01*
X11150221Y9977876D01*
X11151684Y9973114D01*
X11152913Y9968283D01*
X11153902Y9963393D01*
X11154643Y9958461D01*
X11155144Y9953510D01*
X11155390Y9948524D01*
X11155390Y9943551D01*
X11155144Y9938560D01*
X11154643Y9933609D01*
X11153902Y9928687D01*
X11152913Y9923792D01*
X11151684Y9918966D01*
X11150221Y9914204D01*
X11148514Y9909522D01*
X11146579Y9904925D01*
X11144415Y9900437D01*
X11142030Y9896063D01*
X11139431Y9891809D01*
X11136622Y9887691D01*
X11133612Y9883729D01*
X11130412Y9879914D01*
X11127021Y9876254D01*
X11123462Y9872781D01*
X11119713Y9869469D01*
X11115822Y9866363D01*
X11111776Y9863462D01*
X11107587Y9860749D01*
X11103267Y9858260D01*
X11098844Y9855987D01*
X11094290Y9853937D01*
X11089657Y9852121D01*
X11084930Y9850534D01*
X11080137Y9849180D01*
X11075278Y9848072D01*
X11070363Y9847199D01*
X11065418Y9846599D01*
X11060450Y9846210D01*
X11055474Y9846091D01*
G37*
G36*
X10905370Y9592089D02*
G01*
X10900392Y9592210D01*
X10895416Y9592599D01*
X10890470Y9593199D01*
X10885566Y9594072D01*
X10880707Y9595180D01*
X10875911Y9596534D01*
X10871187Y9598121D01*
X10866544Y9599935D01*
X10862005Y9601987D01*
X10857567Y9604258D01*
X10853252Y9606749D01*
X10849066Y9609460D01*
X10845017Y9612363D01*
X10841121Y9615469D01*
X10837387Y9618781D01*
X10833818Y9622251D01*
X10830427Y9625914D01*
X10827230Y9629726D01*
X10824215Y9633691D01*
X10821410Y9637809D01*
X10818812Y9642060D01*
X10816429Y9646437D01*
X10814265Y9650925D01*
X10812330Y9655520D01*
X10810623Y9660204D01*
X10809155Y9664966D01*
X10807928Y9669792D01*
X10806940Y9674684D01*
X10806196Y9679607D01*
X10805701Y9684560D01*
X10805449Y9689551D01*
X10805449Y9694524D01*
X10805701Y9699508D01*
X10806196Y9704461D01*
X10806940Y9709393D01*
X10807928Y9714280D01*
X10809155Y9719111D01*
X10810623Y9723874D01*
X10812330Y9728553D01*
X10814265Y9733142D01*
X10816429Y9737638D01*
X10818812Y9742012D01*
X10821410Y9746267D01*
X10824215Y9750384D01*
X10827230Y9754356D01*
X10830427Y9758177D01*
X10833818Y9761827D01*
X10837387Y9765309D01*
X10841121Y9768606D01*
X10845017Y9771712D01*
X10849066Y9774613D01*
X10853252Y9777326D01*
X10857567Y9779810D01*
X10862005Y9782088D01*
X10866544Y9784138D01*
X10871187Y9785954D01*
X10875911Y9787542D01*
X10880707Y9788893D01*
X10885566Y9790003D01*
X10890470Y9790869D01*
X10895416Y9791491D01*
X10900392Y9791865D01*
X10905370Y9791989D01*
X11055474Y9791989D01*
X11060455Y9791865D01*
X11065423Y9791491D01*
X11070369Y9790869D01*
X11075278Y9790003D01*
X11080137Y9788893D01*
X11084935Y9787542D01*
X11089657Y9785954D01*
X11094293Y9784138D01*
X11098844Y9782088D01*
X11103272Y9779810D01*
X11107587Y9777326D01*
X11111778Y9774613D01*
X11115822Y9771712D01*
X11119716Y9768606D01*
X11123462Y9765309D01*
X11127021Y9761827D01*
X11130412Y9758177D01*
X11133617Y9754356D01*
X11136624Y9750384D01*
X11139436Y9746267D01*
X11142032Y9742012D01*
X11144415Y9737638D01*
X11146579Y9733142D01*
X11148514Y9728553D01*
X11150221Y9723874D01*
X11151684Y9719111D01*
X11152919Y9714280D01*
X11153904Y9709393D01*
X11154648Y9704461D01*
X11155144Y9699508D01*
X11155390Y9694524D01*
X11155390Y9689551D01*
X11155144Y9684560D01*
X11154648Y9679607D01*
X11153904Y9674684D01*
X11152919Y9669792D01*
X11151684Y9664966D01*
X11150221Y9660204D01*
X11148514Y9655520D01*
X11146579Y9650925D01*
X11144415Y9646437D01*
X11142032Y9642060D01*
X11139436Y9637809D01*
X11136624Y9633691D01*
X11133617Y9629726D01*
X11130412Y9625914D01*
X11127021Y9622251D01*
X11123462Y9618781D01*
X11119716Y9615469D01*
X11115822Y9612363D01*
X11111778Y9609460D01*
X11107587Y9606749D01*
X11103272Y9604258D01*
X11098844Y9601987D01*
X11094293Y9599935D01*
X11089657Y9598121D01*
X11084935Y9596534D01*
X11080137Y9595180D01*
X11075278Y9594072D01*
X11070369Y9593199D01*
X11065423Y9592599D01*
X11060455Y9592210D01*
X11055474Y9592089D01*
G37*
G36*
X10905365Y9338091D02*
G01*
X10900387Y9338210D01*
X10895411Y9338599D01*
X10890465Y9339199D01*
X10885561Y9340072D01*
X10880702Y9341180D01*
X10875906Y9342534D01*
X10871182Y9344121D01*
X10866539Y9345937D01*
X10862000Y9347987D01*
X10857562Y9350260D01*
X10853247Y9352749D01*
X10849061Y9355462D01*
X10845012Y9358363D01*
X10841116Y9361469D01*
X10837382Y9364781D01*
X10833813Y9368254D01*
X10830422Y9371914D01*
X10827224Y9375729D01*
X10824209Y9379691D01*
X10821405Y9383809D01*
X10818807Y9388063D01*
X10816424Y9392437D01*
X10814260Y9396925D01*
X10812325Y9401522D01*
X10810618Y9406204D01*
X10809150Y9410966D01*
X10807923Y9415792D01*
X10806935Y9420687D01*
X10806191Y9425609D01*
X10805695Y9430560D01*
X10805444Y9435551D01*
X10805444Y9440524D01*
X10805695Y9445510D01*
X10806191Y9450461D01*
X10806935Y9455393D01*
X10807923Y9460283D01*
X10809150Y9465114D01*
X10810618Y9469876D01*
X10812325Y9474553D01*
X10814260Y9479145D01*
X10816424Y9483638D01*
X10818807Y9488012D01*
X10821405Y9492267D01*
X10824209Y9496384D01*
X10827224Y9500359D01*
X10830422Y9504179D01*
X10833813Y9507827D01*
X10837382Y9511311D01*
X10841116Y9514606D01*
X10845012Y9517712D01*
X10849061Y9520613D01*
X10853247Y9523326D01*
X10857562Y9525810D01*
X10862000Y9528088D01*
X10866539Y9530138D01*
X10871182Y9531954D01*
X10875906Y9533542D01*
X10880702Y9534895D01*
X10885561Y9536003D01*
X10890465Y9536871D01*
X10895411Y9537494D01*
X10900387Y9537865D01*
X10905365Y9537989D01*
X11055469Y9537989D01*
X11060450Y9537865D01*
X11065418Y9537494D01*
X11070363Y9536871D01*
X11075273Y9536003D01*
X11080132Y9534895D01*
X11084930Y9533542D01*
X11089652Y9531954D01*
X11094288Y9530138D01*
X11098839Y9528088D01*
X11103267Y9525810D01*
X11107582Y9523326D01*
X11111773Y9520613D01*
X11115817Y9517712D01*
X11119711Y9514606D01*
X11123457Y9511311D01*
X11127016Y9507827D01*
X11130406Y9504179D01*
X11133612Y9500359D01*
X11136619Y9496384D01*
X11139431Y9492267D01*
X11142027Y9488012D01*
X11144410Y9483638D01*
X11146574Y9479145D01*
X11148509Y9474553D01*
X11150216Y9469876D01*
X11151679Y9465114D01*
X11152913Y9460283D01*
X11153899Y9455393D01*
X11154643Y9450461D01*
X11155138Y9445510D01*
X11155385Y9440524D01*
X11155385Y9435551D01*
X11155138Y9430560D01*
X11154643Y9425609D01*
X11153899Y9420687D01*
X11152913Y9415792D01*
X11151679Y9410966D01*
X11150216Y9406204D01*
X11148509Y9401522D01*
X11146574Y9396925D01*
X11144410Y9392437D01*
X11142027Y9388063D01*
X11139431Y9383809D01*
X11136619Y9379691D01*
X11133612Y9375729D01*
X11130406Y9371914D01*
X11127016Y9368254D01*
X11123457Y9364781D01*
X11119711Y9361469D01*
X11115817Y9358363D01*
X11111773Y9355462D01*
X11107582Y9352749D01*
X11103267Y9350260D01*
X11098839Y9347987D01*
X11094288Y9345937D01*
X11089652Y9344121D01*
X11084930Y9342534D01*
X11080132Y9341180D01*
X11075273Y9340072D01*
X11070363Y9339199D01*
X11065418Y9338599D01*
X11060450Y9338210D01*
X11055469Y9338091D01*
G37*
G36*
X10905365Y9084091D02*
G01*
X10900389Y9084210D01*
X10895406Y9084599D01*
X10890468Y9085199D01*
X10885556Y9086072D01*
X10880702Y9087180D01*
X10875909Y9088534D01*
X10871177Y9090121D01*
X10866544Y9091937D01*
X10862000Y9093987D01*
X10857557Y9096260D01*
X10853252Y9098749D01*
X10849066Y9101462D01*
X10845017Y9104363D01*
X10841121Y9107469D01*
X10837382Y9110781D01*
X10833813Y9114254D01*
X10830427Y9117914D01*
X10827230Y9121729D01*
X10824212Y9125691D01*
X10821410Y9129809D01*
X10818812Y9134063D01*
X10816419Y9138437D01*
X10814260Y9142925D01*
X10812325Y9147522D01*
X10810623Y9152204D01*
X10809150Y9156966D01*
X10807928Y9161792D01*
X10806940Y9166687D01*
X10806196Y9171609D01*
X10805701Y9176560D01*
X10805444Y9181551D01*
X10805444Y9186524D01*
X10805701Y9191510D01*
X10806196Y9196461D01*
X10806940Y9201393D01*
X10807928Y9206283D01*
X10809150Y9211114D01*
X10810623Y9215876D01*
X10812325Y9220553D01*
X10814260Y9225145D01*
X10816419Y9229638D01*
X10818812Y9234012D01*
X10821410Y9238267D01*
X10824212Y9242384D01*
X10827230Y9246359D01*
X10830427Y9250179D01*
X10833813Y9253827D01*
X10837382Y9257311D01*
X10841121Y9260606D01*
X10845017Y9263712D01*
X10849066Y9266613D01*
X10853252Y9269326D01*
X10857557Y9271810D01*
X10862000Y9274088D01*
X10866544Y9276138D01*
X10871177Y9277954D01*
X10875909Y9279542D01*
X10880702Y9280895D01*
X10885556Y9282003D01*
X10890468Y9282871D01*
X10895406Y9283494D01*
X10900389Y9283865D01*
X10905365Y9283989D01*
X11055464Y9283989D01*
X11060455Y9283865D01*
X11065421Y9283494D01*
X11070366Y9282871D01*
X11075273Y9282003D01*
X11080132Y9280895D01*
X11084935Y9279542D01*
X11089657Y9277954D01*
X11094293Y9276138D01*
X11098834Y9274088D01*
X11103272Y9271810D01*
X11107577Y9269326D01*
X11111778Y9266613D01*
X11115817Y9263712D01*
X11119716Y9260606D01*
X11123452Y9257311D01*
X11127021Y9253827D01*
X11130401Y9250179D01*
X11133617Y9246359D01*
X11136622Y9242384D01*
X11139434Y9238267D01*
X11142032Y9234012D01*
X11144415Y9229638D01*
X11146574Y9225145D01*
X11148509Y9220553D01*
X11150211Y9215876D01*
X11151684Y9211114D01*
X11152916Y9206283D01*
X11153904Y9201393D01*
X11154648Y9196461D01*
X11155133Y9191510D01*
X11155385Y9186524D01*
X11155385Y9181551D01*
X11155133Y9176560D01*
X11154648Y9171609D01*
X11153904Y9166687D01*
X11152916Y9161792D01*
X11151684Y9156966D01*
X11150211Y9152204D01*
X11148509Y9147522D01*
X11146574Y9142925D01*
X11144415Y9138437D01*
X11142032Y9134063D01*
X11139434Y9129809D01*
X11136622Y9125691D01*
X11133617Y9121729D01*
X11130401Y9117914D01*
X11127021Y9114254D01*
X11123452Y9110781D01*
X11119716Y9107469D01*
X11115817Y9104363D01*
X11111778Y9101462D01*
X11107577Y9098749D01*
X11103272Y9096260D01*
X11098834Y9093987D01*
X11094293Y9091937D01*
X11089657Y9090121D01*
X11084935Y9088534D01*
X11080132Y9087180D01*
X11075273Y9086072D01*
X11070366Y9085199D01*
X11065421Y9084599D01*
X11060455Y9084210D01*
X11055464Y9084091D01*
G37*
G36*
X10905365Y8830096D02*
G01*
X10900389Y8830213D01*
X10895406Y8830604D01*
X10890470Y8831201D01*
X10885556Y8832077D01*
X10880702Y8833182D01*
X10875909Y8834539D01*
X10871177Y8836126D01*
X10866544Y8837942D01*
X10862000Y8839992D01*
X10857557Y8842263D01*
X10853249Y8844754D01*
X10849066Y8847467D01*
X10845017Y8850368D01*
X10841121Y8853472D01*
X10837382Y8856786D01*
X10833813Y8860259D01*
X10830425Y8863919D01*
X10827227Y8867731D01*
X10824212Y8871694D01*
X10821408Y8875814D01*
X10818812Y8880068D01*
X10816419Y8884442D01*
X10814260Y8888928D01*
X10812325Y8893528D01*
X10810623Y8898206D01*
X10809150Y8902969D01*
X10807926Y8907795D01*
X10806940Y8912689D01*
X10806196Y8917612D01*
X10805701Y8922565D01*
X10805444Y8927556D01*
X10805444Y8932527D01*
X10805701Y8937513D01*
X10806196Y8942466D01*
X10806940Y8947396D01*
X10807926Y8952288D01*
X10809150Y8957116D01*
X10810623Y8961879D01*
X10812325Y8966555D01*
X10814260Y8971145D01*
X10816419Y8975641D01*
X10818812Y8980015D01*
X10821408Y8984269D01*
X10824212Y8988386D01*
X10827227Y8992362D01*
X10830425Y8996182D01*
X10833813Y8999829D01*
X10837382Y9003314D01*
X10841121Y9006608D01*
X10845017Y9009715D01*
X10849066Y9012615D01*
X10853249Y9015328D01*
X10857557Y9017815D01*
X10862000Y9020091D01*
X10866544Y9022140D01*
X10871177Y9023957D01*
X10875909Y9025544D01*
X10880702Y9026900D01*
X10885556Y9028005D01*
X10890470Y9028874D01*
X10895406Y9029496D01*
X10900389Y9029870D01*
X10905365Y9029992D01*
X11055464Y9029992D01*
X11060452Y9029870D01*
X11065421Y9029496D01*
X11070366Y9028874D01*
X11075273Y9028005D01*
X11080132Y9026900D01*
X11084933Y9025544D01*
X11089657Y9023957D01*
X11094293Y9022140D01*
X11098834Y9020091D01*
X11103269Y9017815D01*
X11107577Y9015328D01*
X11111778Y9012615D01*
X11115817Y9009715D01*
X11119716Y9006608D01*
X11123452Y9003314D01*
X11127021Y8999829D01*
X11130401Y8996182D01*
X11133615Y8992362D01*
X11136622Y8988386D01*
X11139434Y8984269D01*
X11142032Y8980015D01*
X11144415Y8975641D01*
X11146574Y8971145D01*
X11148509Y8966555D01*
X11150211Y8961879D01*
X11151684Y8957116D01*
X11152916Y8952288D01*
X11153904Y8947396D01*
X11154648Y8942466D01*
X11155133Y8937513D01*
X11155385Y8932527D01*
X11155385Y8927556D01*
X11155133Y8922565D01*
X11154648Y8917612D01*
X11153904Y8912689D01*
X11152916Y8907795D01*
X11151684Y8902969D01*
X11150211Y8898206D01*
X11148509Y8893528D01*
X11146574Y8888928D01*
X11144415Y8884442D01*
X11142032Y8880068D01*
X11139434Y8875814D01*
X11136622Y8871694D01*
X11133615Y8867731D01*
X11130401Y8863919D01*
X11127021Y8860259D01*
X11123452Y8856786D01*
X11119716Y8853472D01*
X11115817Y8850368D01*
X11111778Y8847467D01*
X11107577Y8844754D01*
X11103269Y8842263D01*
X11098834Y8839992D01*
X11094293Y8837942D01*
X11089657Y8836126D01*
X11084933Y8834539D01*
X11080132Y8833182D01*
X11075273Y8832077D01*
X11070366Y8831201D01*
X11065421Y8830604D01*
X11060452Y8830213D01*
X11055464Y8830096D01*
G37*
G36*
X12747089Y10100096D02*
G01*
X12752072Y10100210D01*
X12757048Y10100612D01*
X12761983Y10101199D01*
X12766893Y10102085D01*
X12771747Y10103180D01*
X12776545Y10104546D01*
X12781272Y10106134D01*
X12785910Y10107942D01*
X12790454Y10110000D01*
X12794891Y10112265D01*
X12799207Y10114762D01*
X12803383Y10117467D01*
X12807431Y10120376D01*
X12811333Y10123469D01*
X12815072Y10126794D01*
X12818635Y10130259D01*
X12822029Y10133926D01*
X12825229Y10137734D01*
X12828242Y10141691D01*
X12831048Y10145821D01*
X12833637Y10150068D01*
X12836029Y10154450D01*
X12838193Y10158925D01*
X12840124Y10163528D01*
X12841825Y10168211D01*
X12843299Y10172974D01*
X12844531Y10177792D01*
X12845508Y10182692D01*
X12846258Y10187614D01*
X12846748Y10192572D01*
X12847005Y10197556D01*
X12847005Y10202524D01*
X12846748Y10207515D01*
X12846258Y10212473D01*
X12845508Y10217401D01*
X12844531Y10222288D01*
X12843299Y10227119D01*
X12841825Y10231881D01*
X12840124Y10236553D01*
X12838193Y10241150D01*
X12836029Y10245638D01*
X12833637Y10250012D01*
X12831048Y10254267D01*
X12828242Y10258384D01*
X12825229Y10262364D01*
X12822029Y10266184D01*
X12818635Y10269834D01*
X12815072Y10273317D01*
X12811333Y10276606D01*
X12807431Y10279712D01*
X12803383Y10282613D01*
X12799207Y10285326D01*
X12794891Y10287822D01*
X12790454Y10290088D01*
X12785910Y10292138D01*
X12781272Y10293954D01*
X12776545Y10295542D01*
X12771747Y10296900D01*
X12766893Y10298003D01*
X12761983Y10298877D01*
X12757048Y10299499D01*
X12752072Y10299877D01*
X12747089Y10299997D01*
X12597000Y10299997D01*
X12592011Y10299877D01*
X12587043Y10299499D01*
X12582098Y10298877D01*
X12577198Y10298003D01*
X12572329Y10296900D01*
X12567536Y10295542D01*
X12562806Y10293954D01*
X12558171Y10292138D01*
X12553637Y10290088D01*
X12549195Y10287822D01*
X12544889Y10285326D01*
X12540686Y10282613D01*
X12536655Y10279712D01*
X12532748Y10276606D01*
X12529014Y10273317D01*
X12525451Y10269834D01*
X12522070Y10266184D01*
X12518849Y10262364D01*
X12515844Y10258384D01*
X12513035Y10254267D01*
X12510432Y10250012D01*
X12508057Y10245638D01*
X12505898Y10241150D01*
X12503957Y10236553D01*
X12502255Y10231881D01*
X12500782Y10227119D01*
X12499548Y10222288D01*
X12498565Y10217401D01*
X12497823Y10212473D01*
X12497333Y10207515D01*
X12497081Y10202524D01*
X12497081Y10197556D01*
X12497333Y10192572D01*
X12497823Y10187614D01*
X12498565Y10182692D01*
X12499548Y10177792D01*
X12500782Y10172974D01*
X12502255Y10168211D01*
X12503957Y10163528D01*
X12505898Y10158925D01*
X12508057Y10154450D01*
X12510432Y10150068D01*
X12513035Y10145821D01*
X12515844Y10141691D01*
X12518849Y10137734D01*
X12522070Y10133926D01*
X12525451Y10130259D01*
X12529014Y10126794D01*
X12532748Y10123469D01*
X12536655Y10120376D01*
X12540686Y10117467D01*
X12544889Y10114762D01*
X12549195Y10112265D01*
X12553637Y10110000D01*
X12558171Y10107942D01*
X12562806Y10106134D01*
X12567536Y10104546D01*
X12572329Y10103180D01*
X12577198Y10102085D01*
X12582098Y10101199D01*
X12587043Y10100612D01*
X12592011Y10100210D01*
X12597000Y10100096D01*
G37*
G36*
X12747089Y9846096D02*
G01*
X12752075Y9846210D01*
X12757048Y9846612D01*
X12761981Y9847199D01*
X12766893Y9848085D01*
X12771747Y9849180D01*
X12776542Y9850546D01*
X12781272Y9852134D01*
X12785907Y9853942D01*
X12790454Y9856000D01*
X12794891Y9858265D01*
X12799207Y9860762D01*
X12803383Y9863467D01*
X12807431Y9866376D01*
X12811330Y9869469D01*
X12815072Y9872794D01*
X12818635Y9876259D01*
X12822026Y9879926D01*
X12825229Y9883734D01*
X12828239Y9887691D01*
X12831048Y9891821D01*
X12833637Y9896068D01*
X12836029Y9900450D01*
X12838193Y9904925D01*
X12840124Y9909528D01*
X12841825Y9914211D01*
X12843299Y9918974D01*
X12844531Y9923792D01*
X12845508Y9928692D01*
X12846255Y9933614D01*
X12846748Y9938572D01*
X12847005Y9943556D01*
X12847005Y9948524D01*
X12846748Y9953515D01*
X12846255Y9958473D01*
X12845508Y9963401D01*
X12844531Y9968288D01*
X12843299Y9973119D01*
X12841825Y9977881D01*
X12840124Y9982553D01*
X12838193Y9987150D01*
X12836029Y9991638D01*
X12833637Y9996012D01*
X12831048Y10000267D01*
X12828239Y10004384D01*
X12825229Y10008364D01*
X12822026Y10012184D01*
X12818635Y10015834D01*
X12815072Y10019317D01*
X12811330Y10022606D01*
X12807431Y10025712D01*
X12803383Y10028613D01*
X12799207Y10031326D01*
X12794891Y10033822D01*
X12790454Y10036088D01*
X12785907Y10038138D01*
X12781272Y10039954D01*
X12776542Y10041542D01*
X12771747Y10042900D01*
X12766893Y10044003D01*
X12761981Y10044877D01*
X12757048Y10045499D01*
X12752075Y10045877D01*
X12747089Y10045997D01*
X12597000Y10045997D01*
X12592011Y10045877D01*
X12587043Y10045499D01*
X12582098Y10044877D01*
X12577198Y10044003D01*
X12572326Y10042900D01*
X12567536Y10041542D01*
X12562806Y10039954D01*
X12558171Y10038138D01*
X12553637Y10036088D01*
X12549195Y10033822D01*
X12544887Y10031326D01*
X12540686Y10028613D01*
X12536652Y10025712D01*
X12532748Y10022606D01*
X12529012Y10019317D01*
X12525451Y10015834D01*
X12522070Y10012184D01*
X12518849Y10008364D01*
X12515844Y10004384D01*
X12513035Y10000267D01*
X12510432Y9996012D01*
X12508054Y9991638D01*
X12505898Y9987150D01*
X12503955Y9982553D01*
X12502253Y9977881D01*
X12500780Y9973119D01*
X12499548Y9968288D01*
X12498565Y9963401D01*
X12497823Y9958473D01*
X12497330Y9953515D01*
X12497079Y9948524D01*
X12497079Y9943556D01*
X12497330Y9938572D01*
X12497823Y9933614D01*
X12498565Y9928692D01*
X12499548Y9923792D01*
X12500780Y9918974D01*
X12502253Y9914211D01*
X12503955Y9909528D01*
X12505898Y9904925D01*
X12508054Y9900450D01*
X12510432Y9896068D01*
X12513035Y9891821D01*
X12515844Y9887691D01*
X12518849Y9883734D01*
X12522070Y9879926D01*
X12525451Y9876259D01*
X12529012Y9872794D01*
X12532748Y9869469D01*
X12536652Y9866376D01*
X12540686Y9863467D01*
X12544887Y9860762D01*
X12549195Y9858265D01*
X12553637Y9856000D01*
X12558171Y9853942D01*
X12562806Y9852134D01*
X12567536Y9850546D01*
X12572326Y9849180D01*
X12577198Y9848085D01*
X12582098Y9847199D01*
X12587043Y9846612D01*
X12592011Y9846210D01*
X12597000Y9846096D01*
G37*
G36*
X12747089Y9592096D02*
G01*
X12752075Y9592210D01*
X12757048Y9592612D01*
X12761981Y9593199D01*
X12766893Y9594085D01*
X12771747Y9595180D01*
X12776542Y9596546D01*
X12781272Y9598134D01*
X12785907Y9599942D01*
X12790454Y9602000D01*
X12794891Y9604265D01*
X12799207Y9606762D01*
X12803383Y9609467D01*
X12807431Y9612376D01*
X12811330Y9615469D01*
X12815072Y9618794D01*
X12818635Y9622259D01*
X12822026Y9625926D01*
X12825229Y9629734D01*
X12828239Y9633691D01*
X12831048Y9637821D01*
X12833637Y9642068D01*
X12836029Y9646450D01*
X12838193Y9650925D01*
X12840124Y9655528D01*
X12841825Y9660211D01*
X12843299Y9664974D01*
X12844531Y9669792D01*
X12845508Y9674692D01*
X12846255Y9679614D01*
X12846748Y9684572D01*
X12847005Y9689556D01*
X12847005Y9694524D01*
X12846748Y9699515D01*
X12846255Y9704473D01*
X12845508Y9709401D01*
X12844531Y9714288D01*
X12843299Y9719119D01*
X12841825Y9723881D01*
X12840124Y9728553D01*
X12838193Y9733150D01*
X12836029Y9737638D01*
X12833637Y9742012D01*
X12831048Y9746267D01*
X12828239Y9750384D01*
X12825229Y9754364D01*
X12822026Y9758184D01*
X12818635Y9761834D01*
X12815072Y9765317D01*
X12811330Y9768606D01*
X12807431Y9771712D01*
X12803383Y9774613D01*
X12799207Y9777326D01*
X12794891Y9779822D01*
X12790454Y9782088D01*
X12785907Y9784138D01*
X12781272Y9785954D01*
X12776542Y9787542D01*
X12771747Y9788900D01*
X12766893Y9790003D01*
X12761981Y9790877D01*
X12757048Y9791499D01*
X12752075Y9791877D01*
X12747089Y9791997D01*
X12597000Y9791997D01*
X12592011Y9791877D01*
X12587043Y9791499D01*
X12582098Y9790877D01*
X12577198Y9790003D01*
X12572326Y9788900D01*
X12567536Y9787542D01*
X12562806Y9785954D01*
X12558171Y9784138D01*
X12553637Y9782088D01*
X12549195Y9779822D01*
X12544887Y9777326D01*
X12540686Y9774613D01*
X12536652Y9771712D01*
X12532748Y9768606D01*
X12529012Y9765317D01*
X12525451Y9761834D01*
X12522070Y9758184D01*
X12518849Y9754364D01*
X12515844Y9750384D01*
X12513035Y9746267D01*
X12510432Y9742012D01*
X12508054Y9737638D01*
X12505898Y9733150D01*
X12503955Y9728553D01*
X12502253Y9723881D01*
X12500780Y9719119D01*
X12499548Y9714288D01*
X12498565Y9709401D01*
X12497823Y9704473D01*
X12497330Y9699515D01*
X12497079Y9694524D01*
X12497079Y9689556D01*
X12497330Y9684572D01*
X12497823Y9679614D01*
X12498565Y9674692D01*
X12499548Y9669792D01*
X12500780Y9664974D01*
X12502253Y9660211D01*
X12503955Y9655528D01*
X12505898Y9650925D01*
X12508054Y9646450D01*
X12510432Y9642068D01*
X12513035Y9637821D01*
X12515844Y9633691D01*
X12518849Y9629734D01*
X12522070Y9625926D01*
X12525451Y9622259D01*
X12529012Y9618794D01*
X12532748Y9615469D01*
X12536652Y9612376D01*
X12540686Y9609467D01*
X12544887Y9606762D01*
X12549195Y9604265D01*
X12553637Y9602000D01*
X12558171Y9599942D01*
X12562806Y9598134D01*
X12567536Y9596546D01*
X12572326Y9595180D01*
X12577198Y9594085D01*
X12582098Y9593199D01*
X12587043Y9592612D01*
X12592011Y9592210D01*
X12597000Y9592096D01*
G37*
G36*
X12747089Y9337095D02*
G01*
X12752077Y9337210D01*
X12757048Y9337614D01*
X12761983Y9338198D01*
X12766893Y9339087D01*
X12771747Y9340179D01*
X12776545Y9341548D01*
X12781272Y9343136D01*
X12785910Y9344941D01*
X12790454Y9347001D01*
X12794894Y9349265D01*
X12799209Y9351764D01*
X12803383Y9354466D01*
X12807431Y9357377D01*
X12811333Y9360468D01*
X12815072Y9363796D01*
X12818635Y9367258D01*
X12822029Y9370928D01*
X12825232Y9374733D01*
X12828242Y9378690D01*
X12831051Y9382823D01*
X12833637Y9387067D01*
X12836029Y9391451D01*
X12838193Y9395924D01*
X12840126Y9400527D01*
X12841828Y9405213D01*
X12843301Y9409976D01*
X12844533Y9414791D01*
X12845508Y9419691D01*
X12846258Y9424614D01*
X12846751Y9429574D01*
X12847005Y9434555D01*
X12847005Y9439523D01*
X12846751Y9444515D01*
X12846258Y9449475D01*
X12845508Y9454403D01*
X12844533Y9459287D01*
X12843301Y9464118D01*
X12841828Y9468881D01*
X12840126Y9473552D01*
X12838193Y9478149D01*
X12836029Y9482637D01*
X12833637Y9487011D01*
X12831051Y9491266D01*
X12828242Y9495383D01*
X12825232Y9499363D01*
X12822029Y9503183D01*
X12818635Y9506836D01*
X12815072Y9510316D01*
X12811333Y9513605D01*
X12807431Y9516711D01*
X12803383Y9519612D01*
X12799209Y9522325D01*
X12794894Y9524824D01*
X12790454Y9527087D01*
X12785910Y9529137D01*
X12781272Y9530953D01*
X12776545Y9532541D01*
X12771747Y9533900D01*
X12766893Y9535002D01*
X12761983Y9535876D01*
X12757048Y9536498D01*
X12752077Y9536879D01*
X12747089Y9536998D01*
X12597002Y9536998D01*
X12592014Y9536879D01*
X12587046Y9536498D01*
X12582098Y9535876D01*
X12577198Y9535002D01*
X12572326Y9533900D01*
X12567536Y9532541D01*
X12562809Y9530953D01*
X12558171Y9529137D01*
X12553640Y9527087D01*
X12549195Y9524824D01*
X12544889Y9522325D01*
X12540686Y9519612D01*
X12536655Y9516711D01*
X12532748Y9513605D01*
X12529014Y9510316D01*
X12525451Y9506836D01*
X12522072Y9503183D01*
X12518852Y9499363D01*
X12515847Y9495383D01*
X12513035Y9491266D01*
X12510432Y9487011D01*
X12508057Y9482637D01*
X12505898Y9478149D01*
X12503957Y9473552D01*
X12502255Y9468881D01*
X12500782Y9464118D01*
X12499548Y9459287D01*
X12498565Y9454403D01*
X12497823Y9449475D01*
X12497333Y9444515D01*
X12497081Y9439523D01*
X12497081Y9434555D01*
X12497333Y9429574D01*
X12497823Y9424614D01*
X12498565Y9419691D01*
X12499548Y9414791D01*
X12500782Y9409976D01*
X12502255Y9405213D01*
X12503957Y9400527D01*
X12505898Y9395924D01*
X12508057Y9391451D01*
X12510432Y9387067D01*
X12513035Y9382823D01*
X12515847Y9378690D01*
X12518852Y9374733D01*
X12522072Y9370928D01*
X12525451Y9367258D01*
X12529014Y9363796D01*
X12532748Y9360468D01*
X12536655Y9357377D01*
X12540686Y9354466D01*
X12544889Y9351764D01*
X12549195Y9349265D01*
X12553640Y9347001D01*
X12558171Y9344941D01*
X12562809Y9343136D01*
X12567536Y9341548D01*
X12572326Y9340179D01*
X12577198Y9339087D01*
X12582098Y9338198D01*
X12587046Y9337614D01*
X12592014Y9337210D01*
X12597002Y9337095D01*
G37*
G36*
X12747089Y9084096D02*
G01*
X12752072Y9084210D01*
X12757048Y9084614D01*
X12761981Y9085199D01*
X12766893Y9086087D01*
X12771744Y9087180D01*
X12776542Y9088549D01*
X12781269Y9090136D01*
X12785907Y9091942D01*
X12790454Y9094002D01*
X12794889Y9096265D01*
X12799207Y9098765D01*
X12803383Y9101467D01*
X12807431Y9104378D01*
X12811330Y9107469D01*
X12815072Y9110797D01*
X12818633Y9114259D01*
X12822026Y9117929D01*
X12825229Y9121734D01*
X12828239Y9125691D01*
X12831048Y9129824D01*
X12833637Y9134068D01*
X12836027Y9138452D01*
X12838193Y9142925D01*
X12840121Y9147528D01*
X12841823Y9152211D01*
X12843296Y9156974D01*
X12844531Y9161792D01*
X12845508Y9166692D01*
X12846255Y9171614D01*
X12846745Y9176575D01*
X12847005Y9181556D01*
X12847005Y9186524D01*
X12846745Y9191515D01*
X12846255Y9196476D01*
X12845508Y9201401D01*
X12844531Y9206288D01*
X12843296Y9211119D01*
X12841823Y9215881D01*
X12840121Y9220553D01*
X12838193Y9225150D01*
X12836027Y9229638D01*
X12833637Y9234012D01*
X12831048Y9238267D01*
X12828239Y9242384D01*
X12825229Y9246364D01*
X12822026Y9250184D01*
X12818633Y9253834D01*
X12815072Y9257317D01*
X12811330Y9260606D01*
X12807431Y9263712D01*
X12803383Y9266613D01*
X12799207Y9269326D01*
X12794889Y9271825D01*
X12790454Y9274088D01*
X12785907Y9276138D01*
X12781269Y9277954D01*
X12776542Y9279542D01*
X12771744Y9280900D01*
X12766893Y9282003D01*
X12761981Y9282877D01*
X12757048Y9283499D01*
X12752072Y9283880D01*
X12747089Y9283997D01*
X12597000Y9283997D01*
X12592009Y9283880D01*
X12587041Y9283499D01*
X12582095Y9282877D01*
X12577198Y9282003D01*
X12572326Y9280900D01*
X12567536Y9279542D01*
X12562806Y9277954D01*
X12558171Y9276138D01*
X12553635Y9274088D01*
X12549192Y9271825D01*
X12544887Y9269326D01*
X12540686Y9266613D01*
X12536652Y9263712D01*
X12532748Y9260606D01*
X12529012Y9257317D01*
X12525448Y9253834D01*
X12522067Y9250184D01*
X12518847Y9246364D01*
X12515844Y9242384D01*
X12513035Y9238267D01*
X12510432Y9234012D01*
X12508054Y9229638D01*
X12505895Y9225150D01*
X12503955Y9220553D01*
X12502253Y9215881D01*
X12500780Y9211119D01*
X12499545Y9206288D01*
X12498565Y9201401D01*
X12497823Y9196476D01*
X12497330Y9191515D01*
X12497079Y9186524D01*
X12497079Y9181556D01*
X12497330Y9176575D01*
X12497823Y9171614D01*
X12498565Y9166692D01*
X12499545Y9161792D01*
X12500780Y9156974D01*
X12502253Y9152211D01*
X12503955Y9147528D01*
X12505895Y9142925D01*
X12508054Y9138452D01*
X12510432Y9134068D01*
X12513035Y9129824D01*
X12515844Y9125691D01*
X12518847Y9121734D01*
X12522067Y9117929D01*
X12525448Y9114259D01*
X12529012Y9110797D01*
X12532748Y9107469D01*
X12536652Y9104378D01*
X12540686Y9101467D01*
X12544887Y9098765D01*
X12549192Y9096265D01*
X12553635Y9094002D01*
X12558171Y9091942D01*
X12562806Y9090136D01*
X12567536Y9088549D01*
X12572326Y9087180D01*
X12577198Y9086087D01*
X12582095Y9085199D01*
X12587041Y9084614D01*
X12592009Y9084210D01*
X12597000Y9084096D01*
G37*
G36*
X12747089Y8829098D02*
G01*
X12752072Y8829212D01*
X12757048Y8829619D01*
X12761981Y8830200D01*
X12766893Y8831092D01*
X12771744Y8832181D01*
X12776542Y8833553D01*
X12781269Y8835141D01*
X12785907Y8836944D01*
X12790454Y8839006D01*
X12794889Y8841267D01*
X12799207Y8843769D01*
X12803383Y8846469D01*
X12807431Y8849382D01*
X12811330Y8852471D01*
X12815072Y8855801D01*
X12818633Y8859260D01*
X12822026Y8862933D01*
X12825229Y8866736D01*
X12828239Y8870693D01*
X12831048Y8874828D01*
X12833637Y8879070D01*
X12836027Y8883456D01*
X12838193Y8887927D01*
X12840121Y8892529D01*
X12841823Y8897211D01*
X12843296Y8901973D01*
X12844531Y8906794D01*
X12845508Y8911694D01*
X12846255Y8916616D01*
X12846745Y8921579D01*
X12847005Y8926558D01*
X12847005Y8931526D01*
X12846745Y8936517D01*
X12846255Y8941480D01*
X12845508Y8946400D01*
X12844531Y8951290D01*
X12843296Y8956121D01*
X12841823Y8960883D01*
X12840121Y8965554D01*
X12838193Y8970152D01*
X12836027Y8974640D01*
X12833637Y8979014D01*
X12831048Y8983268D01*
X12828239Y8987386D01*
X12825229Y8991366D01*
X12822026Y8995186D01*
X12818633Y8998833D01*
X12815072Y9002318D01*
X12811330Y9005608D01*
X12807431Y9008714D01*
X12803383Y9011615D01*
X12799207Y9014327D01*
X12794889Y9016829D01*
X12790454Y9019090D01*
X12785907Y9021140D01*
X12781269Y9022956D01*
X12776542Y9024543D01*
X12771744Y9025902D01*
X12766893Y9027005D01*
X12761981Y9027878D01*
X12757048Y9028501D01*
X12752072Y9028884D01*
X12747089Y9028996D01*
X12597000Y9028996D01*
X12592009Y9028884D01*
X12587041Y9028501D01*
X12582095Y9027878D01*
X12577198Y9027005D01*
X12572326Y9025902D01*
X12567536Y9024543D01*
X12562806Y9022956D01*
X12558171Y9021140D01*
X12553635Y9019090D01*
X12549192Y9016829D01*
X12544887Y9014327D01*
X12540686Y9011615D01*
X12536652Y9008714D01*
X12532748Y9005608D01*
X12529012Y9002318D01*
X12525448Y8998833D01*
X12522067Y8995186D01*
X12518847Y8991366D01*
X12515844Y8987386D01*
X12513035Y8983268D01*
X12510432Y8979014D01*
X12508054Y8974640D01*
X12505895Y8970152D01*
X12503955Y8965554D01*
X12502253Y8960883D01*
X12500780Y8956121D01*
X12499545Y8951290D01*
X12498565Y8946400D01*
X12497823Y8941480D01*
X12497330Y8936517D01*
X12497079Y8931526D01*
X12497079Y8926558D01*
X12497330Y8921579D01*
X12497823Y8916616D01*
X12498565Y8911694D01*
X12499545Y8906794D01*
X12500780Y8901973D01*
X12502253Y8897211D01*
X12503955Y8892529D01*
X12505895Y8887927D01*
X12508054Y8883456D01*
X12510432Y8879070D01*
X12513035Y8874828D01*
X12515844Y8870693D01*
X12518847Y8866736D01*
X12522067Y8862933D01*
X12525448Y8859260D01*
X12529012Y8855801D01*
X12532748Y8852471D01*
X12536652Y8849382D01*
X12540686Y8846469D01*
X12544887Y8843769D01*
X12549192Y8841267D01*
X12553635Y8839006D01*
X12558171Y8836944D01*
X12562806Y8835141D01*
X12567536Y8833553D01*
X12572326Y8832181D01*
X12577198Y8831092D01*
X12582095Y8830200D01*
X12587041Y8829619D01*
X12592009Y8829212D01*
X12597000Y8829098D01*
G37*
D13*
G01*
X5958840Y8021065D03*
G01*
X5704840Y8021065D03*
D14*
G01*
X6212840Y7259065D03*
G01*
X5577840Y7005065D03*
D13*
G01*
X7901940Y8021065D03*
G01*
X7647940Y8021065D03*
D14*
G01*
X8155940Y7259065D03*
G01*
X7520940Y7005065D03*
D13*
G01*
X9845040Y8021065D03*
G01*
X9591040Y8021065D03*
D14*
G01*
X10099040Y7259065D03*
G01*
X9464040Y7005065D03*
D13*
G01*
X9845040Y9964165D03*
G01*
X9591040Y9964165D03*
D14*
G01*
X10099040Y9202165D03*
G01*
X9464040Y8948165D03*
D13*
G01*
X7901940Y9964165D03*
G01*
X7647940Y9964165D03*
D14*
G01*
X8155940Y9202165D03*
G01*
X7520940Y8948165D03*
D13*
G01*
X4015740Y8021065D03*
G01*
X3761740Y8021065D03*
D14*
G01*
X4269740Y7259065D03*
G01*
X3634740Y7005065D03*
D13*
G01*
X5958840Y9964165D03*
G01*
X5704840Y9964165D03*
D14*
G01*
X6212840Y9202165D03*
G01*
X5577840Y8948165D03*
D13*
G01*
X11788140Y8021065D03*
G01*
X11534140Y8021065D03*
D14*
G01*
X12042140Y7259065D03*
G01*
X11407140Y7005065D03*
D13*
G01*
X4015740Y9964165D03*
G01*
X3761740Y9964165D03*
D14*
G01*
X4269740Y9202165D03*
G01*
X3634740Y8948165D03*
D15*
G01*
X9521063Y8218525D03*
G01*
X12070486Y7790484D03*
G01*
X11557609Y9563404D03*
G01*
X7830616Y10453624D03*
G01*
X11627586Y9269552D03*
M02*
